<?xml version="1.0" encoding="UTF-8"?>
<svg id="Layer_1" data-name="Layer 1" xmlns="http://www.w3.org/2000/svg" xmlns:xlink="http://www.w3.org/1999/xlink" viewBox="0 0 900 900">
  <defs>
    <style>
      .cls-1 {
        opacity: .68;
      }

      .cls-1, .cls-2, .cls-3, .cls-4, .cls-5, .cls-6, .cls-7, .cls-8, .cls-9, .cls-10, .cls-11, .cls-12, .cls-13, .cls-14 {
        stroke-width: 0px;
      }

      .cls-1, .cls-2, .cls-4, .cls-7, .cls-8, .cls-10 {
        fill: #2ad2c9;
      }

      .cls-2 {
        opacity: .57;
      }

      .cls-3, .cls-15 {
        fill: #4b2e83;
      }

      .cls-5 {
        fill: #6eb91e;
      }

      .cls-6 {
        fill: none;
      }

      .cls-7 {
        opacity: .2;
      }

      .cls-8 {
        opacity: .15;
      }

      .cls-9 {
        fill: #fff;
      }

      .cls-10 {
        opacity: .82;
      }

      .cls-11 {
        fill: #85754d;
      }

      .cls-16 {
        clip-path: url(#clippath);
      }

      .cls-15 {
        stroke: #4b2e83;
        stroke-linecap: round;
        stroke-miterlimit: 10;
        stroke-width: 4px;
      }

      .cls-12 {
        fill: #c5b4e3;
        opacity: .28;
      }

      .cls-13 {
        fill: #aadb1e;
      }

      .cls-14 {
        fill: #ffc700;
      }
    </style>
    <clipPath id="clippath">
      <rect class="cls-6" x=".32" width="900.53" height="900"/>
    </clipPath>
  </defs>
  <g class="cls-16">
    <path class="cls-2" d="m-93,441.01c-27.23-2.76-49.34-3.67-64-4.01-48.66-1.13-62.05,2.95-103.18-.57-27.88-2.39-23.28-4.57-56.28-7.44-31.72-2.76-58.73-5.12-91.56-.57-15.29,2.12-38.15,6.61-63.84,17.18l-49.56,9.95-24.57,4.49c.04,9.79-1.99,61.9.66,69.48,1.76,3.27,24.04,1.66,26.32,4.57,2.76,3.51,53.63,9.16,58.76,9.16,58.17,0,719.9-32.4,823.29-45.6,15.63-1.99,134.16,1.17,297.3,23.94,164.77,23,222.82-22.81,376.89-26.25,104.89-2.34-148.9,23.46-133.22,26.25v-107.09c-51.85-3.44-945.15,29.95-997,26.51Z"/>
    <path class="cls-7" d="m900,267.42c-191.73,0-499.29,15.51-802.86,12.41-303.57-3.1-327.54-58.97-428.73-52.77-101.19,6.21-218.41,5.68-218.41,5.68v-80.86s-18.59.69,111.89-9.61c130.48-10.3,119.83-33.15,266.29-51.78C-25.36,71.87,6.6,112.22,139.74,133.95c133.14,21.73,178.41-6.21,213.03-12.41,34.62-6.21,262.19,28.17,314.34,7.43,95.87-38.13,196.74-3.56,238.65,30.18l-5.76,108.28Z"/>
    <line class="cls-15" x1="484.33" y1="4.39" x2="484.33" y2="61.84"/>
    <rect class="cls-6" x="-550" y="167.93" width="1450" height="190.03"/>
    <path class="cls-4" d="m-550,335.13c45.72-10.67,122.26-5.48,180.92-17.93s184.89-5.33,248.89,0,149.33,12.44,270.22,1.78,215.11-5.33,307.56-5.33,225.78,1.78,325.33-8.89c99.56-10.67,204.44,7.11,254.22,7.11s74.67,1.93,138.67,6.3,83.56.82,126.22,7.93c42.67,7.11-418.02,16.59-402.03,16v-74.67h92.7l-426.67-8.89-234.68,9.12-282.65-16.23-234.67,7.11s-364.03,1.78-364.03,10.67v65.93Z"/>
    <path class="cls-12" d="m900,214.66v64.6c0,36.43,29.92,65.75,66.34,65.01,140.5-2.85,450.51-8.57,390.76-2.23-130.57,13.86-139.64,38.48-286.1,66.95-146.46,28.47-178.41-33.21-311.56-66.42-133.14-33.21-178.41,9.49-213.03,18.97-34.62,9.49-210.37,18.98-237-18.98-26.63-37.97-71.9-18.97-143.8,0-71.9,18.97-90.54,23.73-183.74,14.24-93.2-9.49-255.64-37.96-306.23-39.19-50.6-1.23-150.43-51.94-224.99-15.21v-19.42c0-33.71,25.77-61.72,59.35-64.78,31.98-2.91,73.36-12.19,115.04-36.95,87.88-52.19,170.43-33.21,340.85-9.49,170.43,23.72,178.41,33.21,370.14,33.21s162.54-69.32,447.22-68.31c11.56.04,46.94,16.03,56.89,21.93l32.59,16.59c19.76,11.71,27.26,16.51,27.26,39.48Z"/>
    <path class="cls-5" d="m102.22,276.39s14.56-32.06,114.67-27.65c7.94.35,36.15-8.96,63.41-33.88,23.03-21.05,51.34-78.86,62.72-94.63,11.38-15.77,48.9-4.67,55.66-28.3,5.35-18.68,26.27-15.22,35.27-17.1,14.35-2.99,15.4-19.91,28.47-23.41,13.07-3.51,56.91-17.52,72.85,0,15.94,17.52,4.55,30.2,27.32,40.51,22.76,10.31,29.77,16.19,54.72,28.14,24.95,11.95,31.78,6.7,54.55,43.5s25.27,44.74,54.52,53.97c29.25,9.23,116.22,37.17,143.53,41.54s25.2,6.76,55.57,17.28c30.36,10.52,28.49,17.22,52.13,19.73,23.64,2.52,37.12,9.05,74.4,6.37,36.84-2.65,71.51,27.18,91.16,25.29,19.65-1.89,136.55,13.84,136.55,13.84L-2.68,350.71l104.9-74.32Z"/>
    <path class="cls-13" d="m181.14,273.98c19.21,8.42,61.34,17.51,85.7,14.02,34.97-5,43.33-7.97,73.28-42.8,17.27-20.08,363.6,23.09,419.91,48.22,0,0,86.24,48.7,223.85,56.95,63.29,3.79,31-24.29,116.44-25.23,29.82-.33,64.3-8.95,94.67-17.28,113.04-30.98,113.2,36.8,144.05,36.8,6.12,0-448.44,0-439.05,5.7v37.93c-258.56,0-1450,7.14-1450,7.14v-92.6s58.85-77.18,104.7-73.92c278.82,19.81,188.41,54.55,327.41,13.64,55.39-16.31,147.33-13.5,218.55,7.25,23.31,6.79,57.36,14.03,80.49,24.17Z"/>
    <path class="cls-3" d="m525.22,25.46c-15.7-6.16-31.41,5.13-47.11-1.03V8.35c15.7,5.48,31.41-6.5,47.11-1.03-4.03,1.62-8.05,4.3-12.08,7.45,4.03,2.72,8.05,6.09,12.08,10.69Z"/>
    <path class="cls-9" d="m503.11,9.93l.4,2.04,1.43-.28-.45,6.26s-3.49-7.5-3.53-7.61l-2.07.4c0,.11-.6,8.41-.6,8.41l-2.63-5.67,1.49-.29c-.03-.13-.37-1.91-.4-2.04-.14.03-5.84,1.13-5.99,1.16.03.13.37,1.91.4,2.04l1.33-.26s4.06,8.71,4.11,8.82c.11-.02,3.1-.6,3.21-.62,0-.11.4-6.13.4-6.13,0,0,2.54,5.44,2.59,5.55.11-.02,3.1-.6,3.21-.62,0-.11.64-9.74.64-9.74l1.32-.25-.4-2.04c-.14.03-4.33.84-4.47.87Z"/>
    <g>
      <path class="cls-3" d="m349.58,52.36c-1.44-2.46-2.87-4.87-4.26-7.3-1.41-2.45-1.03-3.94,1.44-5.4,5.79-3.42,11.6-6.82,17.4-10.22.11-.07.2-.19.53-.52-.37-.62-.79-1.31-1.18-2.02-1.21-2.21-.8-3.74,1.47-5.08,5.73-3.39,11.48-6.73,17.23-10.1,3.63-2.12,7.25-4.26,10.89-6.36,2.61-1.5,3.99-1.13,5.53,1.48,2.28,3.86,4.57,7.72,6.77,11.62.62,1.1,1.22,1.34,2.5,1.08,8.96-1.83,17.19,1.86,21.86,9.71,3.33,5.6,6.59,11.24,10,17.08,3.34-1.16,4.55,1.26,5.78,3.62,1.08,2.08.69,3.58-1.32,4.8-2.94,1.77-5.9,3.51-8.89,5.2-1.02.58-1.48,1.06-1.15,2.44,1.19,4.96-.88,9.65-5.09,12.05-4.16,2.38-9.09,1.77-12.89-1.48-.5-.42-1.59-.78-2.04-.53-5.07,2.84-10.06,5.81-15.18,8.8,1.54,5.72.42,10.62-4.92,13.62-5.15,2.9-9.85,1.48-13.97-2.58-4.23,2.47-8.42,4.89-12.56,7.37-1.68,1-3.4,1.48-4.71-.23-2.17-2.84-3.19-4.67-1.64-6.54.81-.98.39-1.6-.08-2.39-4.29-7.31-8.57-14.63-12.85-21.95-3.91-6.69-3.66-10.12,1.34-16.18Zm82.91-12.16c-4.51,2.1-6.21,1.57-8.61-2.52-2.2-3.75-4.41-7.49-6.56-11.26-.44-.78-.94-1.66-.95-2.51-.02-1.34-.81-1.44-1.74-1.57-4.12-.56-7.93.3-11.5,2.39-7.25,4.25-14.51,8.49-21.77,12.74-9.43,5.52-18.88,11.02-28.29,16.57-3.81,2.24-5.48,6.16-3.76,9.81,1.69,3.57,3.94,6.88,6.07,10.53,3.58-2.1,7.05-4.13,10.56-6.18l1.57,2.68c-3.59,2.1-7.06,4.13-10.54,6.17l1.47,2.51c.5-.23.88-.39,1.25-.58,3.52-1.92,4.52-1.65,6.55,1.81,1.26,2.15,2.52,4.31,3.75,6.4l2.48-1.45c-.08-.29-.1-.44-.16-.55-1.22-2.12-2.46-4.24-3.68-6.37-1.69-2.92-1.34-4.26,1.6-5.99,9.13-5.35,18.26-10.69,27.39-16.02,2.96-1.73,4.22-1.38,5.98,1.59,1.34,2.27,2.66,4.54,3.99,6.82,1.03-.6,1.78-1.04,2.72-1.59-5.75-9.83-11.42-19.53-17.19-29.39,2.96-1.73,5.72-3.36,8.5-4.97,6.44-3.74,12.52-2.16,16.3,4.25,3.38,5.73,6.73,11.49,10.09,17.23.38.64.75,1.28,1.13,1.93l2.2-1.29c-.28-1.84-1.02-3.56-.64-4.97.41-1.51,1.88-2.74,2.98-4.21l-1.18-2.02Zm-6.31,14.1c-2.65-4.53-5.16-8.82-7.69-13.15-4.45,2.6-8.76,5.12-13.15,7.69,2.57,4.4,5.08,8.69,7.72,13.2,2.42-5.94,6.67-8.48,13.12-7.74Zm-28.68-18.87c2.07,3.53,4.09,6.99,6.16,10.53,4.44-2.6,8.75-5.12,13.27-7.76-.86-1.47-1.61-2.87-2.47-4.2-2-3.12-5.75-4.55-9.13-3.07-2.71,1.19-5.17,2.95-7.83,4.5Zm7.3,31.52l-4.6-7.86-5.17,3.03c.44.89.83,1.67,1.23,2.49-.92.54-1.71,1-2.49,1.46-.61-.86-1.12-1.57-1.6-2.24-1.82,1.07-3.47,2.03-5.11,2.99,1.57,2.69,3.07,5.24,4.58,7.84,4.42-2.58,8.69-5.08,13.16-7.7Zm-9.35,14.59c-2.16-3.69-6.92-4.96-10.61-2.81-3.67,2.14-4.94,6.95-2.8,10.62,2.14,3.68,6.93,4.93,10.61,2.78,3.7-2.16,4.95-6.89,2.79-10.6Zm34.94-20.34c-2.14-3.74-6.84-5.05-10.56-2.94-3.69,2.1-5.01,6.88-2.93,10.59,2.08,3.69,6.88,5.01,10.59,2.9,3.74-2.13,5.03-6.82,2.9-10.55Zm-54.59,23.35c1.19-1.42,2.36-2.45,3.06-3.74,1.54-2.87,3.75-4.82,6.83-5.81.62-.2,1.26-.32,1.94-.49-1.26-2.16-2.38-4.06-3.51-6.01-1.78,1.04-3.44,2.01-5.14,3.01.43.91.8,1.7,1.22,2.58-.85.5-1.61.94-2.47,1.45-.57-.78-1.1-1.5-1.69-2.31-1.69.99-3.34,1.96-5.1,2.98,1.52,2.6,2.99,5.11,4.88,8.34Zm14.5-73.8c1.6,2.74,3.1,5.3,4.6,7.86.93-.45,1.73-.82,2.74-1.3,1.03,1.76,2,3.43,3.03,5.17.96-.56,1.71-1,2.51-1.47-2.61-4.46-5.16-8.82-7.76-13.26-1.74,1.02-3.36,1.97-5.12,2.99Zm1.64,9.58l-4.55-7.78c-1.81,1.06-3.46,2.03-5.11,2.99,2.61,4.46,5.14,8.78,7.7,13.16.85-.5,1.6-.93,2.53-1.48-1.03-1.76-2-3.42-3.02-5.16.9-.64,1.62-1.15,2.44-1.73Zm-4.93,10.13c-2.62-4.47-5.17-8.83-7.73-13.22-1.76,1.03-3.37,1.97-5.04,2.95,1.56,2.66,3.05,5.22,4.57,7.82.91-.43,1.71-.8,2.69-1.26,1.03,1.76,2,3.43,3.03,5.17.89-.52,1.59-.93,2.49-1.46Zm-20.8-5.58c2.63,4.5,5.19,8.87,7.73,13.22.88-.52,1.58-.93,2.54-1.48-1.05-1.79-2.05-3.5-3.04-5.19.95-.68,1.66-1.2,2.37-1.71-1.56-2.66-3.03-5.18-4.56-7.79-1.7.99-3.3,1.93-5.05,2.95Zm-8.51,22.74c-1.07-1.83-2.07-3.54-3.04-5.2.95-.68,1.66-1.19,2.38-1.71l-1.4-2.39-7.84,4.59c1.55,2.64,3.04,5.19,4.58,7.83,1.73-1.01,3.34-1.95,5.32-3.11Zm13.22-7.72c-1.6-2.74-3.1-5.3-4.57-7.81-2.7,1.58-5.25,3.07-7.74,4.53l1.4,2.39c.95-.44,1.74-.81,2.73-1.27,1.05,1.8,2.02,3.46,3.03,5.18,1.8-1.05,3.41-2,5.16-3.02Zm41.84,26.3c-5.97,3.49-11.73,6.86-17.6,10.29.79.76,1.44,1.38,2.13,2.04,5.39-3.15,10.75-6.29,16.16-9.45-.22-.94-.43-1.81-.69-2.89Zm-48.95,28.57c.56.96,1,1.71,1.46,2.49,4.51-2.64,8.89-5.2,13.28-7.77-.25-.99-.47-1.89-.72-2.92-4.8,2.81-9.36,5.47-14.01,8.2Zm66.96-57.61c-2.95-4.87-5.04-10.38-11.27-13.22,2.8,4.79,5.28,9.13,7.87,13.4,1,1.64,2.19.92,3.39-.18Zm10.65,12.26c-3.87,2.26-7.53,4.41-11.66,6.82,1.25.66,2.47,1.78,2.99,1.51,3.46-1.77,6.77-3.83,10.15-5.81l-1.48-2.53Zm-74.28,39.53c-1.6-2.74-3.09-5.29-4.57-7.81-.9.53-1.64.96-2.38,1.39,1.57,2.69,3.06,5.24,4.57,7.81.84-.49,1.55-.91,2.38-1.39Zm14.56-55.4l-1.41-2.41c-.89.52-1.68.99-2.48,1.45l1.41,2.41,2.48-1.45Zm-20.21,8.58c-.88.51-1.67.98-2.46,1.44l1.41,2.42c.88-.51,1.62-.95,2.46-1.44l-1.41-2.42Zm33.83-16.56l2.47-1.44-1.4-2.39c-.87.51-1.65.97-2.47,1.44.5.86.91,1.55,1.4,2.39Zm40.12,19.74c-.7.81-1.39,1.42-1.8,2.17-.13.25.43,1.26.72,1.28.86.06,1.73-.21,2.87-.39l-1.79-3.06Z"/>
      <path class="cls-3" d="m363.45,51.63c2.13,3.64,4.13,7.06,6.19,10.58-4.43,2.59-8.75,5.12-13.21,7.73-1.49-2.55-3.15-4.96-4.36-7.59-.86-1.88-.15-3.84,1.63-4.97,3.12-1.98,6.36-3.77,9.75-5.75Zm-5.92,14.06c2.67-1.56,5.22-3.05,7.82-4.57-1.04-1.77-2.01-3.43-3.08-5.26-1.12.65-2.13,1.23-3.13,1.84-4.9,2.97-5.53,1.97-1.6,7.99Z"/>
      <path class="cls-3" d="m376.93,43.88c2.02,3.45,4.02,6.87,6.11,10.44-3.51,2.05-6.97,4.08-10.54,6.16-2.02-3.46-4.02-6.88-6.11-10.44l10.54-6.16Zm-6.31,7.19c1.1,1.87,2.07,3.53,3.02,5.16,1.8-1.06,3.46-2.03,5.09-2.98-1.05-1.8-2.02-3.46-3.02-5.16-1.75,1.02-3.36,1.97-5.09,2.98Z"/>
      <path class="cls-3" d="m379.79,42.13c3.54-2.07,6.96-4.07,10.52-6.15,2.04,3.49,4.04,6.91,6.13,10.48-3.48,2.04-6.94,4.06-10.52,6.15-2-3.43-4-6.85-6.13-10.48Zm9.39-1.89c-1.82,1.06-3.43,2.01-5.1,2.98,1.05,1.79,2.04,3.49,3.04,5.19,1.78-1.04,3.39-1.98,5.1-2.98l-3.04-5.19Z"/>
      <path class="cls-3" d="m370.26,69.09c-.54-.92-.95-1.63-1.44-2.46,9.78-5.72,19.48-11.4,29.34-17.17.46.79.92,1.58,1.44,2.46-9.78,5.72-19.49,11.4-29.34,17.17Z"/>
      <path class="cls-3" d="m417.51,45.34l1.43,2.45c-.85.5-1.65.96-2.55,1.49-.47-.8-.91-1.56-1.43-2.45.83-.48,1.63-.95,2.55-1.49Z"/>
      <path class="cls-3" d="m384.61,87.55c-1.18-2.3-.28-5.09,2.02-6.26,2.28-1.16,5.17-.24,6.29,2.01,1.13,2.27.19,5.19-2.03,6.3-2.3,1.15-5.11.23-6.28-2.05Zm6.02-3.1c-1.19-.17-2.14-.58-2.47-.29-.47.42-.49,1.35-.7,2.06.67.17,1.47.63,1.98.42.48-.2.65-1.12,1.19-2.18Z"/>
      <path class="cls-3" d="m419.62,67.28c-1.28-2.25-.5-5.06,1.76-6.33,2.23-1.26,5.11-.46,6.35,1.76,1.24,2.21.42,5.15-1.77,6.37-2.23,1.25-5.07.44-6.34-1.8Zm5.81-3.46c-1.21-.04-2.11-.34-2.5-.02-.44.35-.42,1.28-.59,1.95.73.15,1.55.57,2.15.36.41-.15.52-1.17.95-2.29Z"/>
    </g>
    <path class="cls-10" d="m-550,466.72c45.72-14.02,122.26-7.21,180.92-23.56,58.67-16.36,184.89-7.01,248.89,0s149.33,16.36,270.22,2.34c120.89-14.02,215.11-7.01,307.56-7.01s225.78,2.34,325.33-11.68c99.56-14.02,204.44,9.35,254.22,9.35s74.67,2.53,138.67,8.27c64,5.74,83.56,1.07,126.22,10.42,42.67,9.35-418.02,21.8-402.03,21.03v-98.13h92.7l-426.67-11.68-234.68,11.99-282.65-21.34-234.67,9.35s-355.15,14.02-364.03,14.02v86.65Z"/>
    <g>
      <path class="cls-3" d="m807.11,233.22c.21-.66.38-1.18.55-1.7,1.92-5.98,3.78-11.98,5.8-17.92.78-2.29,1.03-4.52.87-6.92-.11-1.65.18-3.37.58-4.99.55-2.24,1.4-4.4,2.07-6.61.35-1.16.91-1.65,2.22-1.29.52.15,1.36-.12,1.78-.51,2.67-2.43,5.24-4.98,7.89-7.43.55-.51,1.32-.77,1.99-1.14.34.68.85,1.32,1,2.04.74,3.54,1.39,7.09,2.04,10.65.14.8.32,1.42,1.27,1.6,1.13.21,1.43.95,1.05,2.03-.41,1.17-.77,2.37-1.18,3.64,1.45.47,2.76.89,4.16,1.34.66-2.05,1.3-4.04,2.01-6.27-.61-.2-1.22-.35-1.8-.59-1.18-.47-1.34-1.31-.38-2.15.79-.69,1.66-1.3,2.49-1.95,4.57-3.53,9.13-7.07,13.71-10.59,1.59-1.23,2.17-1.04,2.75.87,1.87,6.2,3.74,12.4,5.55,18.62.22.74.04,1.59.04,2.4-.76-.05-1.52-.1-2.28-.16-.24-.02-.48-.1-.82-.17-.66,2.06-1.31,4.08-1.99,6.19,1.35.43,2.62.84,4.14,1.33.39-1.21.81-2.42,1.17-3.65.32-1.09.98-1.53,2.03-1.04.87.4,1.38.01,1.96-.55,2.71-2.61,5.43-5.22,8.19-7.77.43-.4,1.22-.84,1.64-.7.43.15.78.97.9,1.55.75,3.69,1.46,7.39,2.12,11.09.15.83.43,1.37,1.32,1.56,1.18.25,1.32,1.04.99,2.07-.92,2.82-1.78,5.65-2.75,8.45-.25.73-.74,1.44-1.28,2-2.11,2.18-3.36,4.76-4.22,7.67-1.69,5.73-3.62,11.39-5.45,17.08-.17.52-.33,1.04-.51,1.6.23.16.37.31.55.37q2.53.98,1.68,3.63c-.46,1.43-.94,2.86-1.38,4.3-.3.96-.9,1.27-1.85.94-.33-.11-.67-.21-1.01-.32-21.04-6.76-42.08-13.53-63.12-20.29-2.38-.77-2.4-.79-1.63-3.17.43-1.34.86-2.68,1.29-4.02.63-1.94.75-1.99,2.67-1.42.33.1.67.17,1.21.3Zm22.11-17.41c-.36,1.12-.67,2.09-1.02,3.17,1.01.33,1.97.5,2.79.95.44.24.64.94.95,1.43-.53.23-1.1.7-1.59.64-.96-.13-1.89-.55-2.82-.85-1.85,5.75-3.63,11.31-5.43,16.9,2.45.79,4.77,1.53,7.27,2.34.19-.59.35-1.1.52-1.61.94-2.92,1.83-5.85,2.83-8.75,1.71-4.97,6.65-7.51,11.4-5.92,4.68,1.56,7.11,6.49,5.6,11.45-.89,2.93-1.87,5.83-2.8,8.75-.16.51-.28,1.03-.42,1.59,2.47.79,4.79,1.54,7.18,2.31.45-1.42.89-2.75,1.34-4.18-.7-.22-1.35-.29-1.81-.63-.41-.3-.6-.89-.89-1.35.53-.24,1.05-.65,1.58-.67.6-.01,1.21.34,1.84.54,1.73-5.4,3.4-10.59,5.12-15.94-2.32-.75-4.54-1.49-6.79-2.17-1.17-.35-1.52-1-1.09-2.14.31-.82.55-1.68.83-2.56-1.14-.37-2.07-.67-3.17-1.02-.31.97-.6,1.87-.89,2.76-.3.94-.88,1.28-1.85.96-1.91-.63-3.82-1.24-5.74-1.84-.96-.3-1.26-.91-.95-1.85.29-.9.58-1.79.88-2.75-1.13-.36-2.1-.67-3.17-1.02-.26.82-.49,1.53-.72,2.24-.57,1.73-.78,1.85-2.49,1.3-2.14-.68-4.28-1.37-6.49-2.08Zm-25.16,23.41c21.26,6.83,42.41,13.63,63.51,20.42.46-1.43.88-2.73,1.3-4.04-21.23-6.82-42.34-13.61-63.51-20.42-.44,1.37-.85,2.65-1.3,4.04Zm47.27-23.32c1.39.45,2.57.86,3.76,1.2,1.12.32,1.41.98,1.02,2.05-.31.83-.55,1.69-.84,2.58l5.48,1.76c.23-2.63.46-5.17.69-7.83-1.24-.4-2.66-.91-4.11-1.3-1.37-.37-1.75-1.07-1.26-2.44.77-2.16,1.42-4.36,2.15-6.61-5.02-1.61-9.86-3.17-14.87-4.78-.74,2.31-1.5,4.53-2.16,6.77-.37,1.26-1.06,1.56-2.26,1.13-1.49-.53-3.02-.98-4.21-1.37-1.44,2.42-2.74,4.6-4.05,6.79,1.75.56,3.54,1.14,5.5,1.77.28-.88.58-1.67.79-2.48.32-1.25,1-1.62,2.22-1.16,1.15.43,2.34.77,3.61,1.17.47-1.45.83-2.7,1.27-3.93.9-2.51,3.42-3.92,5.7-3.22,2.44.75,3.62,3.24,2.82,5.97-.37,1.25-.79,2.48-1.26,3.92Zm22.25,14.29c-3.54-1.14-6.99-2.25-10.42-3.35-2.39,7.43-4.75,14.76-7.11,22.11,3.52,1.13,6.94,2.23,10.42,3.35,2.37-7.38,4.72-14.67,7.11-22.11Zm-53.89,7.08c2.39-7.44,4.76-14.8,7.11-22.12-3.54-1.14-6.95-2.24-10.38-3.34-2.39,7.43-4.74,14.75-7.11,22.12,3.52,1.13,6.93,2.23,10.38,3.34Zm22.27-39.72c6.51,2.09,12.73,4.09,19.17,6.16-1.72-5.74-3.38-11.27-5.11-17.02-4.75,3.67-9.32,7.2-14.06,10.86Zm-22.82-1.3c-.8,2.48-1.56,4.87-2.33,7.26,4.92,1.58,9.72,3.13,14.58,4.69.79-2.47,1.56-4.86,2.33-7.26l-4.09-1.31c-.31.98-.6,1.87-.89,2.77-.3.92-.89,1.28-1.85.95-1.14-.38-2.28-.77-3.44-1.1-1.11-.31-1.46-.95-1.08-2.02.3-.88.57-1.77.86-2.66-1.51-.48-2.77-.89-4.09-1.31Zm44.32,22.24c4.95,1.59,9.79,3.15,14.67,4.72.79-2.45,1.55-4.81,2.32-7.23-1.39-.45-2.7-.87-4.12-1.33-.3.95-.59,1.8-.85,2.65-.33,1.1-.99,1.4-2.06,1.01-1.08-.4-2.18-.75-3.29-1.06-1.12-.32-1.41-1-1.04-2.05.29-.84.55-1.69.84-2.61l-4.14-1.33c-.78,2.42-1.53,4.75-2.33,7.24Zm-21.38,7.54c-4.1-.44-7.21,2.29-7.61,6.68.54.17,1.2.23,1.65.57.43.33.64.96.94,1.45-.54.22-1.08.6-1.63.61-.56.02-1.13-.32-1.78-.53-.69,2.15-1.34,4.17-2.02,6.28,1.71.55,3.35,1.08,5.08,1.63,1.8-5.58,3.57-11.1,5.37-16.7Zm2.35.75c-1.8,5.6-3.57,11.12-5.37,16.71,1.72.55,3.37,1.08,5.09,1.64.67-2.09,1.32-4.12,1.99-6.2-.49-.18-.9-.35-1.32-.49-.79-.27-1.67-.57-1.36-1.61.31-1.04,1.19-.85,2-.58.46.15.93.25,1.38.36,1.97-4.32,1.14-7.75-2.42-9.82Zm-14.6-38.77c-2.5,2.38-4.8,4.58-7.26,6.92.74.24,1.2.43,1.69.53,1.4.31,1.8,1.09,1.26,2.42-.31.76-.52,1.57-.77,2.35l1.99.64c.46-1.18.6-2.69,1.41-3.28.76-.55,2.23-.14,3.48-.15-.56-2.97-1.15-6.06-1.79-9.43Zm48.51,24.48c-.57-2.98-1.16-6.11-1.8-9.45-2.46,2.34-4.76,4.53-7.26,6.91.71.23,1.17.37,1.62.52,1.68.56,1.82.83,1.3,2.51-.23.75-.48,1.49-.72,2.25l2,.64c.47-1.22.62-2.72,1.43-3.33.71-.54,2.17-.08,3.43-.05Zm-30.55,6.86c.96-2.99,1.96-5.87,2.79-8.8.31-1.09-.34-1.96-1.43-2.33-1.09-.38-2.17-.08-2.55.96-1.06,2.9-1.93,5.87-2.89,8.86,1.43.46,2.69.87,4.08,1.31Zm-31.3-13.39c.07,1,.02,1.82.22,2.57.12.46.56,1.05.99,1.2,3.12,1.08,6.27,2.07,9.43,3.05.36.11.96.08,1.19-.15.66-.64,1.2-1.42,1.87-2.26-4.62-1.48-9.03-2.9-13.7-4.4Zm46.72,15.02c.07,1.06.04,1.92.22,2.73.08.39.48.88.85,1,3.22,1.09,6.47,2.13,9.72,3.13.31.1.84.02,1.05-.2.65-.66,1.2-1.43,1.88-2.26-4.6-1.48-9.02-2.9-13.71-4.41Z"/>
      <path class="cls-3" d="m861.81,237.81c.31-.96.58-1.92.93-2.86.71-1.94,2.49-2.87,4.29-2.28,1.76.58,2.67,2.29,2.12,4.23-.58,2.03-1.27,4.02-1.92,6.02-.3.94-.93,1.24-1.87.93-1.19-.4-2.39-.77-3.58-1.15-.96-.31-1.23-.95-.93-1.88.32-1,.64-2.01.97-3.01Zm3.52,3.58c.58-1.81,1.2-3.54,1.66-5.31.09-.34-.36-1.02-.74-1.22-.25-.13-1.06.23-1.18.54-.66,1.75-1.19,3.55-1.77,5.35l2.03.65Z"/>
      <path class="cls-3" d="m821.47,225c-.29.91-.6,1.81-.87,2.72-.32,1.07-.96,1.46-2.05,1.08-1.14-.39-2.29-.75-3.44-1.11-.95-.29-1.28-.9-.97-1.85.66-2.05,1.27-4.13,2.01-6.15.66-1.79,2.41-2.6,4.13-2.06,1.7.54,2.67,2.23,2.22,4.06-.27,1.12-.69,2.2-1.04,3.3,0,0,.01,0,.02,0Zm-2.85,1.37c.59-1.83,1.19-3.48,1.61-5.16.1-.4-.42-.95-.65-1.44-.44.23-1.15.37-1.29.72-.66,1.7-1.16,3.46-1.73,5.22l2.06.66Z"/>
      <path class="cls-3" d="m852.19,198.58c-.67-.21-1.41-.31-1.98-.68-.41-.26-.58-.89-.85-1.35.48-.24,1.02-.77,1.43-.68,1.41.31,2.81.76,4.13,1.33.38.16.51.91.75,1.39-.5.21-1,.61-1.48.59-.68-.03-1.34-.38-2-.6Z"/>
      <path class="cls-3" d="m853.17,194.25s-.56-.08-.84-.38c-.29-.31-.56-.91-.44-1.25.12-.34.74-.72,1.12-.71.68.03,1.43.23,1.99.59.45.29.67.93,1,1.41-.57.23-1.13.5-1.72.67-.2.06-.47-.13-1.1-.33Z"/>
      <path class="cls-14" d="m865.33,241.39l-2.03-.65c.58-1.8,1.11-3.6,1.77-5.35.12-.31.93-.67,1.18-.54.37.2.83.88.74,1.22-.46,1.77-1.07,3.5-1.66,5.31Z"/>
      <path class="cls-14" d="m818.62,226.37l-2.06-.66c.57-1.76,1.07-3.52,1.73-5.22.14-.35.84-.48,1.29-.72.23.48.75,1.04.65,1.44-.42,1.69-1.02,3.33-1.61,5.16Z"/>
    </g>
    <path class="cls-3" d="m196.52,169.54c6.78-7.35,15.16-10.88,24.82-11.65.58-.05,1.17-.07,1.76-.05,1.39.06,2.27.9,2.3,2.15.03,1.21-.86,2.06-2.27,2.21-1.85.19-3.72.27-5.54.63-8.04,1.58-14.8,5.26-19.71,12.03-.46.64-1.55,1.2-2.29,1.13-.66-.05-1.53-.91-1.8-1.61-3.64-9.47-10.7-15.22-19.98-18.61-.37-.13-.75-.23-1.11-.38-1.31-.53-1.91-1.64-1.55-2.77.39-1.2,1.6-1.88,2.98-1.29,3.37,1.43,6.82,2.77,9.95,4.64,5.19,3.09,9.18,7.46,11.99,12.84.11.21.24.41.44.75Z"/>
    <path class="cls-3" d="m223.79,185.06c3.82-1.17,7.46-1.08,11.07.12,1.7.56,2.47,1.77,2.01,3.13-.45,1.32-1.71,1.87-3.34,1.33-3.65-1.2-7.14-1.06-10.52.96-1.79,1.06-3.6.02-3.58-2.06.04-3.94-1.62-7.01-4.49-9.55-1.29-1.14-1.49-2.49-.57-3.54.92-1.05,2.32-1.08,3.6.03,2.91,2.53,4.91,5.63,5.82,9.59Z"/>
    <path class="cls-3" d="m162.99,172.43c2.19-1.93,4.58-3.08,7.3-3.53,1.71-.28,2.82.35,3.06,1.7.23,1.34-.58,2.25-2.34,2.57-2.62.48-4.74,1.67-6.23,3.97-1.18,1.82-3.03,1.73-4.03-.18-1.28-2.42-3.32-3.77-5.87-4.5-1.66-.48-2.42-1.53-2.06-2.81.36-1.28,1.57-1.81,3.23-1.38,2.66.69,4.95,2.04,6.94,4.15Z"/>
    <path class="cls-3" d="m85.12,235.19c-2.04-.24-4.02-.55-6.03-.69-1.33-.09-2.3-.54-3.05-1.69-.77-1.18-1.72-2.24-2.61-3.34-.49-.61-.47-1.12.17-1.61,1.45-1.12,2.86-2.3,4.34-3.38.34-.25.9-.34,1.33-.3,2.33.23,4.65.53,7.05.81l.3-2.55c-.58-.07-1.15-.11-1.7-.21-1.39-.24-2.28-1.35-2.15-2.76.16-1.71.37-3.41.6-5.11.2-1.51,1.3-2.39,2.83-2.3.53.03,1.06.12,1.64.19.29-1.32.13-2.72,1.42-3.54.81-.51,1.67-.42,2.53-.28,1.8.29,2.19,1.09,2.15,4.49.3.05.61.11.93.15,2.03.24,4.07.45,6.09.75.48.07,1.03.36,1.35.72,1.13,1.32,2.19,2.72,3.26,4.09.6.77.56,1.13-.2,1.73-1.36,1.09-2.72,2.19-4.12,3.22-.37.27-.93.43-1.39.39-2.04-.18-4.06-.45-6.09-.69-.32-.04-.65-.08-1.04-.12l-.3,2.54c.53.06,1.03.1,1.53.18,1.61.26,2.47,1.37,2.3,2.99-.17,1.61-.36,3.23-.57,4.84-.21,1.62-1.32,2.5-2.94,2.35-.5-.04-1-.12-1.54-.18l-.8,6.79c.97.11,1.9.15,2.8.36.51.12,1.05.42,1.4.79.74.79,1.36,1.68,2.03,2.53.52.65.67,1.35.24,2.09-.41.71-1.07.9-1.86.81-5.58-.67-11.17-1.33-16.75-1.98-.79-.09-1.37-.46-1.6-1.24-.22-.78.05-1.42.68-1.91.05-.04.1-.07.14-.11,1.9-1.79,3.91-3.25,6.79-1.89l.82-6.96Zm-10.01-6.35c.98,1.23,1.88,2.39,2.82,3.52.17.2.5.32.78.35,4.68.57,9.37,1.11,14.05,1.68.78.09,1.2-.21,1.29-1,.17-1.49.34-2.99.53-4.47.11-.82-.21-1.23-1.05-1.33-4.69-.54-9.37-1.11-14.05-1.64-.31-.04-.71.08-.97.27-1.11.81-2.19,1.68-3.4,2.62Zm28.87-9.48c-.96-1.21-1.81-2.31-2.7-3.36-.21-.24-.57-.45-.88-.49-4.68-.58-9.37-1.12-14.05-1.68-.84-.1-1.24.22-1.32,1.05-.15,1.46-.35,2.92-.51,4.39-.1.95.13,1.25,1.1,1.36,4.65.56,9.31,1.11,13.96,1.64.27.03.63,0,.84-.16,1.18-.87,2.33-1.78,3.57-2.74Zm-8.54,28.21c-.72-.89-1.25-1.62-1.86-2.28-.26-.28-.67-.52-1.03-.57-3.58-.46-7.16-.87-10.75-1.28-.26-.03-.59-.07-.78.06-.89.58-1.74,1.22-2.6,1.84.05.08.11.16.16.24,5.53.65,11.06,1.31,16.85,1.99Zm-6.85-5.13l.79-6.68c-.84-.1-1.63-.19-2.42-.29-.27,2.26-.53,4.45-.79,6.68.82.1,1.58.19,2.42.29Zm-.12-19.71l-.29,2.42,2.4.28.29-2.42c-.83-.1-1.6-.19-2.4-.28Zm3.73-9.99c-.12-.9.63-1.82-.28-2.41-.42-.27-1.44-.35-1.64-.09-.44.57-.53,1.4-.77,2.19l2.69.32Z"/>
    <path class="cls-3" d="m733.36,207.58c-1.95-.65-3.83-1.35-5.76-1.89-1.29-.36-2.14-.99-2.64-2.27-.52-1.31-1.23-2.54-1.88-3.8-.36-.7-.23-1.19.49-1.54,1.65-.81,3.27-1.67,4.93-2.44.38-.18.95-.15,1.36-.02,2.23.7,4.45,1.46,6.74,2.22.27-.82.52-1.57.81-2.43-.56-.18-1.1-.34-1.62-.54-1.32-.51-1.96-1.78-1.55-3.14.5-1.64,1.05-3.26,1.62-4.88.5-1.44,1.76-2.08,3.23-1.68.51.14,1.01.33,1.57.52.55-1.23.68-2.64,2.1-3.18.9-.34,1.72-.07,2.54.24,1.7.64,1.92,1.51,1.2,4.83.28.11.58.23.88.33,1.94.65,3.89,1.26,5.81,1.96.46.17.94.56,1.17.98.85,1.52,1.6,3.1,2.37,4.66.43.87.32,1.22-.54,1.65-1.55.79-3.1,1.6-4.69,2.32-.41.19-1,.24-1.44.1-1.96-.59-3.89-1.26-5.83-1.91-.31-.1-.62-.2-.99-.33l-.81,2.43c.51.17.99.31,1.46.49,1.52.58,2.15,1.84,1.65,3.39-.49,1.55-1,3.09-1.54,4.62-.53,1.54-1.8,2.18-3.35,1.71-.48-.14-.95-.31-1.47-.49-.73,2.2-1.43,4.3-2.15,6.49.93.31,1.83.53,2.67.92.47.22.94.62,1.21,1.06.56.92.99,1.92,1.48,2.89.38.74.38,1.46-.19,2.09-.55.61-1.23.67-1.98.42-5.34-1.78-10.67-3.55-16.01-5.32-.76-.25-1.25-.73-1.32-1.54-.06-.81.33-1.38,1.05-1.73.05-.03.11-.05.16-.08,2.23-1.37,4.49-2.4,7.03-.48.77-2.33,1.48-4.44,2.21-6.65Zm-8.53-8.24c.71,1.41,1.36,2.72,2.05,4.02.12.23.43.41.69.5,4.47,1.5,8.95,2.98,13.42,4.47.74.25,1.22.04,1.46-.72.46-1.43.93-2.86,1.42-4.28.27-.78.04-1.25-.76-1.51-4.48-1.47-8.95-2.97-13.44-4.44-.3-.1-.72-.06-1.01.07-1.26.57-2.48,1.21-3.85,1.88Zm30.19-3.46c-.7-1.38-1.31-2.62-1.97-3.83-.15-.28-.47-.56-.76-.66-4.47-1.51-8.95-2.98-13.42-4.48-.8-.27-1.26-.03-1.51.76-.45,1.4-.93,2.79-1.38,4.19-.29.91-.13,1.25.8,1.55,4.45,1.48,8.89,2.96,13.35,4.42.26.09.62.12.85.01,1.33-.61,2.64-1.28,4.05-1.97Zm-14.05,25.91c-.52-1.02-.9-1.84-1.36-2.61-.2-.32-.55-.65-.9-.77-3.41-1.17-6.84-2.3-10.27-3.42-.25-.08-.56-.18-.77-.1-.99.39-1.95.85-2.92,1.28.04.09.07.18.11.27,5.29,1.76,10.57,3.51,16.11,5.35Zm-5.67-6.4c.72-2.18,1.42-4.27,2.12-6.38-.8-.27-1.55-.52-2.31-.77-.72,2.16-1.41,4.25-2.12,6.38.78.26,1.51.5,2.31.77Zm3.86-19.33l-.77,2.31,2.29.76c.27-.81.52-1.56.77-2.31l-2.29-.76Zm5.67-9.03c.07-.9.98-1.66.21-2.42-.36-.35-1.34-.63-1.58-.42-.54.47-.8,1.27-1.2,1.99.96.32,1.69.56,2.57.85Z"/>
    <path class="cls-8" d="m659.97,34.25c-12.89,0-23.33,10.45-23.33,23.33s10.45,23.33,23.33,23.33,23.33-10.45,23.33-23.33-10.45-23.33-23.33-23.33Zm34.48-23.43c-15.73,0-28.48,12.75-28.48,28.48s12.75,28.48,28.48,28.48,28.48-12.75,28.48-28.48-12.75-28.48-28.48-28.48Zm48.19,85.31c23.2,0,42-18.8,42-42s-18.8-42-42-42-42,18.8-42,42,18.8,42,42,42Zm80.95-51.89c0-21.51-17.44-38.95-38.95-38.95s-38.95,17.44-38.95,38.95,17.44,38.95,38.95,38.95,38.95-17.44,38.95-38.95Zm8.07-36.95c-15.73,0-28.48,12.75-28.48,28.48s12.75,28.48,28.48,28.48,28.48-12.75,28.48-28.48-12.75-28.48-28.48-28.48Zm-131.02,31.59c-15.73,0-28.48,12.75-28.48,28.48s12.75,28.48,28.48,28.48,28.48-12.75,28.48-28.48-12.75-28.48-28.48-28.48Z"/>
    <path class="cls-1" d="m0,492.78l.32,204.44s25.87-37.33,91.86-46.22,131.98-23.11,194.4,0,199.75,67.56,276.43,72.89c76.69,5.33,169.43,8.89,199.75-12.44,30.32-21.33,80.26-39.11,99.87-42.67s40.24-3.56,40.24-3.56l-2.79-183.11s-197.96-24.89-230.06-10.67c-32.1,14.22-172.99,10.67-263.95,12.44s-198.1-6.62-230.06-8.89c-31.97-2.27-93.75-11.41-103.39-4.08-9.64,7.32-72.61,21.86-72.61,21.86Z"/>
    <path class="cls-8" d="m146.53,52.44c-10.58,0-19.16,8.58-19.16,19.16s8.58,19.16,19.16,19.16,19.16-8.58,19.16-19.16-8.58-19.16-19.16-19.16Zm28.31-19.24c-12.92,0-23.39,10.47-23.39,23.39s10.47,23.39,23.39,23.39,23.39-10.47,23.39-23.39-10.47-23.39-23.39-23.39Zm39.57,70.06c19.05,0,34.49-15.44,34.49-34.49s-15.44-34.49-34.49-34.49-34.49,15.44-34.49,34.49,15.44,34.49,34.49,34.49Zm66.48-42.61c0-17.67-14.32-31.99-31.99-31.99s-31.99,14.32-31.99,31.99,14.32,31.99,31.99,31.99,31.99-14.32,31.99-31.99Zm6.63-30.34c-12.92,0-23.39,10.47-23.39,23.39s10.47,23.39,23.39,23.39,23.39-10.47,23.39-23.39-10.47-23.39-23.39-23.39Zm-107.6,25.94c-12.92,0-23.39,10.47-23.39,23.39s10.47,23.39,23.39,23.39,23.39-10.47,23.39-23.39-10.47-23.39-23.39-23.39Z"/>
    <path class="cls-10" d="m-354.76,745.46c45.72-14.02,122.26-7.21,180.92-23.56,58.67-16.36,184.89-7.01,248.89,0s149.33,16.36,270.22,2.34c120.89-14.02,215.11-7.01,307.56-7.01s225.78,2.34,325.33-11.68c99.56-14.02,204.44,9.35,254.22,9.35s74.67,2.53,138.67,8.27c64,5.74,83.56,1.07,126.22,10.42,42.67,9.35-418.02,21.8-402.03,21.03v-98.13h92.7l-426.67-11.68-234.68,11.99-282.65-21.34-234.67,9.35s-355.15,14.02-364.03,14.02v86.65Z"/>
    <path class="cls-10" d="m.32,650.96c33.76,29.12,90.29,14.97,133.61,48.95,43.33,33.98,136.54,14.56,183.81,0,47.26-14.56,110.28-33.98,199.56-4.85,89.28,29.12,158.86,14.56,227.13,14.56s166.74-4.85,240.26,24.27c73.52,29.12,150.98-19.42,187.74-19.42s55.14-5.26,102.41-17.19c47.26-11.93,61.71-2.23,93.22-21.64,31.51-19.42-308.71-45.28-296.9-43.69v203.86h68.46c-155.02,60.07-265.54,53.63-339.28,35.18-57.87-14.48-123.21-43.88-217.33-33.33-57.33,6.43-102.86,25.15-132.59,40.15-2.05.43-4.76.88-7.98,1.04,0,0-4.01.2-8.04-.25-44.09-4.89-91.39-40.93-91.39-40.93-23.57-17.96-70.66-29.22-174.67,4-18.49,5.7-28.32,21.25-65.78,18.67-36.2-2.49-84.86-26.77-102.24-34.67v-174.71Z"/>
    <polygon class="cls-11" points="32.49 823.2 23.28 823.62 17.2 825.6 11.68 825.82 5.99 826.4 5.17 829.02 55.23 846.06 61.24 845.46 54.92 839.3 45.9 828.27 36.26 823.03 32.49 823.2"/>
    <g>
      <g>
        <path class="cls-3" d="m849.38,831.9c.94,1.15,1.69,1.97,2.31,2.87,2.11,3.07,2.58,6.36,1.1,9.83-.21.5-.8.83-1.22,1.25-.34-.46-.87-.87-1-1.39-.48-1.89-1.35-3.41-3.12-4.42-1.47-.85-2.81-1.92-4.15-2.86-1.33.13-2.79.53-4.15.33-1.82-.26-3.38-.28-4.83,1.03-1.01.91-1.93.35-1.68-.79.36-1.68.84-3.66,1.98-4.77,1.73-1.68,4.12-2.67,6.15-4.07.71-.49,1.54-1.24,1.69-2,1.02-4.99,3.03-9.58,6.39-13.31,3.4-3.77,7.21-7.21,11.08-10.53,3.94-3.38,4.57-8.4,1.22-12.24-.45-.52-.66-1.25-.98-1.89.71-.31,1.41-.84,2.13-.88,4.71-.27,8.48,1.67,11.38,5.27,2.6,3.23,5.83,4.65,9.98,4.34,2.75-.21,5.56-.37,8.28-.03,4.71.58,9.46,1.24,14.01,2.49,4.31,1.19,7.82,3.8,9.36,8.37.14.42.71.75,1.14,1.03,2.09,1.33,2.33,3.85.34,5.34-1.03.76-2.28,1.35-3.52,1.66-2.34.59-4.73.97-7.12,1.34-1.11.17-1.46.72-1.86,1.75-.73,1.88-1.78,3.67-2.95,5.31-.36.5-1.75.78-2.31.49-.55-.29-.8-1.42-.89-2.22-.12-1.1.03-2.23.08-3.53-1.06.26-1.71.47-2.38.56-1.99.29-3.19,1.08-3.75,3.33-.89,3.6-3.44,6.11-6.85,7.57-.76.33-2.16.4-2.6-.06-.55-.56-.65-1.83-.51-2.73.29-1.88.86-3.73,1.43-6.06-12.56.47-23.7,3.61-34.17,9.64Zm32.46-15.24c-.14-.48.12-1.07.2-1.61.48.27,1.18.42,1.42.83,1.78,3.08,2.01,6.41,1.28,9.83-.25,1.2-.62,2.38-1.05,4.04,2.46-1,4.19-2.3,5.46-4.22,2.24-3.38,2.41-7.12,1.79-10.97-.13-.82-.47-1.61-.52-2.43-.03-.51.29-1.05.46-1.58.43.34.97.62,1.26,1.05.29.43.33,1.02.38,1.18,6.99-1.35,13.85-2.68,20.83-4.03-.43-2.13-1.98-3.65-3.82-4.89-4.64-3.13-9.97-3.97-15.38-4.3-3.44-.21-6.91-.19-10.35-.02-4.7.24-8.5-1.28-11.45-5-2.29-2.89-5.26-4.58-8.91-4.69.62,1.98,1.55,3.87,1.74,5.83.36,3.61-1.17,6.57-4.09,8.79-1.86,1.41-3.66,2.89-5.49,4.35.05.2.1.4.15.59,1.25-.06,2.5-.08,3.75-.17,1.79-.13,3.58-.39,5.37-.43,2.69-.07,4.75,1.54,5.36,4,.61,2.47-.42,5-2.94,5.94-2.29.86-4.78,1.49-7.21,1.61-4.33.21-8.67-.05-13.48-.12-.67,2.13-1.6,4.51-2.14,6.96-.38,1.75-1.12,2.79-2.81,3.44-2.58.99-5.06,2.22-6.56,4.72,1.69.15,3.33.3,4.96.43.34.03.79.07,1.01-.11,2.45-2.08,3.62-.61,5.23,1.36,1.36,1.66,3.56,2.62,5.44,3.92.28-2.38-.84-4.42-2.43-6.28-2.43-2.84-2.35-3.61.99-5.44,9.48-5.19,19.68-7.93,30.43-8.75.62-.05,1.24-.07,1.86-.13.12-.01.24-.12.57-.29-.43-1.11-.95-2.23-1.28-3.4Zm-16.4.92c2.37-.78,3.31-2.22,2.95-4.09-.38-1.99-1.79-2.84-4.39-2.73-3.24.15-6.48.25-9.71.43-.5.03-1.15.19-1.44.54-1.69,1.98-3.29,4.03-4.92,6.05.12.26.23.51.35.77,5.72-.43,11.52.89,17.18-.98Zm46.78-2.68c1.18-.25,2.33-.84,3.37-1.48.38-.23.62-1.08.52-1.56-.07-.33-.84-.77-1.27-.75-7.11.39-14.16,1.23-20.86,3.84-1.32.52-1.33.83-.79,3.75,6.35-1.26,12.7-2.48,19.03-3.81Zm-9.17,3.62c-1.4.32-2.16.49-2.95.67,0,1.45,0,2.79-.01,4.13.18.06.36.12.55.18.71-1.48,1.43-2.96,2.41-4.98Z"/>
        <path class="cls-3" d="m878.99,807.26c-1.26-.74-.75-2.63.81-3.3,4.1-1.76,8.09-1.56,11.77,1.12,1.85,1.34,1.7,3.11-.35,3.96-1.51.63-3.14.99-4.72,1.47-3.13.25-5.2-1.91-7.51-3.26Zm11.71-.26c-2.65-2.58-6.68-3.03-10.2-1.13,4.13,3.14,6.56,3.41,10.2,1.13Z"/>
      </g>
      <g>
        <path class="cls-3" d="m859.45,862.41c.76.55,1.35.92,1.87,1.37,1.79,1.52,2.6,3.46,2.26,5.8-.05.34-.35.64-.54.96-.28-.22-.67-.39-.83-.68-.6-1.08-1.38-1.85-2.62-2.19-1.03-.28-2.02-.71-2.99-1.07-.79.29-1.61.77-2.47.87-1.15.13-2.1.38-2.77,1.41-.47.72-1.12.52-1.15-.21-.05-1.08-.09-2.37.43-3.23.78-1.31,2.08-2.3,3.09-3.48.35-.41.74-1.01.71-1.49-.19-3.21.29-6.32,1.73-9.14,1.46-2.85,3.22-5.56,5.03-8.21,1.85-2.7,1.42-5.85-1.25-7.65-.36-.24-.61-.66-.9-.99.38-.3.72-.74,1.16-.88,2.82-.93,5.43-.36,7.78,1.36,2.1,1.54,4.3,1.89,6.78,1.02,1.64-.57,3.33-1.13,5.04-1.36,2.96-.41,5.96-.78,8.94-.76,2.81.02,5.38,1.04,7.06,3.58.16.24.55.34.86.44,1.49.47,2.05,1.97,1.07,3.19-.5.63-1.17,1.19-1.88,1.58-1.33.74-2.72,1.36-4.12,1.97-.65.28-.77.67-.85,1.37-.14,1.26-.49,2.52-.93,3.71-.14.37-.94.76-1.33.67-.38-.09-.72-.74-.9-1.21-.25-.65-.34-1.36-.53-2.16-.6.33-.97.56-1.36.73-1.16.5-1.77,1.17-1.74,2.63.04,2.34-1.11,4.28-2.94,5.72-.41.32-1.25.59-1.59.39-.43-.25-.69-1.01-.76-1.58-.13-1.19-.08-2.41-.11-3.92-7.57,2.33-13.85,6.04-19.24,11.42Zm17.29-14.55c-.16-.27-.1-.67-.14-1.01.34.09.79.07,1,.28,1.58,1.59,2.26,3.58,2.38,5.78.04.77.01,1.55.01,2.63,1.34-1.01,2.18-2.08,2.64-3.45.82-2.42.31-4.73-.69-6.97-.21-.48-.55-.9-.71-1.39-.1-.31,0-.69.02-1.03.32.14.69.22.94.44.25.21.37.57.42.66,4.03-1.96,8-3.88,12.03-5.84-.61-1.23-1.8-1.9-3.12-2.36-3.33-1.15-6.71-.8-10.06-.12-2.13.43-4.24,1-6.31,1.67-2.83.91-5.38.6-7.78-1.19-1.87-1.39-3.94-1.94-6.19-1.41.7,1.11,1.57,2.1,2.01,3.27.8,2.14.36,4.19-1.06,6.02-.9,1.16-1.76,2.36-2.64,3.54.06.11.12.22.19.34.75-.24,1.51-.46,2.25-.71,1.07-.37,2.12-.82,3.2-1.13,1.63-.48,3.14.16,3.91,1.57.77,1.41.56,3.11-.83,4.1-1.26.89-2.67,1.68-4.13,2.15-2.6.83-5.29,1.38-8.23,2.11-.06,1.41-.24,3-.17,4.59.05,1.13-.23,1.88-1.15,2.55-1.41,1.02-2.72,2.17-3.23,3.94,1.06-.18,2.08-.36,3.09-.55.21-.04.49-.09.6-.23,1.15-1.67,2.1-.96,3.4-.02,1.09.79,2.59,1.02,3.95,1.5-.22-1.5-1.23-2.56-2.5-3.43-1.94-1.33-2.02-1.82-.28-3.47,4.93-4.7,10.7-8.02,17.1-10.27.37-.13.74-.25,1.11-.38.07-.03.13-.11.3-.27-.44-.61-.94-1.21-1.33-1.87Zm-9.83,3.22c1.32-.86,1.65-1.89,1.13-2.97-.56-1.15-1.55-1.44-3.12-.95-1.95.61-3.9,1.21-5.84,1.84-.3.1-.67.3-.79.56-.71,1.48-1.35,2.99-2.01,4.49.11.14.22.27.34.41,3.42-1.19,7.16-1.33,10.3-3.38Zm28.05-9.23c.68-.34,1.28-.89,1.81-1.45.19-.2.2-.76.06-1.04-.09-.19-.64-.33-.9-.25-4.27,1.39-8.42,3.05-12.07,5.73-.72.53-.67.72.13,2.41,3.66-1.8,7.33-3.57,10.97-5.41Zm-5,3.69c-.8.42-1.23.65-1.68.89.23.88.45,1.7.66,2.52.12,0,.24.01.36.02.2-1.02.39-2.03.66-3.43Z"/>
        <path class="cls-3" d="m873.48,842.6c-.89-.24-.89-1.48-.04-2.14,2.21-1.74,4.67-2.26,7.35-1.23,1.34.52,1.54,1.62.43,2.47-.82.63-1.75,1.11-2.63,1.66-1.86.66-3.47-.32-5.1-.76Zm7.09-2.06c-2.03-1.14-4.56-.76-6.39.96,3.03,1.24,4.55,1.01,6.39-.96Z"/>
        <path class="cls-3" d="m886.12,838.3c.7.05,1.11.19,1.37.06.24-.13.33-.55.48-.85-.35-.06-.72-.22-1.03-.14-.24.06-.4.43-.82.93Z"/>
      </g>
    </g>
    <g>
      <path class="cls-3" d="m.32,829.4c6.05-5.57,12.67-8.56,20.9-7.1,1.76.31,3.67-.18,5.79-.32-.81-2.38-1.43-4.06-1.95-5.78-3.57-11.81-3.16-23.52.99-35.1.66-1.84.52-2.92-1.17-4.08-2.89-2-5.58-4.28-8.53-6.57.72-.96,1.35-1.8,2.08-2.78,8.32,6.46,16.48,12.79,24.92,19.35,2.52-3.78,5.01-7.5,7.75-11.61.77,2.14,1.41,3.9,2.11,5.84,3.25-1.68,5.93-3.07,8.62-4.45.19.2.38.39.57.59l-2.52,7.15c1.72-.09,2.99-.15,4.67-.23-2.84,4.33-5.49,8.37-8.33,12.69,1.93,1.51,3.86,3.02,5.99,4.69,3.79-5.18,7.46-10.21,11.25-15.39-3.38-2.39-6.62-4.68-10.12-7.15,1.93-2.94,3.8-5.79,5.83-8.88,3.59,2.48,7.03,4.85,11.1,7.66,1.83-4.49,3.53-8.63,5.32-13.01,1.81,1.24,3.58,2.45,5.52,3.77,1.42-1.92,2.8-3.79,4.33-5.85.93.68,1.77,1.29,2.75,2.01-1.4,2.02-2.69,3.87-4.1,5.9,1.81,1.36,3.59,2.71,5.4,4.07-3.47,3.23-8.35,4.48-10.84,8.97,3.33,2.36,6.57,4.66,10.04,7.11-1.93,2.95-3.79,5.79-5.81,8.87-3.58-2.46-7.03-4.83-10.65-7.32-3.62,4.96-7.11,9.73-10.95,14.99,2.26-.44,3.98-.75,5.68-1.13,2.08-.47,3.85.04,5.43,1.46,6.64,5.97,13.32,11.91,19.95,17.89,2.39,2.16,2.77,4.15,1.53,7.19-5.86,14.34-21.51,21.55-36.23,16.69-.95-.31-1.88-.66-3.1-1.09.09,1.36.17,2.4.25,3.68-21.51-7.59-42.83-15.11-64.45-22.73Zm76.33,18.05c.56.04.93.09,1.31.09,9.6-.22,18.93-6.78,22.5-15.67.7-1.73.47-2.86-.95-4.09-5.37-4.69-10.88-9.26-15.9-14.31-3.2-3.22-6.32-4.41-10.58-2.78-2.65,1.02-4.92.12-7.15-1.65-8.78-6.97-17.67-13.79-26.52-20.67-3.08-2.39-6.16-4.79-9.39-7.3-.35.81-.63,1.36-.83,1.94-4.15,11.87-3.92,23.69.37,35.48.57,1.57,1.29,2.07,3.04,1.98,9.21-.5,17.25,4.78,20.8,13.28.47,1.12,1.53,2.02,2.43,2.92,2.09,2.08,4.23,4.09,6.37,6.12.89.84,1.82,1.64,3.15,2.84.69-4.4-3.58-4.35-4.49-6.91.67-.87,1.3-1.88,2.11-2.71,1.18-1.2,1.07-2.15,0-3.39-1.36-1.56-2.5-3.3-4.03-5.35,2.72.24,4.92.25,7.03.68,2.31.48,3.64-.31,4.7-2.31.89-1.69,2.1-3.22,3.47-5.28,1.17,2.59,2.24,4.68,3.07,6.87.57,1.48,1.49,1.99,2.99,2.06,2.22.11,4.43.4,6.95.64-.84,1.28-1.33,2.28-2.06,3.08-2.64,2.89-3.19,5.87-.73,9.15.15.2.1.55.1.55-2.39,2.07-6.89.06-7.75,4.77Zm-69.03-19.28c17.67,6.23,34.95,12.33,52.52,18.52-1.33-3.46-3.54-5.68-6.48-7.18-1.68-.85-2.76-1.93-3.45-3.82-3.69-10.17-14.53-14.52-24.44-10.08-1.22.55-2.87.68-4.18.38-4.83-1.1-9.32-.52-13.97,2.17Zm57.89,10.19c.76.62,1.31,1.17,1.96,1.57,1.25.78,1.7,1.78,1.63,3.31-.17,3.58-.08,3.58,3.98,3.76.52-3.62,2.11-6.43,7.11-6.16-3.23-3.28-.91-5.42.81-8.19-4.22.68-6.48-1.18-7.46-5.08-1.12,1.61-1.69,3.12-2.79,3.8-.99.61-2.54.31-3.98.42.65,1.03,1.18,1.87,1.69,2.67-1,1.32-1.89,2.49-2.96,3.9Zm2.64-60.1c7.95,5.55,15.74,11,23.69,16.56.74-1.09,1.33-1.97,2.05-3.03-7.96-5.57-15.77-11.03-23.76-16.61-.7,1.09-1.27,1.98-1.98,3.08Zm8.18,10.06c-3.84,5.27-7.52,10.3-11.3,15.49.99.79,1.82,1.46,2.85,2.28,3.84-5.26,7.59-10.41,11.44-15.69-1.07-.75-1.89-1.32-2.99-2.09Zm-30.02.98c2.43,1.88,4.7,3.63,7.12,5.51,1.36-2.08,2.58-3.93,3.9-5.95-1.05-.11-1.72-.17-2.69-.27l1.68-4.75c-1.67.73-2.92,1.28-4.15,1.82-.61-1.08-1.08-1.93-1.67-2.98-1.32,1.98-2.45,3.67-3.56,5.37-.21.32-.34.69-.62,1.25Zm40.99-18.93c-1.98,4.26-2,4.38-.62,5.4,2.75,2.04,2.97,2.01,6.64-1.1-1.98-1.42-3.93-2.8-6.02-4.3Zm-4.36,9.2c2.47,2.33,2.57,2.35,3.58.52q-2.48-2.09-3.58-.52Z"/>
      <path class="cls-3" d="m104.52,788.67c-3.55-1.31-5.42-5.28-4.16-8.83,1.29-3.64,5.36-5.52,9.02-4.16,3.57,1.32,5.42,5.25,4.15,8.83-1.3,3.66-5.32,5.52-9,4.17Zm1.19-3.26c1.73.67,3.77-.26,4.44-2.01.67-1.75-.23-3.79-1.96-4.46-1.73-.67-3.76.26-4.43,2.02-.67,1.77.21,3.78,1.95,4.46Z"/>
      <path class="cls-3" d="m57.75,764.81c-3.66-1.23-5.65-5.33-4.35-8.94,1.28-3.55,5.23-5.45,8.81-4.23,3.69,1.26,5.64,5.28,4.34,8.93-1.27,3.56-5.2,5.46-8.8,4.25Zm5.49-5.53c.58-1.78-.42-3.79-2.19-4.36-1.77-.57-3.74.44-4.33,2.24-.59,1.8.38,3.75,2.18,4.33,1.79.58,3.74-.41,4.33-2.21Z"/>
      <path class="cls-3" d="m40.58,766.11c-2.75-.97-4.14-3.87-3.17-6.62.96-2.73,3.92-4.16,6.63-3.21,2.69.94,4.14,3.98,3.2,6.67-.95,2.71-3.93,4.13-6.66,3.17Zm1.04-2.62c1.03-.8,2-1.19,2.13-1.76.14-.59-.55-1.36-.88-2.06-.74.37-1.78.58-2.12,1.18-.25.43.42,1.39.87,2.65Z"/>
      <path class="cls-3" d="m101.71,802.51c2.7,1,4.09,4.01,3.1,6.7-1,2.68-4.01,4.06-6.71,3.07-2.72-1-4.07-3.95-3.06-6.69,1-2.73,3.95-4.09,6.68-3.08Zm.44,5.56c-.8-1.06-1.18-2.07-1.74-2.18-.61-.13-1.39.57-2.1.91.39.74.61,1.76,1.22,2.13.42.25,1.38-.42,2.63-.86Z"/>
      <path class="cls-3" d="m55.51,771.19l1.04-2.96,3.04,1.07-1.04,2.96-3.04-1.07Z"/>
      <path class="cls-3" d="m37.73,800.26c-.97,2.72-3.95,4.16-6.65,3.2-2.66-.95-4.12-4.02-3.17-6.69.96-2.69,3.97-4.12,6.68-3.16,2.74.98,4.12,3.91,3.15,6.65Zm-4.05-3.96c-1.09.72-2.08,1.03-2.25,1.59-.18.58.45,1.4.72,2.12.77-.31,1.82-.44,2.22-1.01.28-.4-.32-1.42-.68-2.7Z"/>
      <path class="cls-3" d="m43.12,811.36c-2.74-.95-4.16-3.87-3.2-6.62.96-2.76,3.87-4.18,6.61-3.22,2.73.95,4.18,3.92,3.24,6.63-.93,2.7-3.93,4.15-6.65,3.21Zm3.91-4.11c-.73-1.11-1.05-2.13-1.61-2.28-.61-.16-1.43.47-2.16.76.34.77.5,1.8,1.08,2.21.4.28,1.41-.33,2.69-.7Z"/>
      <path class="cls-3" d="m26.85,831.42l1.09-3.09c3.22,1.14,6.35,2.24,9.64,3.4l-1.09,3.09c-3.22-1.14-6.29-2.22-9.64-3.4Z"/>
      <path class="cls-3" d="m41.19,833.01c2.07.73,4.15,1.47,6.32,2.23l-1.07,3.04c-2.12-.75-4.13-1.46-6.32-2.23l1.07-3.04Z"/>
    </g>
  </g>
</svg>