<?xml version="1.0" encoding="UTF-8"?>
<svg id="Layer_1" data-name="Layer 1" xmlns="http://www.w3.org/2000/svg" viewBox="0 0 2000 425">
  <defs>
    <style>
      .cls-1 {
        opacity: .57;
      }

      .cls-1, .cls-2, .cls-3, .cls-4, .cls-5, .cls-6, .cls-7, .cls-8, .cls-9, .cls-10, .cls-11, .cls-12, .cls-13 {
        stroke-width: 0px;
      }

      .cls-1, .cls-3, .cls-6, .cls-7, .cls-9 {
        fill: #2ad2c9;
      }

      .cls-2, .cls-14 {
        fill: #4b2e83;
      }

      .cls-4 {
        fill: #6eb91e;
      }

      .cls-5 {
        fill: none;
      }

      .cls-6 {
        opacity: .2;
      }

      .cls-7 {
        opacity: .15;
      }

      .cls-8 {
        fill: #fff;
      }

      .cls-9 {
        opacity: .82;
      }

      .cls-10 {
        fill: #85754d;
      }

      .cls-14 {
        stroke: #4b2e83;
        stroke-linecap: round;
        stroke-miterlimit: 10;
        stroke-width: 4px;
      }

      .cls-11 {
        fill: #c5b4e3;
        opacity: .28;
      }

      .cls-12 {
        fill: #aadb1e;
      }

      .cls-13 {
        fill: #ffc700;
      }
    </style>
  </defs>
  <path class="cls-1" d="m453,343.93c-27.23-2.1-49.34-2.79-64-3.05-48.66-.86-62.05,2.24-103.18-.44-27.88-1.82-23.28-3.47-56.28-5.66-31.72-2.1-58.73-3.9-91.56-.44-15.29,1.61-38.15,5.03-63.84,13.07l-49.56,7.57L0,358.41c.04,7.45-1.99,47.1.66,52.87,1.76,2.49,24.04,1.26,26.32,3.48,2.76,2.67,53.63,6.97,58.76,6.97,58.17,0,719.9-24.65,823.29-34.69,15.63-1.52,134.16.89,297.3,18.22,164.77,17.5,222.82-17.36,376.89-19.97,104.89-1.78,401.1,17.85,416.78,19.97v-81.48c-51.85-2.61-1495.15,22.79-1547,20.17Z"/>
  <path class="cls-6" d="m2000,115.72c-74.56,24.02-175.86,35.36-226.46,34.55-50.6-.81-213.03-19.43-306.23-25.64-93.2-6.21-111.84-3.09-183.74,9.32-71.9,12.41-117.17,24.84-143.8,0-26.63-24.84-202.38-18.62-237-12.42-34.62,6.21-79.89,34.14-213.03,12.41-133.14-21.73-165.1-62.08-311.56-43.46-146.46,18.62-135.81,41.48-266.29,51.78C-18.59,152.57,0,151.88,0,151.88v80.86s117.22.53,218.41-5.68c101.19-6.21,125.16,49.66,428.73,52.77,303.57,3.1,274.28-55.87,466.01-55.87s199.72,6.21,370.14,21.73c170.43,15.52,270.98-21.99,359.49,10.48,52.6,19.3,157.22,23.04,157.22,23.04V115.72Z"/>
  <line class="cls-14" x1="1034.33" y1="4.39" x2="1034.33" y2="61.84"/>
  <rect class="cls-5" x="0" y="151.15" width="2000" height="124.32"/>
  <path class="cls-3" d="m0,335.13c45.72-10.67,122.26-5.48,180.92-17.93,58.67-12.44,184.89-5.33,248.89,0,64,5.33,149.33,12.44,270.22,1.78,120.89-10.67,215.11-5.33,307.56-5.33s225.78,1.78,325.33-8.89c99.56-10.67,204.44,7.11,254.22,7.11s74.67,1.93,138.67,6.3,83.56.82,126.22,7.93c42.67,7.11,131.98,16.59,147.97,16v-74.67h-457.3l-426.67-8.89-234.68,9.12-282.65-16.23-234.67,7.11S0,260.31,0,269.2C0,270.69,0,296.76,0,296.76v38.37Z"/>
  <path class="cls-11" d="m.66,239.12c74.56-24.02,174.39,9.14,224.99,9.95,50.6.81,213.03,19.43,306.23,25.64,93.2,6.21,111.84,3.09,183.74-9.32,71.9-12.41,117.17-24.84,143.8,0,26.63,24.84,202.38,18.62,237,12.42,34.62-6.21,79.89-34.14,213.03-12.41,133.14,21.73,165.1,62.08,311.56,43.46,146.46-18.62,155.53-34.73,286.1-43.8,76.78-5.33,92.9,2.37,92.9,2.37v-109.95s-52.16-14.5-103.24-6.33c-38.23,6.11-72.66,18.48-115.98,21.13-101.19,6.21-125.16-49.66-428.73-52.77-303.57-3.1-274.28,55.87-466.01,55.87s-199.72-6.21-370.14-21.73c-170.43-15.52-252.98-27.94-340.85,6.21C87.17,194.01.66,183.15.66,183.15v55.98Z"/>
  <path class="cls-4" d="m655.22,226.54s22.52-10.02,114.67-21.04c7.85-.94,36.15-6.81,63.41-25.78,23.03-16.02,51.34-60,62.72-72,11.38-12,48.9-3.56,55.66-21.53,5.35-14.22,26.27-11.58,35.27-13.01,14.35-2.28,15.4-15.15,28.47-17.81,13.07-2.67,56.91-13.33,72.85,0,15.94,13.33,4.55,22.98,27.32,30.82,22.76,7.84,29.77,12.32,54.72,21.42,24.95,9.1,31.78,5.1,54.55,33.1,22.76,28,25.27,34.04,54.52,41.07,29.25,7.02,116.22,28.28,143.53,31.61,27.32,3.33,25.2,5.15,55.57,13.15,30.36,8.01,28.49,13.1,52.13,15.01,23.64,1.91,37.12,6.89,74.4,4.85,36.84-2.02,71.51,20.68,91.16,19.24,19.65-1.44,136.55,10.53,136.55,10.53l-1282.4,6.92,104.9-56.55Z"/>
  <path class="cls-12" d="m731.14,214.82c19.21,5.42,61.34,11.26,85.7,9.02,34.97-3.22,43.33-5.13,73.28-27.53,17.27-12.91,363.6,14.85,419.91,31.01,0,0,86.24,31.32,223.85,36.63,63.29,2.44,31-15.62,116.44-16.22,29.82-.21,64.3-5.76,94.67-11.11,113.04-19.92,113.2,23.67,144.05,23.67,6.12,0,101.56,0,110.95,3.67v24.39C1741.44,288.34,0,292.93,0,292.93v-59.55s58.85-49.64,104.7-47.54c278.82,12.74,222.74,77.44,361.74,51.12,55.39-10.49,112.99-51.04,184.21-37.69,23.31,4.37,57.36,9.02,80.49,15.54Z"/>
  <path class="cls-2" d="m1075.22,25.46c-15.7-6.16-31.41,5.13-47.11-1.03V8.35c15.7,5.48,31.41-6.5,47.11-1.03-4.03,1.62-8.05,4.3-12.08,7.45,4.03,2.72,8.05,6.09,12.08,10.69Z"/>
  <path class="cls-8" d="m1053.11,9.93l.4,2.04,1.43-.28-.45,6.26s-3.49-7.5-3.53-7.61l-2.07.4c0,.11-.6,8.41-.6,8.41l-2.63-5.67,1.49-.29c-.03-.13-.37-1.91-.4-2.04-.14.03-5.84,1.13-5.99,1.16.03.13.37,1.91.4,2.04l1.33-.26s4.06,8.71,4.11,8.82c.11-.02,3.1-.6,3.21-.62,0-.11.4-6.13.4-6.13,0,0,2.54,5.44,2.59,5.55l3.21-.62c0-.11.64-9.74.64-9.74l1.32-.25-.4-2.04c-.14.03-4.33.84-4.47.87Z"/>
  <g>
    <path class="cls-2" d="m899.58,52.36c-1.44-2.46-2.87-4.87-4.26-7.3-1.41-2.45-1.03-3.94,1.44-5.4,5.79-3.42,11.6-6.82,17.4-10.22.11-.07.2-.19.53-.52-.37-.62-.79-1.31-1.18-2.02-1.21-2.21-.8-3.74,1.47-5.08,5.73-3.39,11.48-6.73,17.23-10.1,3.63-2.12,7.25-4.26,10.89-6.36,2.61-1.5,3.99-1.13,5.53,1.48,2.28,3.86,4.57,7.72,6.77,11.62.62,1.1,1.22,1.34,2.5,1.08,8.96-1.83,17.19,1.86,21.86,9.71,3.33,5.6,6.59,11.24,10,17.08,3.34-1.16,4.55,1.26,5.78,3.62,1.08,2.08.69,3.58-1.32,4.8-2.94,1.77-5.9,3.51-8.89,5.2-1.02.58-1.48,1.06-1.15,2.44,1.19,4.96-.88,9.65-5.09,12.05-4.16,2.38-9.09,1.77-12.89-1.48-.5-.42-1.59-.78-2.04-.53-5.07,2.84-10.06,5.81-15.18,8.8,1.54,5.72.42,10.62-4.92,13.62-5.15,2.9-9.85,1.48-13.97-2.58-4.23,2.47-8.42,4.89-12.56,7.37-1.68,1-3.4,1.48-4.71-.23-2.17-2.84-3.19-4.67-1.64-6.54.81-.98.39-1.6-.08-2.39-4.29-7.31-8.57-14.63-12.85-21.95-3.91-6.69-3.66-10.12,1.34-16.18Zm82.91-12.16c-4.51,2.1-6.21,1.57-8.61-2.52-2.2-3.75-4.41-7.49-6.56-11.26-.44-.78-.94-1.66-.95-2.51-.02-1.34-.81-1.44-1.74-1.57-4.12-.56-7.93.3-11.5,2.39-7.25,4.25-14.51,8.49-21.77,12.74-9.43,5.52-18.88,11.02-28.29,16.57-3.81,2.24-5.48,6.16-3.76,9.81,1.69,3.57,3.94,6.88,6.07,10.53,3.58-2.1,7.05-4.13,10.56-6.18l1.57,2.68c-3.59,2.1-7.06,4.13-10.54,6.17.57.97,1.01,1.72,1.47,2.51.5-.23.88-.39,1.25-.58,3.52-1.92,4.52-1.65,6.55,1.81,1.26,2.15,2.52,4.31,3.75,6.4l2.48-1.45c-.08-.29-.1-.44-.16-.55-1.22-2.12-2.46-4.24-3.68-6.37-1.69-2.92-1.34-4.26,1.6-5.99,9.13-5.35,18.26-10.69,27.39-16.02,2.96-1.73,4.22-1.38,5.98,1.59,1.34,2.27,2.66,4.54,3.99,6.82,1.03-.6,1.78-1.04,2.72-1.59-5.75-9.83-11.42-19.53-17.19-29.39,2.96-1.73,5.72-3.36,8.5-4.97,6.44-3.74,12.52-2.16,16.3,4.25,3.38,5.73,6.73,11.49,10.09,17.23.38.64.75,1.28,1.13,1.93l2.2-1.29c-.28-1.84-1.02-3.56-.64-4.97.41-1.51,1.88-2.74,2.98-4.21l-1.18-2.02Zm-6.31,14.1c-2.65-4.53-5.16-8.82-7.69-13.15-4.45,2.6-8.76,5.12-13.15,7.69,2.57,4.4,5.08,8.69,7.72,13.2,2.42-5.94,6.67-8.48,13.12-7.74Zm-28.68-18.87c2.07,3.53,4.09,6.99,6.16,10.53,4.44-2.6,8.75-5.12,13.27-7.76-.86-1.47-1.61-2.87-2.47-4.2-2-3.12-5.75-4.55-9.13-3.07-2.71,1.19-5.17,2.95-7.83,4.5Zm7.3,31.52l-4.6-7.86-5.17,3.03c.44.89.83,1.67,1.23,2.49-.92.54-1.71,1-2.49,1.46-.61-.86-1.12-1.57-1.6-2.24-1.82,1.07-3.47,2.03-5.11,2.99,1.57,2.69,3.07,5.24,4.58,7.84,4.42-2.58,8.69-5.08,13.16-7.7Zm-9.35,14.59c-2.16-3.69-6.92-4.96-10.61-2.81-3.67,2.14-4.94,6.95-2.8,10.62,2.14,3.68,6.93,4.93,10.61,2.78,3.7-2.16,4.95-6.89,2.79-10.6Zm34.94-20.34c-2.14-3.74-6.84-5.05-10.56-2.94-3.69,2.1-5.01,6.88-2.93,10.59,2.08,3.69,6.88,5.01,10.59,2.9,3.74-2.13,5.03-6.82,2.9-10.55Zm-54.59,23.35c1.19-1.42,2.36-2.45,3.06-3.74,1.54-2.87,3.75-4.82,6.83-5.81.62-.2,1.26-.32,1.94-.49-1.26-2.16-2.38-4.06-3.51-6.01-1.78,1.04-3.44,2.01-5.14,3.01.43.91.8,1.7,1.22,2.58-.85.5-1.61.94-2.47,1.45-.57-.78-1.1-1.5-1.69-2.31-1.69.99-3.34,1.96-5.1,2.98,1.52,2.6,2.99,5.11,4.88,8.34Zm14.5-73.8c1.6,2.74,3.1,5.3,4.6,7.86.93-.45,1.73-.82,2.74-1.3,1.03,1.76,2,3.43,3.03,5.17l2.51-1.47c-2.61-4.46-5.16-8.82-7.76-13.26-1.74,1.02-3.36,1.97-5.12,2.99Zm1.64,9.58l-4.55-7.78c-1.81,1.06-3.46,2.03-5.11,2.99,2.61,4.46,5.14,8.78,7.7,13.16.85-.5,1.6-.93,2.53-1.48-1.03-1.76-2-3.42-3.02-5.16.9-.64,1.62-1.15,2.44-1.73Zm-4.93,10.13c-2.62-4.47-5.17-8.83-7.73-13.22-1.76,1.03-3.37,1.97-5.04,2.95,1.56,2.66,3.05,5.22,4.57,7.82.91-.43,1.71-.8,2.69-1.26,1.03,1.76,2,3.43,3.03,5.17.89-.52,1.59-.93,2.49-1.46Zm-20.8-5.58c2.63,4.5,5.19,8.87,7.73,13.22.88-.52,1.58-.93,2.54-1.48-1.05-1.79-2.05-3.5-3.04-5.19.95-.68,1.66-1.2,2.37-1.71-1.56-2.66-3.03-5.18-4.56-7.79-1.7.99-3.3,1.93-5.05,2.95Zm-8.51,22.74c-1.07-1.83-2.07-3.54-3.04-5.2.95-.68,1.66-1.19,2.38-1.71-.51-.86-.92-1.57-1.4-2.39l-7.84,4.59c1.55,2.64,3.04,5.19,4.58,7.83,1.73-1.01,3.34-1.95,5.32-3.11Zm13.22-7.72c-1.6-2.74-3.1-5.3-4.57-7.81-2.7,1.58-5.25,3.07-7.74,4.53.53.9.97,1.65,1.4,2.39.95-.44,1.74-.81,2.73-1.27,1.05,1.8,2.02,3.46,3.03,5.18,1.8-1.05,3.41-2,5.16-3.02Zm41.84,26.3c-5.97,3.49-11.73,6.86-17.6,10.29.79.76,1.44,1.38,2.13,2.04,5.39-3.15,10.75-6.29,16.16-9.45-.22-.94-.43-1.81-.69-2.89Zm-48.95,28.57c.56.96,1,1.71,1.46,2.49,4.51-2.64,8.89-5.2,13.28-7.77-.25-.99-.47-1.89-.72-2.92-4.8,2.81-9.36,5.47-14.01,8.2Zm66.96-57.61c-2.95-4.87-5.04-10.38-11.27-13.22,2.8,4.79,5.28,9.13,7.87,13.4,1,1.64,2.19.92,3.39-.18Zm10.65,12.26c-3.87,2.26-7.53,4.41-11.66,6.82,1.25.66,2.47,1.78,2.99,1.51,3.46-1.77,6.77-3.83,10.15-5.81l-1.48-2.53Zm-74.28,39.53c-1.6-2.74-3.09-5.29-4.57-7.81-.9.53-1.64.96-2.38,1.39,1.57,2.69,3.06,5.24,4.57,7.81.84-.49,1.55-.91,2.38-1.39Zm14.56-55.4l-1.41-2.41c-.89.52-1.68.99-2.48,1.45l1.41,2.41,2.48-1.45Zm-20.21,8.58l-2.46,1.44c.52.89.96,1.64,1.41,2.42.88-.51,1.62-.95,2.46-1.44-.5-.85-.94-1.6-1.41-2.42Zm33.83-16.56c.94-.55,1.68-.98,2.47-1.44-.5-.86-.94-1.6-1.4-2.39-.87.51-1.65.97-2.47,1.44.5.86.91,1.55,1.4,2.39Zm40.12,19.74c-.7.81-1.39,1.42-1.8,2.17-.13.25.43,1.26.72,1.28.86.06,1.73-.21,2.87-.39-.68-1.16-1.12-1.91-1.79-3.06Z"/>
    <path class="cls-2" d="m913.45,51.63c2.13,3.64,4.13,7.06,6.19,10.58-4.43,2.59-8.75,5.12-13.21,7.73-1.49-2.55-3.15-4.96-4.36-7.59-.86-1.88-.15-3.84,1.63-4.97,3.12-1.98,6.36-3.77,9.75-5.75Zm-5.92,14.06c2.67-1.56,5.22-3.05,7.82-4.57-1.04-1.77-2.01-3.43-3.08-5.26-1.12.65-2.13,1.23-3.13,1.84-4.9,2.97-5.53,1.97-1.6,7.99Z"/>
    <path class="cls-2" d="m926.93,43.88l6.11,10.44c-3.51,2.05-6.97,4.08-10.54,6.16-2.02-3.46-4.02-6.88-6.11-10.44,3.48-2.04,6.95-4.07,10.54-6.16Zm-6.31,7.19c1.1,1.87,2.07,3.53,3.02,5.16,1.8-1.06,3.46-2.03,5.09-2.98-1.05-1.8-2.02-3.46-3.02-5.16-1.75,1.02-3.36,1.97-5.09,2.98Z"/>
    <path class="cls-2" d="m929.79,42.13c3.54-2.07,6.96-4.07,10.52-6.15,2.04,3.49,4.04,6.91,6.13,10.48-3.48,2.04-6.94,4.06-10.52,6.15-2-3.43-4-6.85-6.13-10.48Zm9.39-1.89c-1.82,1.06-3.43,2.01-5.1,2.98,1.05,1.79,2.04,3.49,3.04,5.19,1.78-1.04,3.39-1.98,5.1-2.98-1.02-1.75-1.99-3.41-3.04-5.19Z"/>
    <path class="cls-2" d="m920.26,69.09c-.54-.92-.95-1.63-1.44-2.46,9.78-5.72,19.48-11.4,29.34-17.17.46.79.92,1.58,1.44,2.46-9.78,5.72-19.49,11.4-29.34,17.17Z"/>
    <path class="cls-2" d="m967.51,45.34l1.43,2.45c-.85.5-1.65.96-2.55,1.49-.47-.8-.91-1.56-1.43-2.45.83-.48,1.63-.95,2.55-1.49Z"/>
    <path class="cls-2" d="m934.61,87.55c-1.18-2.3-.28-5.09,2.02-6.26,2.28-1.16,5.17-.24,6.29,2.01,1.13,2.27.19,5.19-2.03,6.3-2.3,1.15-5.11.23-6.28-2.05Zm6.02-3.1c-1.19-.17-2.14-.58-2.47-.29-.47.42-.49,1.35-.7,2.06.67.17,1.47.63,1.98.42.48-.2.65-1.12,1.19-2.18Z"/>
    <path class="cls-2" d="m969.62,67.28c-1.28-2.25-.5-5.06,1.76-6.33,2.23-1.26,5.11-.46,6.35,1.76,1.24,2.21.42,5.15-1.77,6.37-2.23,1.25-5.07.44-6.34-1.8Zm5.81-3.46c-1.21-.04-2.11-.34-2.5-.02-.44.35-.42,1.28-.59,1.95.73.15,1.55.57,2.15.36.41-.15.52-1.17.95-2.29Z"/>
  </g>
  <path class="cls-9" d="m0,366.79c45.72-10.67,122.26-5.48,180.92-17.93,58.67-12.44,184.89-5.33,248.89,0s149.33,12.44,270.22,1.78c120.89-10.67,215.11-5.33,307.56-5.33s225.78,1.78,325.33-8.89c99.56-10.67,204.44,7.11,254.22,7.11s74.67,1.93,138.67,6.3c64,4.37,83.56.82,126.22,7.93,42.67,7.11,131.98,16.59,147.97,16v-74.67h-457.3l-426.67-8.89-234.68,9.12-282.65-16.23-234.67,7.11S8.89,300.86,0,300.86v65.93Z"/>
  <g>
    <path class="cls-13" d="m1946.21,212.5c-3.47,0-6.09,0-9.66,0,0-5.84-.26-11.62.21-17.37.1-1.19,2.92-2.27,4.49-3.4,1.65,1.23,4.6,2.39,4.73,3.7.54,5.47.23,10.99.23,17.08Z"/>
    <path class="cls-2" d="m1890.71,249.92c0-1.08,0-1.93,0-2.78,0-9.79-.11-19.59.06-29.38.06-3.77-.63-7.21-2.01-10.7-.95-2.4-1.34-5.09-1.52-7.69-.25-3.59-.02-7.2-.08-10.81-.03-1.9.56-2.89,2.68-2.97.84-.03,1.96-.83,2.4-1.6,2.8-4.89,5.4-9.89,8.18-14.8.57-1.01,1.59-1.77,2.4-2.65.83.85,1.89,1.56,2.46,2.56,2.78,4.9,5.45,9.86,8.11,14.83.59,1.11,1.16,1.95,2.65,1.76,1.78-.22,2.57.73,2.52,2.51-.05,1.94-.01,3.88-.01,5.97,2.37,0,4.52,0,6.81,0,0-3.36,0-6.62,0-10.26-.99,0-1.98.05-2.95-.01-1.97-.13-2.61-1.31-1.59-3,.85-1.41,1.84-2.72,2.77-4.08,5.1-7.42,10.19-14.85,15.3-22.27,1.78-2.58,2.73-2.58,4.5-.02,5.73,8.32,11.48,16.63,17.13,25,.67,1,.81,2.35,1.2,3.54-1.16.28-2.31.58-3.47.85-.37.08-.76.08-1.3.14,0,3.38,0,6.69,0,10.14,2.21,0,4.3,0,6.79,0,0-1.98.04-3.98-.01-5.98-.05-1.78.72-2.74,2.52-2.52,1.48.18,2.05-.64,2.65-1.76,2.77-5.17,5.57-10.34,8.45-15.45.45-.79,1.4-1.83,2.1-1.81.72.02,1.62,1.07,2.07,1.88,2.88,5.12,5.69,10.27,8.44,15.46.62,1.17,1.29,1.83,2.7,1.68,1.86-.2,2.46.91,2.45,2.6-.03,4.62.06,9.25-.05,13.87-.03,1.2-.41,2.49-.95,3.58-2.1,4.25-2.72,8.67-2.61,13.4.22,9.32.06,18.64.06,27.97,0,.85,0,1.7,0,2.61.42.13.7.28.99.29q4.23.24,4.23,4.59c0,2.35-.02,4.7,0,7.05.02,1.58-.74,2.31-2.29,2.28-.55-.01-1.1,0-1.65,0-34.47,0-68.94,0-103.42,0-3.91,0-3.93-.03-3.94-3.93,0-2.19,0-4.39,0-6.58.01-3.17.16-3.32,3.29-3.39.54-.01,1.08-.07,1.94-.13Zm24.53-36.41c0,1.84,0,3.42,0,5.19,1.66,0,3.17-.19,4.59.08.78.15,1.4,1.09,2.09,1.67-.68.6-1.3,1.57-2.06,1.71-1.49.27-3.07.08-4.6.08,0,9.42,0,18.53,0,27.68,4.01,0,7.82,0,11.9,0,0-.97,0-1.81,0-2.64,0-4.78-.07-9.56.02-14.34.17-8.2,6.29-14.32,14.09-14.23,7.7.09,13.65,6.24,13.78,14.33.07,4.78,0,9.56.02,14.34,0,.83.08,1.66.13,2.56,4.04,0,7.84,0,11.77,0,0-2.32,0-4.51,0-6.85-1.14,0-2.15.21-2.99-.06-.75-.25-1.31-1.03-1.96-1.58.67-.6,1.25-1.47,2.03-1.74.88-.3,1.95-.07,2.99-.07,0-8.84,0-17.35,0-26.12-3.8,0-7.46-.05-11.12.02-1.91.04-2.74-.76-2.64-2.66.07-1.37.01-2.76.01-4.19-1.87,0-3.4,0-5.19,0,0,1.6,0,3.06,0,4.53,0,1.54-.7,2.32-2.28,2.31-3.13-.02-6.27-.02-9.4,0-1.57.01-2.3-.75-2.3-2.3,0-1.47,0-2.94,0-4.5-1.85,0-3.44,0-5.19,0,0,1.34,0,2.5,0,3.67-.02,2.85-.27,3.12-3.08,3.13-3.51.01-7.01,0-10.62,0Zm-26.19,46.77c34.83,0,69.48,0,104.06,0,0-2.34,0-4.48,0-6.62-34.78,0-69.37,0-104.06,0,0,2.24,0,4.34,0,6.62Zm59.06-57.2c2.28,0,4.22.05,6.16-.01,1.82-.06,2.57.78,2.49,2.56-.06,1.38-.01,2.77-.01,4.23,3.27,0,6.24,0,8.98,0-.91-4.02-1.79-7.9-2.71-11.96-2.04,0-4.38-.09-6.72.02-2.22.1-3.12-.75-3.04-3.01.12-3.57.03-7.15.03-10.84-8.22,0-16.16,0-24.36,0,0,3.78-.06,7.44.02,11.09.05,2.04-.83,2.82-2.81,2.76-2.47-.08-4.95-.02-6.91-.02-.99,4.28-1.88,8.15-2.77,12.01,2.86,0,5.8,0,9.01,0,0-1.45.07-2.76-.02-4.06-.12-2,.71-2.89,2.75-2.79,1.92.09,3.85.02,5.91.02,0-2.38-.05-4.41.01-6.44.13-4.16,3.21-7.46,6.92-7.5,3.98-.04,6.93,3.08,7.03,7.51.05,2.03,0,4.05,0,6.43Zm39.86,10.6c-5.8,0-11.46,0-17.08,0,0,12.18,0,24.18,0,36.22,5.77,0,11.36,0,17.08,0,0-12.09,0-24.04,0-36.22Zm-76.64,36.24c0-12.19,0-24.24,0-36.25-5.8,0-11.39,0-17.01,0,0,12.17,0,24.17,0,36.25,5.76,0,11.35,0,17.01,0Zm14.1-69.61c10.67,0,20.85,0,31.4,0-5.3-7.7-10.4-15.12-15.7-22.84-5.31,7.72-10.41,15.14-15.7,22.84Zm-34.5,8.97c0,4.06,0,7.98,0,11.89,8.06,0,15.93,0,23.89,0,0-4.05,0-7.97,0-11.89-2.28,0-4.36,0-6.7,0,0,1.6,0,3.07,0,4.53,0,1.52-.71,2.32-2.29,2.3-1.88-.03-3.75-.06-5.63.01-1.79.07-2.61-.71-2.58-2.49.03-1.45,0-2.9,0-4.36-2.47,0-4.54,0-6.7,0Zm76.42,11.87c8.11,0,16.04,0,24.03,0,0-4.02,0-7.88,0-11.85-2.28,0-4.42,0-6.76,0,0,1.55-.02,2.95,0,4.35.04,1.79-.8,2.55-2.58,2.48-1.8-.07-3.6-.06-5.39,0-1.82.06-2.56-.81-2.53-2.55.03-1.39,0-2.77,0-4.28-2.41,0-4.54,0-6.79,0,0,3.96,0,7.77,0,11.86Zm-28.15,21.4c-6.3,1.3-9.6,6.85-8.12,13.55.89,0,1.9-.23,2.72.07.8.29,1.4,1.12,2.09,1.71-.7.58-1.32,1.4-2.13,1.69-.82.29-1.83.06-2.89.06,0,3.52,0,6.84,0,10.29,2.8,0,5.49,0,8.33,0,0-9.15,0-18.18,0-27.37Zm3.85,0c0,9.18,0,18.21,0,27.37,2.83,0,5.51,0,8.34,0,0-3.43,0-6.74,0-10.16-.81-.04-1.5-.09-2.19-.1-1.3-.02-2.75-.05-2.78-1.75-.04-1.7,1.36-1.82,2.69-1.82.75,0,1.5-.08,2.22-.12.87-7.36-2-12.05-8.27-13.42Zm-40.19-50.59c-2.57,4.73-4.95,9.09-7.48,13.74,1.21,0,1.99.06,2.76-.01,2.23-.21,3.2.75,3.02,3-.1,1.28-.02,2.58-.02,3.85h3.26c.12-1.97-.4-4.28.52-5.54.87-1.19,3.24-1.27,5.1-1.88-2.26-4.14-4.6-8.45-7.16-13.15Zm83.72,13.19c-2.26-4.16-4.64-8.52-7.18-13.18-2.53,4.64-4.91,9-7.49,13.73,1.17,0,1.91,0,2.66,0,2.76.03,3.1.36,3.13,3.11.01,1.22,0,2.44,0,3.68h3.28c.12-2.03-.38-4.33.53-5.62.8-1.14,3.19-1.15,5.07-1.72Zm-42.1,24.77c0-4.89.1-9.65-.05-14.4-.06-1.77-1.44-2.74-3.23-2.78-1.8-.04-3.26.91-3.33,2.65-.19,4.81-.07,9.63-.07,14.53,2.34,0,4.41,0,6.68,0Zm-52.87-4.94c.58,1.45.89,2.69,1.55,3.71.41.63,1.33,1.29,2.04,1.31,5.15.11,10.31.08,15.46.02.59,0,1.46-.34,1.7-.79.68-1.27,1.1-2.69,1.7-4.25-7.56,0-14.8,0-22.45,0Zm76.54,0c.61,1.55.98,2.83,1.62,3.95.31.53,1.14,1.07,1.74,1.08,5.31.08,10.62.07,15.93.01.51,0,1.26-.38,1.47-.79.65-1.3,1.1-2.7,1.71-4.25-7.53,0-14.77,0-22.46,0Z"/>
    <path class="cls-2" d="m1974.14,230.62c0-1.57-.05-3.13.01-4.7.13-3.22,2.33-5.45,5.28-5.43,2.89.02,5.06,2.13,5.16,5.27.11,3.28.03,6.57.03,9.86,0,1.55-.78,2.29-2.33,2.27-1.96-.02-3.91,0-5.87,0-1.57,0-2.28-.83-2.28-2.34,0-1.64,0-3.29,0-4.93Zm6.93,3.63c0-2.97.09-5.83-.08-8.68-.03-.55-1.03-1.35-1.68-1.46-.43-.08-1.47.85-1.49,1.36-.15,2.91-.07,5.84-.07,8.78,1.25,0,2.17,0,3.32,0Z"/>
    <path class="cls-2" d="m1908.12,230.85c0,1.49-.03,2.97,0,4.46.04,1.75-.73,2.62-2.53,2.58-1.88-.04-3.76-.02-5.64,0-1.55.02-2.33-.73-2.33-2.27,0-3.37-.09-6.74.05-10.1.12-2.98,2.34-5.02,5.14-5.03,2.78-.02,5.02,2.03,5.24,4.97.13,1.79.02,3.6.02,5.4,0,0,.02,0,.03,0Zm-3.58,3.4c0-3.01.11-5.73-.08-8.43-.04-.64-1.07-1.22-1.65-1.83-.55.56-1.53,1.09-1.57,1.68-.17,2.84-.07,5.7-.07,8.58,1.25,0,2.16,0,3.37,0Z"/>
    <path class="cls-2" d="m1941.12,176.96c-1.09,0-2.24.21-3.26-.07-.73-.2-1.28-1.04-1.91-1.6.6-.59,1.15-1.64,1.8-1.7,2.24-.21,4.53-.21,6.77,0,.64.06,1.19,1.11,1.78,1.71-.63.55-1.19,1.39-1.92,1.58-1.02.27-2.17.07-3.26.07Z"/>
    <path class="cls-2" d="m1940.5,170.06c-.06,0-.87.14-1.43-.17-.58-.32-1.27-1.09-1.26-1.65.01-.56.75-1.43,1.32-1.58,1.02-.28,2.23-.34,3.24-.08.8.21,1.44,1.06,2.15,1.62-.74.62-1.44,1.29-2.24,1.82-.27.18-.76.03-1.79.03Z"/>
    <path class="cls-13" d="m1981.07,234.24c-1.15,0-2.07,0-3.32,0,0-2.94-.08-5.87.07-8.78.03-.51,1.06-1.43,1.49-1.36.65.11,1.65.91,1.68,1.46.17,2.85.08,5.72.08,8.68Z"/>
    <path class="cls-13" d="m1904.54,234.25c-1.21,0-2.12,0-3.37,0,0-2.88-.09-5.74.07-8.58.03-.59,1.02-1.12,1.57-1.68.58.61,1.61,1.18,1.65,1.83.19,2.7.08,5.42.08,8.43Z"/>
  </g>
  <path class="cls-2" d="m327.56,123.21c6.78-7.35,15.16-10.88,24.82-11.65.58-.05,1.17-.07,1.76-.05,1.39.06,2.27.9,2.3,2.15.03,1.21-.86,2.06-2.27,2.21-1.85.19-3.72.27-5.54.63-8.04,1.58-14.8,5.26-19.71,12.03-.46.64-1.55,1.2-2.29,1.13-.66-.05-1.53-.91-1.8-1.61-3.64-9.47-10.7-15.22-19.98-18.61-.37-.13-.75-.23-1.11-.38-1.31-.53-1.91-1.64-1.55-2.77.39-1.2,1.6-1.88,2.98-1.29,3.37,1.43,6.82,2.77,9.95,4.64,5.19,3.09,9.18,7.46,11.99,12.84.11.21.24.41.44.75Z"/>
  <path class="cls-2" d="m341.96,139.62c3.82-1.17,7.46-1.08,11.07.12,1.7.56,2.47,1.77,2.01,3.13-.45,1.32-1.71,1.87-3.34,1.33-3.65-1.2-7.14-1.06-10.52.96-1.79,1.06-3.6.02-3.58-2.06.04-3.94-1.62-7.01-4.49-9.55-1.29-1.14-1.49-2.49-.57-3.54.92-1.05,2.32-1.08,3.6.03,2.91,2.53,4.91,5.63,5.82,9.59Z"/>
  <path class="cls-2" d="m307.22,133.03c2.19-1.93,4.58-3.08,7.3-3.53,1.71-.28,2.82.35,3.06,1.7.23,1.34-.58,2.25-2.34,2.57-2.62.48-4.74,1.67-6.23,3.97-1.18,1.82-3.03,1.73-4.03-.18-1.28-2.42-3.32-3.77-5.87-4.5-1.66-.48-2.42-1.53-2.06-2.81.36-1.28,1.57-1.81,3.23-1.38,2.66.69,4.95,2.04,6.94,4.15Z"/>
  <path class="cls-2" d="m128.84,175.38c-2.04-.24-4.02-.55-6.03-.69-1.33-.09-2.3-.54-3.05-1.69-.77-1.18-1.72-2.24-2.61-3.34-.49-.61-.47-1.12.17-1.61,1.45-1.12,2.86-2.3,4.34-3.38.34-.25.9-.34,1.33-.3,2.33.23,4.65.53,7.05.81l.3-2.55c-.58-.07-1.15-.11-1.7-.21-1.39-.24-2.28-1.35-2.15-2.76.16-1.71.37-3.41.6-5.11.2-1.51,1.3-2.39,2.83-2.3.53.03,1.06.12,1.64.19.29-1.32.13-2.72,1.42-3.54.81-.51,1.67-.42,2.53-.28,1.8.29,2.19,1.09,2.15,4.49.3.05.61.11.93.15,2.03.24,4.07.45,6.09.75.48.07,1.03.36,1.35.72,1.13,1.32,2.19,2.72,3.26,4.09.6.77.56,1.13-.2,1.73-1.36,1.09-2.72,2.19-4.12,3.22-.37.27-.93.43-1.39.39-2.04-.18-4.06-.45-6.09-.69-.32-.04-.65-.08-1.04-.12l-.3,2.54c.53.06,1.03.1,1.53.18,1.61.26,2.47,1.37,2.3,2.99-.17,1.61-.36,3.23-.57,4.84-.21,1.62-1.32,2.5-2.94,2.35-.5-.04-1-.12-1.54-.18l-.8,6.79c.97.11,1.9.15,2.8.36.51.12,1.05.42,1.4.79.74.79,1.36,1.68,2.03,2.53.52.65.67,1.35.24,2.09-.41.71-1.07.9-1.86.81-5.58-.67-11.17-1.33-16.75-1.98-.79-.09-1.37-.46-1.6-1.24-.22-.78.05-1.42.68-1.91.05-.04.1-.07.14-.11,1.9-1.79,3.91-3.25,6.79-1.89l.82-6.96Zm-10.01-6.35c.98,1.23,1.88,2.39,2.82,3.52.17.2.5.32.78.35,4.68.57,9.37,1.11,14.05,1.68.78.09,1.2-.21,1.29-1,.17-1.49.34-2.99.53-4.47.11-.82-.21-1.23-1.05-1.33-4.69-.54-9.37-1.11-14.05-1.64-.31-.04-.71.08-.97.27-1.11.81-2.19,1.68-3.4,2.62Zm28.87-9.48c-.96-1.21-1.81-2.31-2.7-3.36-.21-.24-.57-.45-.88-.49-4.68-.58-9.37-1.12-14.05-1.68-.84-.1-1.24.22-1.32,1.05-.15,1.46-.35,2.92-.51,4.39-.1.95.13,1.25,1.1,1.36,4.65.56,9.31,1.11,13.96,1.64.27.03.63,0,.84-.16,1.18-.87,2.33-1.78,3.57-2.74Zm-8.54,28.21c-.72-.89-1.25-1.62-1.86-2.28-.26-.28-.67-.52-1.03-.57-3.58-.46-7.16-.87-10.75-1.28-.26-.03-.59-.07-.78.06-.89.58-1.74,1.22-2.6,1.84.05.08.11.16.16.24,5.53.65,11.06,1.31,16.85,1.99Zm-6.85-5.13l.79-6.68c-.84-.1-1.63-.19-2.42-.29-.27,2.26-.53,4.45-.79,6.68.82.1,1.58.19,2.42.29Zm-.12-19.71l-.29,2.42c.84.1,1.62.19,2.4.28l.29-2.42-2.4-.28Zm3.73-9.99c-.12-.9.63-1.82-.28-2.41-.42-.27-1.44-.35-1.64-.09-.44.57-.53,1.4-.77,2.19l2.69.32Z"/>
  <path class="cls-2" d="m782.54,189.67c-1.93.69-3.85,1.29-5.71,2.05-1.24.51-2.3.53-3.48-.16-1.21-.71-2.53-1.25-3.82-1.84-.71-.33-.91-.8-.56-1.52.8-1.65,1.55-3.33,2.39-4.95.19-.37.65-.7,1.06-.86,2.19-.82,4.41-1.59,6.68-2.39-.29-.81-.55-1.56-.86-2.42-.55.2-1.08.41-1.61.57-1.35.4-2.65-.2-3.15-1.53-.61-1.6-1.18-3.22-1.73-4.84-.49-1.44.11-2.72,1.52-3.31.49-.21,1-.36,1.56-.56-.33-1.31-1.09-2.5-.3-3.8.5-.82,1.31-1.11,2.15-1.37,1.74-.54,2.45,0,3.91,3.07.29-.09.6-.17.9-.28,1.93-.68,3.84-1.4,5.79-2.03.46-.15,1.09-.14,1.53.05,1.6.68,3.16,1.47,4.73,2.22.88.42,1,.76.59,1.64-.74,1.58-1.46,3.17-2.27,4.71-.21.4-.65.8-1.07.96-1.91.74-3.84,1.39-5.77,2.08-.31.11-.61.22-.98.35.29.82.55,1.56.86,2.41.5-.18.97-.36,1.45-.51,1.55-.48,2.83.14,3.39,1.66.56,1.52,1.11,3.05,1.63,4.59.53,1.55-.08,2.83-1.59,3.41-.47.18-.95.34-1.46.52.78,2.19,1.52,4.27,2.29,6.44.92-.33,1.78-.71,2.67-.92.51-.12,1.12-.09,1.61.09,1.01.38,1.96.91,2.94,1.37.75.35,1.2.91,1.14,1.77-.06.82-.56,1.28-1.31,1.55-5.3,1.88-10.6,3.76-15.9,5.64-.75.27-1.44.2-1.98-.4-.54-.6-.59-1.29-.23-2.01.03-.05.05-.11.08-.16.91-2.45,2.06-4.65,5.25-4.7-.82-2.31-1.57-4.41-2.34-6.6Zm-11.79-1.26c1.43.67,2.75,1.31,4.09,1.9.24.1.59.06.85-.03,4.45-1.56,8.89-3.15,13.34-4.72.74-.26.98-.72.71-1.46-.51-1.41-1.02-2.83-1.51-4.25-.27-.79-.73-1.01-1.52-.73-4.44,1.59-8.89,3.16-13.33,4.76-.3.11-.6.39-.75.67-.64,1.22-1.22,2.48-1.89,3.85Zm21.69-21.28c-1.4-.66-2.64-1.27-3.91-1.82-.29-.13-.71-.15-1.01-.05-4.45,1.56-8.89,3.15-13.34,4.71-.8.28-1.01.75-.72,1.52.51,1.38.98,2.78,1.49,4.16.33.9.67,1.06,1.59.73,4.42-1.56,8.84-3.13,13.25-4.71.26-.09.56-.29.68-.52.68-1.3,1.3-2.63,1.99-4.04Zm4.84,29.07c-1.04-.48-1.84-.9-2.68-1.22-.35-.13-.83-.18-1.18-.06-3.41,1.18-6.81,2.39-10.2,3.61-.24.09-.56.2-.67.4-.54.92-1.01,1.86-1.51,2.8.09.05.17.1.26.15,5.25-1.86,10.5-3.73,15.99-5.68Zm-8.41-1.56c-.77-2.16-1.5-4.24-2.25-6.34l-2.29.81c.76,2.14,1.5,4.22,2.25,6.34l2.29-.81Zm-8.84-17.62c.28.79.55,1.54.82,2.3.8-.28,1.54-.55,2.28-.81l-.82-2.3c-.79.28-1.51.54-2.28.81Zm-1.08-10.61c-.5-.75-.24-1.91-1.32-2.04-.5-.06-1.44.32-1.51.64-.14.7.15,1.49.27,2.3.96-.34,1.68-.6,2.56-.91Z"/>
  <path class="cls-2" d="m1377.36,192.87c-1.98-.52-3.91-1.1-5.87-1.52-1.31-.28-2.2-.86-2.78-2.09-.6-1.27-1.39-2.46-2.12-3.67-.4-.67-.31-1.17.39-1.57,1.59-.91,3.15-1.88,4.77-2.75.37-.2.93-.21,1.36-.11,2.27.55,4.53,1.17,6.87,1.78l.65-2.48c-.57-.15-1.12-.27-1.65-.44-1.35-.43-2.07-1.66-1.74-3.03.4-1.67.84-3.32,1.3-4.97.41-1.47,1.62-2.18,3.12-1.88.52.11,1.03.27,1.6.42.47-1.27.51-2.68,1.9-3.31.88-.39,1.71-.18,2.55.07,1.74.53,2.02,1.39,1.5,4.75.29.09.59.2.9.28,1.98.52,3.96,1.01,5.93,1.59.47.14.97.5,1.23.9.94,1.47,1.79,2.99,2.66,4.5.49.85.4,1.19-.43,1.69-1.5.89-2.99,1.79-4.53,2.62-.4.22-.98.3-1.43.2-1.99-.46-3.96-1.01-5.94-1.53-.31-.08-.63-.17-1.01-.27-.22.84-.42,1.6-.65,2.47.52.14,1.01.25,1.49.39,1.55.48,2.26,1.7,1.86,3.28-.39,1.58-.81,3.15-1.24,4.71-.44,1.57-1.66,2.29-3.24,1.92-.49-.11-.97-.25-1.5-.39l-1.74,6.61c.94.25,1.86.42,2.72.74.49.19.98.56,1.28.98.62.88,1.11,1.86,1.66,2.79.42.72.47,1.43-.05,2.1-.51.64-1.18.75-1.95.54-5.44-1.44-10.88-2.86-16.32-4.29-.77-.2-1.3-.65-1.41-1.45-.11-.8.24-1.4.94-1.79.05-.03.11-.06.15-.09,2.13-1.51,4.32-2.68,6.98-.92.62-2.37,1.19-4.53,1.78-6.78Zm-9.03-7.68c.8,1.36,1.53,2.63,2.31,3.88.14.22.45.38.72.45,4.56,1.21,9.12,2.4,13.68,3.61.76.2,1.22-.04,1.41-.81.37-1.46.75-2.91,1.15-4.36.22-.8-.03-1.25-.85-1.46-4.56-1.19-9.12-2.4-13.69-3.57-.31-.08-.72-.02-1,.13-1.22.65-2.4,1.36-3.73,2.12Zm29.91-5.37c-.79-1.33-1.47-2.53-2.21-3.7-.17-.27-.5-.53-.81-.61-4.56-1.22-9.12-2.41-13.68-3.62-.82-.22-1.26.05-1.46.85-.36,1.43-.75,2.85-1.11,4.27-.24.93-.05,1.25.9,1.5,4.53,1.2,9.06,2.39,13.6,3.57.27.07.62.08.85-.04,1.29-.7,2.56-1.44,3.92-2.22Zm-12.37,26.75c-.59-.98-1.01-1.78-1.53-2.52-.22-.31-.59-.61-.94-.71-3.48-.95-6.97-1.86-10.46-2.76-.25-.07-.57-.15-.78-.05-.96.45-1.89.97-2.83,1.46.04.09.09.18.13.26,5.39,1.42,10.77,2.83,16.41,4.31Zm-6.07-6.03c.58-2.22,1.14-4.35,1.71-6.5l-2.35-.62c-.58,2.2-1.14,4.33-1.71,6.5l2.35.62Zm2.62-19.54c-.21.81-.41,1.58-.62,2.36l2.34.61.62-2.36-2.34-.61Zm5.09-9.37c0-.91.88-1.72.06-2.43-.38-.33-1.38-.55-1.61-.32-.51.5-.72,1.32-1.07,2.06.98.26,1.72.45,2.62.69Z"/>
  <path class="cls-7" d="m1274.33-53.17,46,89.14c-12.89,0-23.33,10.45-23.33,23.33s10.45,23.33,23.33,23.33,23.33-10.45,23.33-23.33-10.45-23.33-23.33-23.33Zm34.48-23.43c-15.73,0-28.48,12.75-28.48,28.48s12.75,28.48,28.48,28.48,28.48-12.75,28.48-28.48-12.75-28.48-28.48-28.48Zm48.19,85.31c23.2,0,42-18.8,42-42s-18.8-42-42-42-42,18.8-42,42,18.8,42,42,42Zm80.95-51.89c0-21.51-17.44-38.95-38.95-38.95s-38.95,17.44-38.95,38.95,17.44,38.95,38.95,38.95,38.95-17.44,38.95-38.95Zm8.07-36.95c-15.73,0-28.48,12.75-28.48,28.48s12.75,28.48,28.48,28.48,28.48-12.75,28.48-28.48-12.75-28.48-28.48-28.48Zm-131.02,31.59c-15.73,0-28.48,12.75-28.48,28.48s12.75,28.48,28.48,28.48,28.48-12.75,28.48-28.48-12.75-28.48-28.48-28.48Z"/>
  <path class="cls-7" d="m557.67-18.5,37.78,73.21c-10.58,0-19.16,8.58-19.16,19.16s8.58,19.16,19.16,19.16,19.16-8.58,19.16-19.16-8.58-19.16-19.16-19.16Zm28.31-19.24c-12.92,0-23.39,10.47-23.39,23.39s10.47,23.39,23.39,23.39,23.39-10.47,23.39-23.39-10.47-23.39-23.39-23.39Zm39.57,70.06c19.05,0,34.49-15.44,34.49-34.49s-15.44-34.49-34.49-34.49-34.49,15.44-34.49,34.49,15.44,34.49,34.49,34.49Zm66.48-42.61c0-17.67-14.32-31.99-31.99-31.99s-31.99,14.32-31.99,31.99,14.32,31.99,31.99,31.99,31.99-14.32,31.99-31.99Zm6.63-30.34c-12.92,0-23.39,10.47-23.39,23.39s10.47,23.39,23.39,23.39,23.39-10.47,23.39-23.39-10.47-23.39-23.39-23.39Zm-107.6,25.94c-12.92,0-23.39,10.47-23.39,23.39s10.47,23.39,23.39,23.39,23.39-10.47,23.39-23.39-10.47-23.39-23.39-23.39Z"/>
  <path class="cls-7" d="m28.33,32.87c-12.89,0-23.33,10.45-23.33,23.33s10.45,23.33,23.33,23.33,23.33-10.45,23.33-23.33-10.45-23.33-23.33-23.33ZM62.81,9.44c-15.73,0-28.48,12.75-28.48,28.48s12.75,28.48,28.48,28.48,28.48-12.75,28.48-28.48-12.75-28.48-28.48-28.48Zm48.19,85.31c23.2,0,42-18.8,42-42s-18.8-42-42-42-42,18.8-42,42,18.8,42,42,42Zm80.95-51.89c0-21.51-17.44-38.95-38.95-38.95s-38.95,17.44-38.95,38.95,17.44,38.95,38.95,38.95,38.95-17.44,38.95-38.95Zm8.07-36.95c-15.73,0-28.48,12.75-28.48,28.48s12.75,28.48,28.48,28.48,28.48-12.75,28.48-28.48-12.75-28.48-28.48-28.48Zm-131.02,31.59c-15.73,0-28.48,12.75-28.48,28.48s12.75,28.48,28.48,28.48,28.48-12.75,28.48-28.48-12.75-28.48-28.48-28.48Z"/>
  <g>
    <g>
      <path class="cls-2" d="m1915.29,379.77c.24,1.47.48,2.55.57,3.64.31,3.71-.93,6.8-3.94,9.07-.43.33-1.11.32-1.68.47-.07-.57-.32-1.19-.17-1.7.53-1.88.52-3.63-.5-5.39-.85-1.47-1.48-3.06-2.17-4.54-1.22-.55-2.68-.93-3.76-1.78-1.44-1.13-2.79-1.93-4.7-1.51-1.33.29-1.85-.66-1.07-1.52,1.15-1.28,2.55-2.76,4.1-3.15,2.34-.6,4.9-.26,7.36-.47.85-.07,1.95-.31,2.47-.89,3.37-3.83,7.39-6.8,12.17-8.36,4.83-1.58,9.85-2.66,14.85-3.62,5.1-.97,8.15-5,7.15-10.01-.13-.68.05-1.42.09-2.13.77.09,1.64-.03,2.29.3,4.22,2.11,6.52,5.67,7.24,10.24.64,4.09,2.74,6.94,6.49,8.73,2.49,1.19,5.01,2.45,7.2,4.1,3.79,2.85,7.59,5.78,10.91,9.14,3.15,3.17,4.89,7.18,3.95,11.92-.09.44.24,1,.48,1.46,1.15,2.2.1,4.5-2.36,4.8-1.27.15-2.65.03-3.88-.31-2.32-.65-4.59-1.51-6.84-2.38-1.05-.4-1.62-.11-2.49.59-1.57,1.26-3.37,2.3-5.2,3.14-.56.26-1.91-.19-2.25-.73-.33-.52.01-1.63.33-2.37.44-1.01,1.14-1.91,1.83-3.03-1.05-.31-1.72-.45-2.35-.7-1.87-.74-3.3-.66-4.91,1.02-2.56,2.68-6.03,3.58-9.71,3.15-.82-.1-2.07-.73-2.23-1.35-.2-.76.35-1.91.91-2.63,1.19-1.49,2.6-2.8,4.26-4.55-11.13-5.85-22.35-8.67-34.43-8.66Zm35.74,2.94c.12-.48.64-.87.97-1.29.28.48.81.95.81,1.43,0,3.56-1.45,6.56-3.78,9.16-.82.92-1.72,1.76-2.93,2.98,2.63.36,4.78.09,6.83-.94,3.63-1.81,5.64-4.97,7.02-8.62.29-.77.4-1.63.76-2.36.23-.46.78-.76,1.18-1.14.2.51.53,1.02.57,1.54.04.52-.22,1.05-.26,1.21,6.73,2.31,13.35,4.57,20.07,6.87.69-2.06.1-4.16-.88-6.15-2.46-5.02-6.67-8.41-11.19-11.39-2.88-1.9-5.9-3.61-8.97-5.17-4.2-2.14-6.73-5.34-7.44-10.04-.55-3.65-2.28-6.59-5.39-8.51-.45,2.02-.58,4.13-1.39,5.92-1.49,3.31-4.28,5.12-7.92,5.59-2.31.3-4.62.69-6.93,1.03-.06.2-.11.39-.17.59,1.11.57,2.21,1.17,3.33,1.72,1.62.78,3.3,1.45,4.87,2.3,2.36,1.28,3.35,3.7,2.65,6.14-.7,2.45-2.85,4.13-5.51,3.69-2.41-.4-4.89-1.09-7.05-2.2-3.85-1.98-7.5-4.36-11.63-6.82-1.65,1.51-3.63,3.11-5.32,4.97-1.2,1.33-2.36,1.86-4.15,1.58-2.73-.43-5.49-.59-8.04.83,1.4.97,2.74,1.92,4.09,2.84.28.19.65.46.93.41,3.16-.59,3.44,1.27,3.86,3.78.35,2.11,1.78,4.04,2.76,6.11,1.43-1.93,1.47-4.25,1.02-6.65-.7-3.67-.24-4.3,3.56-4.23,10.81.22,21.02,2.92,30.75,7.56.56.27,1.11.55,1.68.81.11.05.26.02.64.03.18-1.18.29-2.41.59-3.59Zm-14.68-7.37c2.44.5,3.97-.28,4.59-2.08.66-1.91-.13-3.36-2.45-4.55-2.88-1.48-5.74-3.01-8.64-4.46-.45-.22-1.09-.4-1.52-.25-2.45.87-4.86,1.85-7.28,2.8-.03.28-.05.56-.08.84,5.18,2.48,9.54,6.51,15.38,7.71Zm41.91,20.97c1.15.37,2.44.43,3.66.4.44-.01,1.07-.63,1.23-1.1.11-.32-.34-1.09-.73-1.28-6.36-3.2-12.89-5.98-20-7.05-1.4-.21-1.56.06-2.55,2.86,6.13,2.07,12.25,4.17,18.4,6.17Zm-9.76-1.42c-1.38-.42-2.12-.65-2.89-.88-.73,1.26-1.4,2.42-2.07,3.58.13.14.26.29.38.43,1.36-.93,2.71-1.85,4.57-3.12Z"/>
      <path class="cls-2" d="m1953.24,373.14c-.73-1.27.66-2.66,2.34-2.46,4.43.52,7.79,2.67,9.65,6.83.93,2.08-.07,3.55-2.28,3.26-1.63-.21-3.22-.7-4.82-1.07-2.84-1.34-3.56-4.24-4.89-6.56Zm10.29,5.61c-1.01-3.55-4.29-5.95-8.28-6.06,2.02,4.78,3.99,6.23,8.28,6.06Z"/>
      <path class="cls-2" d="m1972.28,382.43c.73.83,1.03,1.45,1.48,1.59.42.13.99-.26,1.5-.41-.32-.45-.56-1.05-1-1.31-.34-.2-.93.04-1.97.13Z"/>
    </g>
    <g>
      <path class="cls-2" d="m1948.21,336.76c-.31.88-.5,1.55-.79,2.19-.96,2.14-2.58,3.47-4.92,3.82-.34.05-.71-.16-1.07-.25.13-.34.18-.75.42-.99.86-.88,1.39-1.84,1.36-3.13-.03-1.07.11-2.14.17-3.17-.51-.68-1.2-1.32-1.54-2.12-.45-1.06-.96-1.91-2.14-2.26-.82-.24-.82-.92-.13-1.16,1.02-.36,2.24-.75,3.22-.5,1.47.38,2.79,1.34,4.21,1.97.49.22,1.17.42,1.63.25,3.02-1.09,6.15-1.52,9.26-.93,3.15.59,6.25,1.51,9.3,2.5,3.11,1.01,6.02-.3,6.98-3.37.13-.41.46-.77.69-1.15.4.28.91.48,1.18.86,1.69,2.44,1.89,5.11.9,7.85-.88,2.46-.59,4.66.94,6.79,1.01,1.41,2.02,2.87,2.74,4.45,1.23,2.72,2.44,5.49,3.26,8.35.78,2.71.53,5.45-1.43,7.78-.18.22-.17.63-.18.95-.03,1.56-1.31,2.52-2.76,1.93-.75-.3-1.47-.78-2.05-1.35-1.08-1.06-2.08-2.23-3.06-3.39-.46-.54-.86-.55-1.56-.43-1.25.22-2.56.25-3.83.16-.39-.03-1-.68-1.02-1.08-.03-.39.5-.9.9-1.21.55-.43,1.21-.71,1.93-1.12-.49-.49-.81-.77-1.09-1.1-.81-.98-1.63-1.36-3.02-.92-2.23.7-4.42.15-6.32-1.2-.43-.3-.92-1.03-.82-1.42.12-.48.77-.95,1.3-1.17,1.11-.46,2.29-.76,3.73-1.22-4.38-6.6-9.72-11.56-16.4-15.21Zm18.86,12.45c.21-.23.61-.29.93-.42.01.35.16.77.02,1.04-1.07,1.97-2.79,3.18-4.87,3.92-.73.26-1.48.45-2.52.76,1.34,1,2.62,1.5,4.06,1.55,2.55.1,4.62-1.04,6.49-2.64.4-.34.71-.78,1.13-1.07.27-.19.66-.19,1-.27-.04.35-.01.72-.15,1.03-.14.3-.44.51-.51.59,3.02,3.31,5.99,6.57,9.01,9.88,1.01-.93,1.31-2.27,1.38-3.66.16-3.52-1.14-6.67-2.73-9.68-1.02-1.92-2.16-3.78-3.39-5.58-1.67-2.45-2.1-4.99-1.07-7.8.8-2.18.74-4.33-.4-6.33-.86.98-1.57,2.1-2.56,2.85-1.83,1.38-3.92,1.53-6.07.69-1.37-.54-2.76-1.02-4.14-1.53-.09.09-.18.18-.27.28.44.65.87,1.32,1.32,1.96.66.92,1.38,1.8,2,2.75.92,1.42.73,3.06-.39,4.19-1.13,1.14-2.83,1.42-4.16.37-1.21-.95-2.37-2.08-3.23-3.35-1.53-2.26-2.82-4.68-4.36-7.29-1.37.34-2.95.62-4.45,1.14-1.07.37-1.87.31-2.77-.38-1.38-1.06-2.85-1.99-4.69-1.98.48.96.93,1.89,1.4,2.81.1.19.22.45.39.51,1.92.63,1.52,1.75.99,3.26-.45,1.27-.24,2.77-.32,4.21,1.37-.63,2.1-1.9,2.58-3.37.73-2.24,1.17-2.45,3.25-1.26,5.91,3.39,10.73,7.98,14.7,13.49.23.32.45.64.68.96.05.06.14.09.34.21.46-.6.89-1.24,1.41-1.81Zm-5.88-8.52c1.2,1.02,2.28,1.05,3.17.24.94-.86.94-1.89.02-3.26-1.14-1.69-2.26-3.4-3.42-5.08-.18-.26-.48-.55-.76-.6-1.62-.26-3.25-.45-4.87-.66-.1.15-.2.29-.3.44,2.11,2.94,3.3,6.49,6.16,8.92Zm16.8,24.28c.52.55,1.22.97,1.9,1.33.25.13.78-.02,1.01-.23.16-.15.14-.7-.02-.93-2.55-3.7-5.31-7.21-8.92-9.96-.71-.54-.88-.44-2.28.81,2.76,3,5.5,6.02,8.3,8.98Zm-4.96-3.74c-.63-.65-.97-1-1.33-1.36-.78.47-1.5.91-2.23,1.35.03.12.06.24.08.35,1.03-.1,2.06-.2,3.47-.34Z"/>
      <path class="cls-2" d="m1971.18,344.6c-.02-.92,1.17-1.27,2.04-.65,2.29,1.63,3.49,3.84,3.26,6.7-.11,1.43-1.11,1.94-2.25,1.11-.84-.61-1.56-1.36-2.34-2.05-1.16-1.6-.68-3.42-.71-5.11Zm3.98,6.22c.52-2.27-.57-4.59-2.74-5.86-.33,3.26.32,4.65,2.74,5.86Z"/>
      <path class="cls-2" d="m1978.89,355.5c.15.68.13,1.11.33,1.33.19.2.63.16.95.22-.04-.35,0-.75-.16-1.03-.13-.21-.53-.26-1.13-.52Z"/>
    </g>
  </g>
  <polygon class="cls-10" points="93.02 404.42 84.36 407.57 79.15 411.28 73.95 413.14 68.7 415.4 68.7 418.14 121.56 419.43 127.11 417.06 119.24 413.07 107.33 405.24 96.56 403.13 93.02 404.42"/>
  <g>
    <path class="cls-2" d="m63.22,421.72c3.85-7.27,9.1-12.28,17.34-13.65,1.77-.29,3.4-1.39,5.36-2.23-1.55-1.98-2.7-3.36-3.76-4.8-7.29-9.95-10.81-21.13-10.74-33.43.01-1.95-.48-2.92-2.46-3.46-3.39-.92-6.68-2.18-10.23-3.36.36-1.15.67-2.15,1.04-3.31,10,3.32,19.8,6.58,29.94,9.95,1.12-4.41,2.23-8.74,3.45-13.53,1.44,1.76,2.62,3.21,3.94,4.81,2.5-2.66,4.58-4.86,6.65-7.07.24.12.49.24.73.37v7.58c1.59-.65,2.77-1.14,4.32-1.77-1.24,5.03-2.4,9.72-3.63,14.74,2.32.78,4.64,1.57,7.2,2.43,1.85-6.14,3.64-12.11,5.49-18.25-3.98-1.13-7.8-2.21-11.92-3.38.84-3.42,1.65-6.72,2.54-10.31,4.21,1.14,8.24,2.24,13.01,3.53.24-4.84.46-9.31.69-14.04,2.12.57,4.19,1.12,6.46,1.72.7-2.28,1.38-4.51,2.13-6.96,1.1.33,2.1.63,3.26.98-.65,2.37-1.25,4.54-1.9,6.93,2.16.68,4.29,1.36,6.44,2.04-2.19,4.2-6.38,7-7.24,12.06,3.93,1.12,7.75,2.2,11.84,3.37-.84,3.42-1.65,6.72-2.53,10.3-4.2-1.13-8.24-2.21-12.48-3.36-1.77,5.88-3.47,11.54-5.34,17.78,1.98-1.17,3.5-2.03,4.98-2.95,1.81-1.13,3.65-1.24,5.61-.43,8.25,3.42,16.52,6.8,24.77,10.23,2.97,1.24,3.99,2.99,3.83,6.27-.76,15.47-13.12,27.48-28.62,27.79-1,.02-1.99,0-3.29,0,.54,1.25.95,2.21,1.46,3.39H63.22Zm77.99-8.37c.54-.15.91-.22,1.26-.35,8.98-3.4,15.6-12.69,16.01-22.27.08-1.87-.51-2.85-2.25-3.54-6.63-2.64-13.34-5.11-19.76-8.21-4.09-1.97-7.42-2.06-10.91.9-2.17,1.84-4.6,1.75-7.29.82-10.6-3.65-21.25-7.13-31.89-10.67-3.7-1.23-7.41-2.47-11.28-3.76-.06.88-.14,1.49-.14,2.1.04,12.57,4.18,23.64,12.16,33.34,1.06,1.29,1.9,1.53,3.52.85,8.52-3.53,17.86-1.23,24.04,5.6.81.9,2.12,1.4,3.27,1.94,2.66,1.26,5.35,2.45,8.04,3.65,1.12.5,2.26.94,3.92,1.63-.82-4.38-4.83-2.91-6.53-5.02.34-1.05.6-2.2,1.09-3.25.71-1.52.29-2.39-1.14-3.19-1.8-1.02-3.45-2.28-5.58-3.71,2.65-.68,4.72-1.4,6.86-1.7,2.34-.32,3.33-1.5,3.66-3.74.28-1.89.91-3.74,1.51-6.13,1.97,2.05,3.67,3.67,5.18,5.45,1.03,1.21,2.07,1.38,3.51.95,2.13-.64,4.31-1.1,6.76-1.71-.37,1.49-.5,2.6-.92,3.58-1.53,3.6-1.06,6.6,2.36,8.87.21.14.28.48.28.48-1.57,2.75-6.48,2.35-5.73,7.07Zm-71.51,4.78h55.69c-2.41-2.82-5.23-4.18-8.49-4.61-1.87-.25-3.25-.9-4.52-2.46-6.86-8.36-18.54-8.85-26.4-1.38-.97.92-2.48,1.59-3.81,1.75-4.92.57-8.96,2.61-12.45,6.7Zm57.99-9.65c.92.33,1.63.67,2.37.83,1.44.32,2.2,1.12,2.64,2.58,1.03,3.43,1.12,3.4,5.01,2.22-.72-3.59-.15-6.76,4.66-8.17-4.14-2.02-2.66-4.81-1.96-8-3.75,2.05-6.51,1.05-8.73-2.31-.52,1.89-.56,3.51-1.36,4.51-.73.91-2.3,1.14-3.61,1.72.96.75,1.73,1.37,2.48,1.96-.51,1.57-.96,2.98-1.5,4.66Zm-17.5-57.55c9.34,2.6,18.51,5.14,27.85,7.74.33-1.28.6-2.3.93-3.54-9.36-2.6-18.54-5.15-27.93-7.76-.3,1.26-.54,2.29-.84,3.56Zm11.06,6.76c-1.87,6.25-3.66,12.22-5.5,18.37,1.2.42,2.21.77,3.44,1.21,1.87-6.24,3.7-12.34,5.57-18.6-1.26-.35-2.22-.62-3.51-.97Zm-27.98,10.91c2.92.97,5.64,1.87,8.55,2.83.59-2.41,1.12-4.56,1.7-6.91-1.02.25-1.68.41-2.63.64v-5.04c-1.33,1.25-2.33,2.18-3.31,3.1-.93-.82-1.67-1.46-2.57-2.26-.58,2.31-1.09,4.28-1.57,6.25-.09.37-.1.77-.17,1.38Zm32.36-31.48c-.46,4.67-.43,4.79,1.22,5.3,3.27,1.01,3.47.9,5.89-3.25-2.34-.68-4.63-1.34-7.11-2.05Zm-1.05,10.13c3.1,1.38,3.21,1.36,3.55-.7q-3.03-1.14-3.55.7Z"/>
    <path class="cls-2" d="m147.93,348.65c-3.79-.06-6.87-3.18-6.86-6.94,0-3.86,3.22-6.99,7.12-6.92,3.81.06,6.85,3.15,6.85,6.94,0,3.89-3.18,6.98-7.1,6.92Zm.04-3.47c1.85.06,3.47-1.5,3.52-3.37.05-1.88-1.48-3.5-3.34-3.55-1.86-.05-3.46,1.49-3.51,3.37-.04,1.89,1.46,3.5,3.33,3.55Z"/>
    <path class="cls-2" d="m95.89,341.7c-3.86.06-7.11-3.15-7.08-6.99.02-3.77,3.12-6.88,6.9-6.92,3.89-.04,7.08,3.1,7.06,6.98-.01,3.77-3.09,6.88-6.89,6.93Zm3.34-7.04c-.04-1.87-1.66-3.43-3.51-3.39-1.86.05-3.38,1.66-3.34,3.55.04,1.9,1.61,3.41,3.5,3.36,1.88-.04,3.39-1.63,3.35-3.52Z"/>
    <path class="cls-2" d="m80.13,348.65c-2.92,0-5.19-2.27-5.2-5.19,0-2.89,2.31-5.23,5.19-5.23,2.85,0,5.23,2.38,5.23,5.22,0,2.87-2.33,5.2-5.22,5.2Zm.11-2.82c.7-1.1,1.49-1.78,1.42-2.37-.07-.6-.98-1.1-1.52-1.65-.57.6-1.48,1.13-1.61,1.81-.09.49.86,1.18,1.7,2.21Z"/>
    <path class="cls-2" d="m149.89,362.64c2.88.04,5.19,2.42,5.15,5.29-.05,2.86-2.43,5.17-5.31,5.13-2.89-.04-5.15-2.38-5.11-5.29.04-2.91,2.37-5.17,5.27-5.12Zm2.26,5.09c-1.11-.74-1.8-1.56-2.37-1.48-.62.09-1.13,1-1.68,1.56.61.57,1.16,1.46,1.86,1.6.48.1,1.16-.85,2.19-1.68Z"/>
    <path class="cls-2" d="m95.9,348.47v-3.13h3.23v3.13h-3.23Z"/>
    <path class="cls-2" d="m88.8,381.8c0,2.89-2.35,5.24-5.21,5.23-2.82,0-5.22-2.42-5.21-5.26,0-2.86,2.37-5.21,5.24-5.2,2.91,0,5.19,2.31,5.18,5.23Zm-5.14-2.38c-.79,1.04-1.62,1.66-1.59,2.25.03.61.89,1.18,1.38,1.76.62-.55,1.57-1.02,1.75-1.69.13-.47-.78-1.23-1.54-2.32Z"/>
    <path class="cls-2" d="m97.58,390.47c-2.9.02-5.21-2.27-5.22-5.18-.02-2.92,2.26-5.23,5.16-5.24,2.89-.01,5.24,2.31,5.26,5.17.02,2.86-2.33,5.22-5.2,5.24Zm2.32-5.18c-1.06-.8-1.7-1.65-2.27-1.61-.63.05-1.19.92-1.78,1.44.58.61,1.07,1.53,1.76,1.72.46.13,1.22-.78,2.3-1.55Z"/>
    <path class="cls-2" d="m88.91,414.81v-3.28h10.23v3.28h-10.23Z"/>
    <path class="cls-2" d="m102.96,411.53h6.7v3.23h-6.7v-3.23Z"/>
  </g>
</svg>