<?xml version="1.0" encoding="UTF-8"?>
<svg id="Layer_1" data-name="Layer 1" xmlns="http://www.w3.org/2000/svg" viewBox="0 0 400 200">
  <defs>
    <style>
      .cls-1 {
        fill: #8b5e3c;
      }

      .cls-1, .cls-2, .cls-3, .cls-4, .cls-5, .cls-6, .cls-7 {
        stroke-width: 0px;
      }

      .cls-2 {
        fill: #4b2e83;
      }

      .cls-3 {
        fill: #2ad2c9;
      }

      .cls-4 {
        fill: #aadb1e;
      }

      .cls-5 {
        fill: #ffd3a9;
      }

      .cls-6 {
        fill: #c49a6c;
      }

      .cls-7 {
        fill: #ffc700;
      }
    </style>
  </defs>
  <path class="cls-4" d="m394.75,197.31c-10.03-1.51-16.16-2.13-21.17-1.51-5.01.62-7.92,0-12.87,0s-32.33.42-43.44,0c-11.1-.42-30.57.07-47.58,0s-40.21-.49-50.43-.24c-10.22.24-20.06-.35-22.28-.69s-8.36-1.73-16.71,0c-8.36,1.73-16.16,2.07-20.06,2.76s-5.57,2.98-5.57,2.98h250.7s-10.59-3.29-10.59-3.29Z"/>
  <path class="cls-4" d="m191.56,191.52c-8-3.89-12.89-5.49-16.89-3.89s-6.32,0-10.27,0-25.79,1.07-34.65,0c-8.86-1.07-24.39.18-37.96,0s-32.08-1.25-40.23-.63-16-.89-17.78-1.78-6.67-4.44-13.33,0-12.89,5.33-16,7.11S0,200,0,200h200s-8.44-8.48-8.44-8.48Z"/>
  <g>
    <path class="cls-2" d="m229.06,103.07c0,7.43,0,14.39,0,21.57-9.02,0-17.84,0-26.93,0,0-5.19-.38-10.34.13-15.4.36-3.62,3.19-5.96,6.89-6.1,6.5-.24,13.02-.07,19.91-.07Zm-21.49,16.09c5.44,0,10.65,0,15.93,0,0-3.62,0-6.99,0-10.72-2.27,0-4.33-.03-6.39,0-10.08.15-10.15-1.92-9.54,10.72Z"/>
    <path class="cls-2" d="m256.41,103.28c0,7.04,0,14.02,0,21.28-7.15,0-14.21,0-21.48,0,0-7.05,0-14.02,0-21.28,7.1,0,14.18,0,21.48,0Zm-15.97,5.31c0,3.82,0,7.2,0,10.53,3.68,0,7.06,0,10.37,0,0-3.67,0-7.05,0-10.53-3.57,0-6.86,0-10.37,0Z"/>
    <path class="cls-2" d="m262.33,103.16c7.21,0,14.2,0,21.44,0,0,7.12,0,14.09,0,21.37-7.1,0-14.15,0-21.44,0,0-6.98,0-13.96,0-21.37Zm15.94,5.47c-3.71,0-6.99,0-10.4,0,0,3.66,0,7.12,0,10.58,3.62,0,6.91,0,10.4,0,0-3.57,0-6.95,0-10.58Z"/>
    <path class="cls-2" d="m223.88,135.64c0-1.87,0-3.31,0-5.01,19.94,0,39.73,0,59.83,0,0,1.6,0,3.22,0,5.01-19.94,0-39.74,0-59.83,0Z"/>
    <path class="cls-2" d="m316.76,141.55c0,1.84,0,3.28,0,4.99-1.74,0-3.36,0-5.2,0,0-1.63,0-3.17,0-4.99,1.69,0,3.32,0,5.2,0Z"/>
    <path class="cls-2" d="m229.28,176.43c.25-4.54,4.1-7.98,8.63-7.72,4.5.26,8.06,4.23,7.77,8.64-.3,4.46-4.32,8.05-8.69,7.77-4.51-.3-7.96-4.19-7.71-8.69Zm11.89.65c-1.65-1.31-2.73-2.79-3.49-2.64-1.09.22-1.94,1.61-2.89,2.51.87.85,1.67,2.26,2.63,2.39.9.12,1.98-1.13,3.74-2.26Z"/>
    <path class="cls-2" d="m207.34,91.85c0-5.02-.03-9.94,0-14.87.04-4.98,1.93-6.9,6.98-6.92,11.84-.06,23.67-.05,35.51-.07.23,0,.47-.11,1.26-.31,0-1.27-.04-2.69,0-4.11.13-4.43,2.1-6.39,6.75-6.41,11.71-.06,23.43-.02,35.14-.02,7.4,0,14.8-.03,22.2.01,5.3.03,7.06,1.83,7.08,7.15.03,7.89.09,15.79-.04,23.68-.04,2.23.67,3.12,2.83,3.86,15.23,5.19,24.47,18.1,24.58,34.18.08,11.46.01,22.93.01,34.82,6.09,1.21,5.79,5.95,5.56,10.63-.2,4.12-2.13,6.06-6.28,6.12-6.04.08-12.09.08-18.13,0-2.05-.03-3.19.3-3.91,2.68-2.6,8.6-9.91,13.87-18.45,13.78-8.43-.09-15.38-5.39-18.26-13.7-.38-1.09-1.72-2.6-2.64-2.62-10.22-.19-20.45-.12-30.87-.12-2.75,10.06-8.8,16.5-19.58,16.32-10.41-.17-16.27-6.51-18.93-16.33-8.63,0-17.13-.06-25.63.03-3.44.03-6.48-.78-6.95-4.54-.78-6.25-.7-9.93,3.32-11.39,2.1-.77,2.01-2.08,2-3.7-.01-14.92,0-29.84,0-44.76,0-13.63,3.44-18.62,16.41-23.39Zm136.74,55.2c-8.71-.81-10.84-3.13-10.84-11.48,0-7.64-.04-15.29.03-22.93.01-1.57.05-3.36.78-4.66,1.16-2.05.05-2.9-1.26-3.93-5.75-4.51-12.32-6.59-19.59-6.59-14.79,0-29.59,0-44.38,0-19.23,0-38.47-.04-57.7.02-7.77.02-13.79,4.48-14.42,11.56-.61,6.93-.13,13.95-.13,21.4,7.31,0,14.38,0,21.53,0,0,2,0,3.53,0,5.47-7.32,0-14.4,0-21.49,0,0,1.98,0,3.52,0,5.12.96.09,1.69.2,2.42.22,7.06.21,8.33,1.51,8.34,8.57,0,4.39,0,8.78,0,13.06h5.06c.13-.52.24-.75.25-.99.03-4.31.04-8.63.06-12.94.03-5.94,1.75-7.67,7.75-7.68,18.62-.02,37.23-.02,55.85,0,6.03,0,7.65,1.65,7.68,7.72.02,4.63,0,9.26,0,13.91,2.11,0,3.63,0,5.54,0,0-20.03,0-39.82,0-59.91,6.03,0,11.68-.02,17.32,0,13.11.05,20.94,7.84,20.98,20.94.04,11.71,0,23.42,0,35.14,0,1.31,0,2.62,0,3.94,2.12,0,3.69,0,4.49,0,1.2-3.04,1.61-6.31,3.45-8.11,1.97-1.93,5.29-2.49,8.27-3.75v-4.11Zm-22.11,15.8c0-9.23,0-17.98,0-26.81-9.07,0-17.86,0-26.8,0,0,8.97,0,17.71,0,26.92,8.96-6.88,17.66-6.95,26.8-.11Zm-26.8-54.15c0,7.2,0,14.25,0,21.47,9.05,0,17.84,0,27.05,0,0-2.99.1-5.79-.02-8.57-.27-6.52-4.69-12.02-11.15-12.77-5.17-.61-10.47-.12-15.88-.12Zm-16.92,54.37c0-5.52,0-10.72,0-16.02-3.6,0-6.97,0-10.55,0-.12,1.74-.23,3.28-.34,4.87-1.88,0-3.49,0-5.08,0-.17-1.84-.3-3.38-.44-4.83-3.71,0-7.08,0-10.43,0,0,5.48,0,10.68,0,15.98,9,0,17.72,0,26.83,0Zm-27.17,13.85c0-7.53-6.11-13.68-13.61-13.69-7.48,0-13.68,6.18-13.69,13.65-.01,7.5,6.14,13.65,13.65,13.66,7.55,0,13.65-6.07,13.66-13.62Zm71.15.15c.08-7.59-5.9-13.75-13.42-13.84-7.47-.1-13.73,6-13.86,13.49-.13,7.45,6.01,13.72,13.51,13.81,7.58.09,13.7-5.89,13.78-13.46Zm-103.67-13.04c3.07-1.11,5.77-1.62,7.97-2.97,4.89-2.99,9.98-3.99,15.54-2.76,1.11.25,2.19.63,3.37.98,0-4.4,0-8.28,0-12.24-3.63,0-7.01,0-10.48,0-.16,1.76-.29,3.3-.44,5.01-1.74,0-3.29,0-5.04,0-.17-1.7-.34-3.26-.52-5.02-3.44,0-6.82,0-10.4,0,0,5.3,0,10.42,0,17Zm87.6-99.22c0,5.58,0,10.8,0,16.03,1.82.15,3.36.29,5.32.45,0,3.59,0,6.99,0,10.55,1.96,0,3.48,0,5.12,0,0-9.08,0-17.99,0-27.03-3.55,0-6.85,0-10.43,0Zm-6.03,16.01c0-5.54,0-10.74,0-15.86-3.69,0-7.06,0-10.42,0,0,9.1,0,17.9,0,26.84,1.73,0,3.25,0,5.17,0,0-3.59,0-6.98,0-10.52,1.93-.17,3.49-.3,5.25-.45Zm-16.49,11.01c0-9.12,0-18.01,0-26.95-3.59,0-6.86,0-10.29,0,0,5.42,0,10.64,0,15.94,1.77.16,3.31.3,5.2.47,0,3.59,0,6.99,0,10.55,1.81,0,3.24,0,5.08,0Zm-26.64-26.95c0,9.18,0,18.08,0,26.95,1.8,0,3.23,0,5.17,0,0-3.65,0-7.14,0-10.58,2.04-.2,3.58-.35,5.12-.5,0-5.43,0-10.55,0-15.88-3.47,0-6.74,0-10.29,0Zm-33.13,26.97c0-3.74,0-7.21,0-10.61,2.04-.19,3.59-.33,5.14-.48,0-1.76,0-3.2,0-4.87-5.39,0-10.59,0-15.99,0,0,5.39,0,10.59,0,15.96,3.52,0,6.8,0,10.85,0Zm26.94.03c0-5.59,0-10.8,0-15.92-5.5,0-10.71,0-15.78,0,0,1.84,0,3.37,0,4.86,1.83.17,3.37.32,5.27.49,0,3.66,0,7.05,0,10.56,3.68,0,6.96,0,10.51,0Zm40.18,77.12c-12.18,0-23.91,0-35.88,0,.53,1.85.96,3.37,1.42,4.99,10.99,0,21.91,0,32.94,0,.5-1.63.96-3.14,1.52-4.99Zm-99.73-.11c0,1.97,0,3.48,0,5.08,9.2,0,18.12,0,27.08,0,.51-1.73.97-3.3,1.49-5.08-9.78,0-19.07,0-28.57,0Zm152.91-28.01c-.16-10.02,1.57-20.24-5.37-30.1,0,9.77-.1,18.56.05,27.35.06,3.37,2.51,3.33,5.32,2.75Zm5.29,28.09c-7.89,0-15.35,0-23.78,0,1.31,2.12,2.17,4.9,3.2,4.96,6.83.39,13.69.2,20.58.2,0-2,0-3.44,0-5.16Zm-147.95-5.96c0-5.59,0-10.78,0-15.93-1.84,0-3.35,0-4.86,0,0,5.48,0,10.68,0,15.93,1.72,0,3.16,0,4.86,0Zm71.35-71.21c0-1.73,0-3.25,0-4.91-1.82,0-3.44,0-5.05,0,0,1.84,0,3.36,0,4.91,1.81,0,3.35,0,5.05,0Zm-38.32-4.93c-1.79,0-3.4,0-5.01,0,0,1.82,0,3.34,0,4.93,1.78,0,3.31,0,5.01,0,0-1.74,0-3.27,0-4.93Zm66.1,4.92c1.91,0,3.42,0,5.03,0,0-1.75,0-3.26,0-4.88-1.78,0-3.37,0-5.03,0,0,1.74,0,3.17,0,4.88Zm43.4,65.65c-1.79.61-3.37.92-4.66,1.7-.43.26-.46,2.3-.04,2.58,1.25.84,2.82,1.22,4.7,1.95,0-2.37,0-3.9,0-6.24Z"/>
    <path class="cls-2" d="m300.48,176.76c.06-4.56,3.74-8.13,8.3-8.06,4.51.07,8.17,3.84,8.09,8.32-.08,4.45-3.94,8.2-8.35,8.11-4.5-.09-8.09-3.83-8.03-8.38Zm11.9-.09c-1.8-1.14-2.9-2.39-3.79-2.26-.98.15-1.76,1.57-2.63,2.44.97.87,1.85,2.24,2.95,2.45.76.15,1.82-1.31,3.47-2.64Z"/>
  </g>
  <g>
    <path class="cls-2" d="m189.92,178.98c0,3.43.03,6.87,0,10.3-.03,3.02-1.41,4.69-4.44,4.74-7.3.13-14.61.14-21.92,0-3.47-.07-4.92-1.88-4.93-5.45,0-6.25-.02-12.5,0-18.75.04-8.8,7.08-15.83,15.76-15.77,8.62.06,15.44,6.94,15.52,15.69.03,3.08,0,6.16,0,9.24Zm-8.77,6.12c0-5.57.16-10.84-.05-16.1-.15-3.72-3.23-6.4-6.79-6.41-3.27-.01-6.52,2.41-6.66,5.59-.25,5.59-.07,11.19-.07,16.92h13.57Z"/>
    <path class="cls-2" d="m96.51,194.09c-3.43,0-6.87.06-10.3-.01-3.75-.07-5.26-1.63-5.27-5.35-.02-6.25-.03-12.5,0-18.75.05-8.87,6.97-15.89,15.65-15.92,8.73-.03,15.58,6.84,15.67,15.8.06,6.25.03,12.5,0,18.75,0,3.7-1.5,5.33-5.2,5.45-3.52.11-7.04.02-10.56.03Zm7.03-8.97c0-5.51.11-10.7-.04-15.88-.11-3.71-3.03-6.48-6.61-6.64-3.21-.14-6.71,2.24-6.88,5.36-.29,5.67-.08,11.37-.08,17.16h13.61Z"/>
    <path class="cls-2" d="m135.38,194.09c-3.43,0-6.87.06-10.3-.02-3.78-.08-5.23-1.6-5.24-5.36-.02-6.25-.05-12.5,0-18.75.07-8.95,6.92-15.89,15.6-15.91,8.83-.01,15.68,6.98,15.72,16.09.03,6.25.02,12.5,0,18.75-.01,3.38-1.54,5.04-4.96,5.15-3.61.12-7.22.03-10.83.03h0Zm6.91-8.98c0-5.5.07-10.69-.02-15.88-.06-3.61-2.73-6.3-6.29-6.62-3.36-.31-6.98,2.14-7.19,5.61-.34,5.58-.09,11.2-.09,16.89h13.6Z"/>
    <path class="cls-2" d="m159.05,136.05c0-8.41,6.87-15.32,15.24-15.31,8.36,0,15.26,6.94,15.26,15.32,0,8.39-6.9,15.3-15.27,15.3-8.39,0-15.23-6.89-15.23-15.31Zm15.17,6.86c3.75.03,6.93-3.11,6.93-6.85,0-3.73-3.21-6.9-6.93-6.87-3.66.03-6.68,3.05-6.75,6.73-.06,3.82,2.97,6.95,6.74,6.99Z"/>
    <path class="cls-2" d="m81.39,136c.02-8.37,6.99-15.31,15.33-15.26,8.34.05,15.22,6.99,15.26,15.4.04,8.33-6.94,15.24-15.36,15.22-8.36-.02-15.24-6.96-15.22-15.35Zm15.3,6.9c3.75-.03,6.92-3.24,6.85-6.96-.07-3.77-3.28-6.85-7.05-6.75-3.69.09-6.64,3.12-6.66,6.83-.02,3.82,3.06,6.91,6.85,6.89Z"/>
    <path class="cls-2" d="m150.73,136.12c-.03,8.37-6.98,15.27-15.33,15.23-8.31-.04-15.31-7.09-15.26-15.37.06-8.32,7.09-15.28,15.39-15.24,8.35.04,15.23,7,15.2,15.38Zm-15.12-6.93c-3.72-.08-6.98,3.07-7.03,6.79-.05,3.61,2.98,6.78,6.61,6.93,3.79.15,7-2.85,7.1-6.63.1-3.82-2.89-6.99-6.67-7.08Z"/>
    <path class="cls-7" d="m181.15,185.1h-13.57c0-5.73-.18-11.33.07-16.92.14-3.18,3.39-5.61,6.66-5.59,3.56.02,6.64,2.69,6.79,6.41.21,5.26.05,10.53.05,16.1Z"/>
    <path class="cls-4" d="m103.54,185.11h-13.61c0-5.79-.21-11.49.08-17.16.16-3.12,3.66-5.5,6.88-5.36,3.58.16,6.51,2.92,6.61,6.64.15,5.18.04,10.37.04,15.88Z"/>
    <path class="cls-3" d="m142.29,185.11h-13.6c0-5.69-.25-11.31.09-16.89.21-3.47,3.83-5.92,7.19-5.61,3.56.32,6.23,3.01,6.29,6.62.09,5.19.02,10.38.02,15.88Z"/>
    <path class="cls-1" d="m174.23,142.9c-3.78-.03-6.81-3.17-6.74-6.99.06-3.68,3.09-6.7,6.75-6.73,3.73-.04,6.93,3.14,6.93,6.87,0,3.74-3.18,6.88-6.93,6.85Z"/>
    <path class="cls-5" d="m96.69,142.9c-3.79.03-6.87-3.06-6.85-6.89.02-3.7,2.97-6.74,6.66-6.83,3.76-.1,6.98,2.99,7.05,6.75.07,3.72-3.1,6.93-6.85,6.96Z"/>
    <path class="cls-6" d="m135.61,129.18c3.78.08,6.77,3.26,6.67,7.08-.1,3.79-3.3,6.78-7.1,6.63-3.63-.14-6.66-3.32-6.61-6.93.05-3.72,3.32-6.87,7.03-6.79Z"/>
  </g>
</svg>