<?xml version="1.0" encoding="UTF-8"?>
<svg id="Layer_1" data-name="Layer 1" xmlns="http://www.w3.org/2000/svg" xmlns:xlink="http://www.w3.org/1999/xlink" viewBox="0 0 400 200">
  <defs>
    <style>
      .cls-1, .cls-2, .cls-3, .cls-4 {
        stroke-width: 0px;
      }

      .cls-1, .cls-5, .cls-6 {
        fill: #4b2e83;
      }

      .cls-2 {
        fill: none;
      }

      .cls-5 {
        font-size: 8px;
        letter-spacing: -.1em;
      }

      .cls-5, .cls-7, .cls-8 {
        font-family: Consolas, Consolas;
      }

      .cls-7 {
        letter-spacing: -.05em;
      }

      .cls-7, .cls-8 {
        fill: #fff;
        font-size: 9px;
      }

      .cls-9 {
        clip-path: url(#clippath);
      }

      .cls-6 {
        stroke: #4b2e83;
        stroke-linecap: round;
        stroke-miterlimit: 10;
        stroke-width: 4px;
      }

      .cls-3 {
        fill: #aadb1e;
      }

      .cls-8 {
        letter-spacing: -.05em;
      }

      .cls-4 {
        fill: #ffc700;
      }
    </style>
    <clipPath id="clippath">
      <rect class="cls-2" y="-300" width="400" height="200"/>
    </clipPath>
  </defs>
  <path class="cls-3" d="m191.56,191.52c-8-3.89-12.89-5.49-16.89-3.89s-6.32,0-10.27,0-25.79,1.07-34.65,0c-8.86-1.07-24.39.18-37.96,0s-32.08-1.25-40.23-.63-16-.89-17.78-1.78-6.67-4.44-13.33,0-12.89,5.33-16,7.11S0,200,0,200h200s-8.44-8.48-8.44-8.48Z"/>
  <path class="cls-3" d="m16.89,191.52c16-3.89,25.78-5.49,33.78-3.89s12.64,0,20.54,0,51.59,1.07,69.3,0,48.78.18,75.91,0,64.16-1.25,80.47-.63,32-.89,35.56-1.78,13.33-4.44,26.67,0,25.78,5.33,32,7.11,8.89,7.67,8.89,7.67H0l16.89-8.48Z"/>
  <g class="cls-9">
    <path class="cls-3" d="m-230.89-5.14s14.56-32.06,114.67-27.65c7.94.35,75.19-14.4,102.45-39.32,23.03-21.05,22-71.34,33.38-87.11,11.38-15.77,39.2-6.74,45.96-30.37,5.35-18.68,26.27-15.22,35.27-17.1,14.35-2.99,15.4-19.91,28.47-23.41s56.91-17.52,72.85,0c15.94,17.52,4.55,30.2,27.32,40.51,22.76,10.31,21.6-15.14,46.55-3.19,24.95,11.95,47.98,18.67,65.76,57.56,17.99,39.35,24.97,14.77,54.22,24,29.25,9.23,113.47,84.42,140.79,88.79,27.32,4.37,25.2,6.76,55.57,17.28,30.36,10.52,28.49,17.22,52.13,19.73,23.64,2.52,37.12,9.05,74.4,6.37,36.84-2.65,71.51,27.18,91.16,25.29,19.65-1.89,136.55,13.84,136.55,13.84l-1282.4,9.09L-230.89-5.14Z"/>
  </g>
  <g>
    <path class="cls-4" d="m231.05,127.43c-4.06,0-7.12,0-11.3,0,0-6.83-.3-13.59.25-20.32.11-1.39,3.42-2.66,5.25-3.98,1.93,1.44,5.38,2.8,5.53,4.33.63,6.4.26,12.86.26,19.98Z"/>
    <path class="cls-1" d="m166.12,171.21c0-1.27,0-2.26,0-3.25,0-11.46-.13-22.92.06-34.37.07-4.41-.74-8.43-2.35-12.52-1.11-2.8-1.57-5.96-1.78-8.99-.29-4.2-.02-8.43-.09-12.64-.03-2.22.66-3.38,3.13-3.47.98-.04,2.29-.97,2.81-1.87,3.28-5.72,6.32-11.57,9.57-17.31.67-1.18,1.86-2.07,2.81-3.1.97.99,2.21,1.83,2.88,2.99,3.25,5.73,6.38,11.54,9.49,17.36.7,1.3,1.35,2.28,3.1,2.06,2.09-.26,3.01.85,2.95,2.94-.06,2.27-.01,4.54-.01,6.98,2.78,0,5.29,0,7.97,0,0-3.93,0-7.74,0-12.01-1.16,0-2.31.06-3.45-.01-2.31-.16-3.06-1.53-1.86-3.52.99-1.64,2.15-3.19,3.24-4.77,5.96-8.69,11.92-17.38,17.9-26.05,2.08-3.02,3.19-3.02,5.26-.02,6.71,9.73,13.43,19.45,20.04,29.25.79,1.16.95,2.75,1.41,4.14-1.35.33-2.7.68-4.06.99-.43.1-.89.1-1.52.16,0,3.95,0,7.83,0,11.86,2.58,0,5.03,0,7.94,0,0-2.31.05-4.65-.01-6.99-.05-2.08.85-3.2,2.94-2.94,1.74.21,2.4-.75,3.1-2.05,3.24-6.05,6.52-12.09,9.89-18.07.52-.93,1.64-2.14,2.45-2.12.84.02,1.89,1.25,2.42,2.2,3.37,5.99,6.65,12.02,9.88,18.08.73,1.37,1.51,2.14,3.16,1.97,2.18-.23,2.88,1.06,2.87,3.05-.03,5.41.07,10.82-.06,16.22-.03,1.41-.48,2.91-1.11,4.18-2.45,4.97-3.18,10.14-3.05,15.67.26,10.9.08,21.81.08,32.72,0,1,0,1.99,0,3.06.5.15.82.32,1.16.34q4.95.29,4.95,5.37c0,2.75-.03,5.5,0,8.25.02,1.84-.86,2.7-2.68,2.67-.64-.01-1.28,0-1.92,0-40.33,0-80.66,0-121,0-4.57,0-4.6-.04-4.61-4.6,0-2.57,0-5.13,0-7.7.02-3.71.19-3.88,3.85-3.96.63-.01,1.26-.08,2.27-.15Zm28.7-42.6c0,2.15,0,4,0,6.08,1.94,0,3.71-.23,5.37.09.91.17,1.64,1.27,2.45,1.95-.8.7-1.52,1.83-2.41,2-1.75.32-3.59.09-5.38.09,0,11.02,0,21.67,0,32.39,4.69,0,9.14,0,13.93,0,0-1.13,0-2.11,0-3.09,0-5.59-.09-11.18.03-16.77.2-9.59,7.36-16.76,16.49-16.65,9,.1,15.98,7.3,16.12,16.77.09,5.59,0,11.18.02,16.77,0,.97.09,1.94.15,2.99,4.73,0,9.18,0,13.77,0,0-2.71,0-5.28,0-8.01-1.34,0-2.51.25-3.5-.07-.87-.29-1.54-1.21-2.29-1.85.78-.71,1.46-1.72,2.37-2.04,1.03-.36,2.29-.08,3.5-.08,0-10.35,0-20.3,0-30.56-4.44,0-8.73-.06-13.01.02-2.24.04-3.2-.89-3.09-3.12.08-1.61.02-3.22.02-4.9-2.18,0-3.97,0-6.08,0,0,1.87,0,3.58,0,5.3,0,1.8-.82,2.71-2.67,2.7-3.67-.02-7.33-.02-11,0-1.84.01-2.69-.88-2.69-2.69,0-1.72,0-3.44,0-5.27-2.16,0-4.02,0-6.07,0,0,1.56,0,2.93,0,4.29-.02,3.33-.32,3.65-3.6,3.66-4.1.02-8.2,0-12.43,0Zm-30.64,54.72c40.75,0,81.29,0,121.75,0,0-2.73,0-5.24,0-7.75-40.69,0-81.16,0-121.75,0,0,2.62,0,5.07,0,7.75Zm69.1-66.92c2.66,0,4.94.05,7.21-.02,2.13-.07,3,.92,2.92,2.99-.07,1.62-.01,3.24-.01,4.95,3.82,0,7.3,0,10.51,0-1.06-4.7-2.09-9.24-3.17-13.99-2.38,0-5.13-.1-7.86.03-2.59.12-3.65-.88-3.56-3.53.14-4.18.04-8.36.04-12.68-9.61,0-18.9,0-28.5,0,0,4.42-.07,8.7.03,12.97.06,2.39-.97,3.3-3.29,3.23-2.89-.09-5.79-.02-8.08-.02-1.15,5.01-2.19,9.53-3.24,14.06,3.35,0,6.79,0,10.55,0,0-1.69.08-3.23-.02-4.75-.15-2.34.83-3.38,3.21-3.26,2.25.11,4.5.02,6.92.02,0-2.79-.06-5.16.01-7.54.15-4.86,3.76-8.73,8.1-8.77,4.66-.05,8.11,3.61,8.23,8.79.06,2.37,0,4.74,0,7.52Zm46.63,12.41c-6.79,0-13.41,0-19.98,0,0,14.25,0,28.3,0,42.38,6.75,0,13.3,0,19.98,0,0-14.14,0-28.12,0-42.38Zm-89.67,42.4c0-14.26,0-28.36,0-42.41-6.79,0-13.33,0-19.9,0,0,14.24,0,28.28,0,42.41,6.74,0,13.29,0,19.9,0Zm16.5-81.45c12.49,0,24.4,0,36.74,0-6.2-9.01-12.17-17.69-18.37-26.72-6.21,9.03-12.18,17.71-18.37,26.72Zm-40.37,10.49c0,4.75,0,9.33,0,13.92,9.44,0,18.64,0,27.95,0,0-4.74,0-9.32,0-13.91-2.67,0-5.1,0-7.84,0,0,1.87,0,3.59,0,5.3,0,1.77-.83,2.72-2.68,2.69-2.19-.03-4.39-.07-6.58.01-2.09.08-3.06-.83-3.01-2.91.03-1.7,0-3.39,0-5.1-2.89,0-5.32,0-7.84,0Zm89.41,13.89c9.49,0,18.76,0,28.12,0,0-4.7,0-9.22,0-13.86-2.67,0-5.17,0-7.9,0,0,1.82-.03,3.45,0,5.08.05,2.09-.93,2.99-3.02,2.9-2.1-.08-4.21-.08-6.31,0-2.13.07-3-.95-2.96-2.99.04-1.62,0-3.24,0-5-2.82,0-5.32,0-7.94,0,0,4.64,0,9.1,0,13.87Zm-32.93,25.04c-7.37,1.52-11.24,8.01-9.5,15.85,1.04,0,2.22-.27,3.18.08.93.34,1.64,1.31,2.45,2-.82.68-1.54,1.64-2.49,1.98-.96.34-2.14.08-3.39.08,0,4.12,0,8,0,12.04,3.28,0,6.43,0,9.75,0,0-10.7,0-21.27,0-32.02Zm4.51-.01c0,10.74,0,21.31,0,32.03,3.31,0,6.45,0,9.76,0,0-4.02,0-7.89,0-11.89-.95-.05-1.76-.11-2.56-.12-1.52-.02-3.21-.06-3.26-2.04-.04-1.99,1.59-2.13,3.15-2.13.88,0,1.76-.09,2.59-.14,1.01-8.61-2.34-14.1-9.68-15.71Zm-47.02-59.19c-3.01,5.53-5.79,10.64-8.75,16.07,1.42,0,2.33.07,3.23-.01,2.61-.24,3.74.88,3.54,3.51-.12,1.5-.02,3.02-.02,4.5,1.54,0,2.6,0,3.81,0,.14-2.31-.46-5.01.61-6.48,1.01-1.39,3.8-1.48,5.96-2.2-2.64-4.84-5.38-9.88-8.38-15.38Zm97.95,15.43c-2.65-4.86-5.43-9.96-8.4-15.42-2.96,5.43-5.74,10.53-8.76,16.06,1.36,0,2.24,0,3.11,0,3.23.03,3.62.42,3.66,3.64.02,1.43,0,2.86,0,4.31h3.83c.14-2.38-.45-5.06.62-6.58.94-1.33,3.73-1.35,5.93-2.01Zm-49.25,28.98c0-5.72.12-11.29-.06-16.85-.07-2.07-1.69-3.21-3.78-3.26-2.1-.04-3.82,1.06-3.9,3.1-.22,5.63-.08,11.27-.08,17,2.73,0,5.16,0,7.82,0Zm-61.86-5.78c.68,1.7,1.04,3.15,1.81,4.34.48.74,1.56,1.51,2.38,1.53,6.03.13,12.06.1,18.09.03.69,0,1.71-.4,1.99-.93.8-1.49,1.29-3.14,1.99-4.97-8.85,0-17.32,0-26.26,0Zm89.55,0c.72,1.81,1.15,3.31,1.9,4.62.36.62,1.33,1.25,2.03,1.26,6.21.1,12.42.08,18.64.01.59,0,1.47-.44,1.72-.93.77-1.52,1.29-3.16,2-4.97-8.81,0-17.28,0-26.28,0Z"/>
    <path class="cls-1" d="m263.73,148.63c0-1.83-.06-3.67.01-5.49.16-3.77,2.72-6.38,6.17-6.36,3.38.02,5.92,2.49,6.04,6.17.13,3.84.04,7.69.03,11.54,0,1.81-.91,2.68-2.73,2.66-2.29-.02-4.58-.01-6.87,0-1.84,0-2.66-.97-2.66-2.74,0-1.92,0-3.85,0-5.77Zm8.11,4.25c0-3.47.11-6.82-.09-10.16-.04-.65-1.2-1.58-1.96-1.71-.5-.09-1.71.99-1.74,1.59-.17,3.41-.08,6.83-.08,10.28,1.47,0,2.53,0,3.88,0Z"/>
    <path class="cls-1" d="m186.48,148.91c0,1.74-.03,3.48,0,5.22.05,2.04-.85,3.07-2.96,3.02-2.2-.05-4.4-.03-6.59,0-1.82.02-2.72-.85-2.72-2.66,0-3.94-.1-7.88.06-11.81.14-3.48,2.74-5.87,6.02-5.89,3.25-.02,5.88,2.38,6.13,5.81.15,2.09.03,4.21.03,6.32,0,0,.02,0,.03,0Zm-4.19,3.97c0-3.52.13-6.7-.09-9.86-.05-.75-1.26-1.43-1.93-2.14-.64.65-1.79,1.28-1.83,1.97-.19,3.32-.09,6.66-.09,10.03,1.46,0,2.53,0,3.94,0Z"/>
    <path class="cls-1" d="m225.09,85.85c-1.28,0-2.62.24-3.81-.08-.85-.23-1.5-1.22-2.23-1.87.7-.69,1.35-1.91,2.1-1.98,2.62-.25,5.3-.25,7.92,0,.75.07,1.39,1.3,2.08,2-.74.64-1.4,1.62-2.25,1.85-1.19.32-2.53.08-3.81.08Z"/>
    <path class="cls-1" d="m224.38,77.78c-.07,0-1.02.17-1.68-.19-.68-.37-1.49-1.27-1.47-1.92.02-.66.87-1.67,1.55-1.85,1.2-.32,2.6-.4,3.79-.09.94.25,1.69,1.24,2.52,1.89-.86.72-1.69,1.5-2.62,2.13-.31.21-.89.03-2.1.03Z"/>
    <path class="cls-4" d="m271.84,152.88c-1.35,0-2.42,0-3.88,0,0-3.44-.09-6.86.08-10.28.03-.6,1.24-1.68,1.74-1.59.76.13,1.93,1.06,1.96,1.71.2,3.33.09,6.69.09,10.16Z"/>
    <path class="cls-4" d="m182.3,152.88c-1.42,0-2.49,0-3.94,0,0-3.37-.11-6.71.09-10.03.04-.69,1.19-1.31,1.83-1.97.67.71,1.88,1.38,1.93,2.14.22,3.16.09,6.35.09,9.86Z"/>
  </g>
  <line class="cls-6" x1="225.34" y1="15.18" x2="225.34" y2="61.13"/>
  <path class="cls-1" d="m302.78,32.03c-27.47-4.93-54.94,4.11-82.41-.82v-12.87c27.47,4.38,54.94-5.2,82.41-.82-7.04,1.3-14.09,3.44-21.13,5.96,7.04,2.18,14.09,4.87,21.13,8.55Z"/>
  <line class="cls-6" x1="270.33" y1="43.8" x2="270.33" y2="78.46"/>
  <path class="cls-1" d="m318.78,60.66c-17.81-4.93-35.62,4.11-53.43-.82v-12.87c17.81,4.38,35.62-5.2,53.43-.82-4.57,1.3-9.13,3.44-13.7,5.96,4.57,2.18,9.13,4.87,13.7,8.55Z"/>
  <line class="cls-6" x1="180.64" y1="42.92" x2="180.64" y2="77.57"/>
  <path class="cls-1" d="m222.84,59.77c-15.73-4.93-31.45,4.11-47.18-.82v-12.87c15.73,4.38,31.45-5.2,47.18-.82-4.03,1.29-8.07,3.44-12.1,5.96,4.03,2.18,8.07,4.87,12.1,8.55Z"/>
  <text class="cls-7" transform="translate(272.16 58.18) rotate(-3.66)"><tspan x="0" y="0">:has()</tspan></text>
  <text class="cls-7" transform="translate(222.84 29.35) rotate(-3.66)"><tspan x="0" y="0">color-scheme</tspan></text>
  <text class="cls-8" transform="translate(178.32 56.38) rotate(-3.66)"><tspan x="0" y="0">subgrid</tspan></text>
  <path class="cls-1" d="m68.63,169.02c-3.4,0-6.74-.1-10.07.04-2.22.09-3.89-.38-5.35-1.85-1.5-1.52-3.27-2.85-4.95-4.24-.93-.77-.99-1.48-.04-2.28,2.17-1.81,4.27-3.68,6.5-5.44.51-.4,1.41-.63,2.14-.64,3.89-.06,7.77-.03,11.78-.03v-3.6c-.97,0-1.91.03-2.84,0-2.34-.1-4.03-1.51-4.08-3.5-.06-2.41-.05-4.82,0-7.23.04-2.14,1.68-3.55,4.22-3.67.88-.04,1.77,0,2.75,0,.22-1.89-.32-3.83,1.65-5.17,1.24-.85,2.67-.86,4.12-.81,3.02.1,3.82,1.16,4.42,5.92.5.02,1.03.06,1.56.06,3.4,0,6.79-.05,10.18.04.81.02,1.78.33,2.36.79,2.13,1.66,4.14,3.43,6.17,5.18,1.14.98,1.14,1.48.01,2.45-2.04,1.74-4.05,3.51-6.17,5.18-.55.44-1.45.76-2.21.78-3.39.08-6.79.04-10.18.04-.54,0-1.08,0-1.73,0v3.6c.89,0,1.72-.02,2.56,0,2.7.1,4.34,1.51,4.38,3.8.03,2.28.03,4.57,0,6.85-.03,2.3-1.7,3.71-4.38,3.77-.83.02-1.67,0-2.58,0v9.61c1.62,0,3.17-.1,4.69.04.86.08,1.81.41,2.47.88,1.37.98,2.57,2.13,3.85,3.2.98.82,1.37,1.77.8,2.88-.54,1.06-1.59,1.44-2.9,1.44-9.34,0-18.67,0-28.01,0-1.33,0-2.36-.41-2.88-1.47-.52-1.05-.2-1.99.75-2.77.07-.06.15-.12.21-.18,2.79-2.82,5.81-5.19,10.82-3.75,0-3.45,0-6.58,0-9.85Zm-17.75-7.22c1.86,1.56,3.57,3.03,5.34,4.45.31.25.89.36,1.35.36,7.83.02,15.66,0,23.49.02,1.3,0,1.94-.49,1.93-1.6-.02-2.11-.03-4.22,0-6.34.02-1.17-.58-1.68-1.98-1.68-7.83.02-15.66,0-23.49.03-.52,0-1.16.23-1.55.54-1.68,1.32-3.28,2.71-5.09,4.22Zm45.76-18c-1.83-1.53-3.43-2.92-5.11-4.24-.39-.31-1.03-.54-1.55-.54-7.83-.03-15.66-.01-23.49-.03-1.4,0-2,.51-1.98,1.68.03,2.07,0,4.14.01,6.21.01,1.35.45,1.72,2.07,1.72,7.78,0,15.56.01,23.34-.01.46,0,1.03-.12,1.35-.36,1.78-1.41,3.5-2.88,5.35-4.42Zm-8.58,40.8c-1.36-1.13-2.38-2.06-3.51-2.88-.48-.34-1.2-.62-1.81-.63-5.99-.05-11.98-.03-17.97-.02-.43,0-.98,0-1.27.21-1.35.96-2.62,1.99-3.92,3,.11.1.21.21.32.31,9.25,0,18.5,0,28.17,0Zm-12.29-6.03c0-3.22,0-6.32,0-9.46-1.41,0-2.72,0-4.04,0,0,3.2,0,6.3,0,9.46,1.37,0,2.64,0,4.04,0Zm-4.04-27.51v3.43c1.4,0,2.71,0,4.01,0v-3.43c-1.4,0-2.67,0-4.01,0Zm4.21-14.57c-.37-1.24.68-2.65-.94-3.32-.75-.31-2.44-.25-2.72.14-.61.87-.59,2.05-.85,3.18,1.69,0,2.96,0,4.5,0Z"/>
  <text class="cls-5" transform="translate(65.51 145.92) scale(.97 1)"><tspan x="0" y="0">.castle</tspan></text>
</svg>