<?xml version="1.0" encoding="UTF-8"?>
<svg id="Layer_1" data-name="Layer 1" xmlns="http://www.w3.org/2000/svg" xmlns:xlink="http://www.w3.org/1999/xlink" viewBox="0 0 400 200">
  <defs>
    <style>
      .cls-1, .cls-2, .cls-3, .cls-4, .cls-5 {
        stroke-width: 0px;
      }

      .cls-1, .cls-6 {
        fill: #4b2e83;
      }

      .cls-2 {
        fill: none;
      }

      .cls-3 {
        fill: #fff;
      }

      .cls-7 {
        clip-path: url(#clippath);
      }

      .cls-6 {
        stroke: #4b2e83;
        stroke-linecap: round;
        stroke-miterlimit: 10;
        stroke-width: 4px;
      }

      .cls-4 {
        fill: #aadb1e;
      }

      .cls-5 {
        fill: #ffc700;
      }
    </style>
    <clipPath id="clippath">
      <rect class="cls-2" width="400" height="200"/>
    </clipPath>
  </defs>
  <rect class="cls-5" x="31.24" y="78.45" width="8.55" height="7.22" transform="translate(-36.27 28.75) rotate(-30)"/>
  <rect class="cls-5" x="43.33" y="71.78" width="7.22" height="7.22" transform="translate(-31.41 33.57) rotate(-30)"/>
  <rect class="cls-5" x="54.22" y="65.79" width="7.22" height="7.22" transform="translate(-26.95 38.21) rotate(-30)"/>
  <path class="cls-5" d="m66.09,58.25h11.04c1.62,0,2.93,1.31,2.93,2.93v9.5h-13.97v-12.43h0Z" transform="translate(-22.44 45.17) rotate(-30)"/>
  <g class="cls-7">
    <line class="cls-6" x1="184.33" y1="18.51" x2="184.33" y2="64.47"/>
    <path class="cls-1" d="m217.04,35.37c-12.56-4.93-25.12,4.11-37.68-.82v-12.87c12.56,4.38,25.12-5.2,37.68-.82-3.22,1.3-6.44,3.44-9.66,5.96,3.22,2.18,6.44,4.87,9.66,8.55Z"/>
    <path class="cls-3" d="m199.35,22.95l.32,1.63,1.15-.22-.36,5.01s-2.79-6-2.83-6.09l-1.66.32c0,.09-.48,6.73-.48,6.73l-2.1-4.53,1.19-.23-.32-1.63c-.11.02-4.67.91-4.79.93.02.11.3,1.52.32,1.63l1.06-.21s3.25,6.97,3.29,7.05c.09-.02,2.48-.48,2.57-.5,0-.09.32-4.9.32-4.9,0,0,2.03,4.35,2.07,4.44l2.57-.5c0-.09.51-7.79.51-7.79l1.05-.2-.32-1.63c-.11.02-3.47.67-3.58.69Z"/>
    <g>
      <path class="cls-1" d="m27.15,75.54c-1.15-1.97-2.29-3.89-3.41-5.84-1.13-1.96-.82-3.15,1.15-4.32,4.63-2.74,9.28-5.45,13.92-8.18.09-.05.16-.15.42-.41-.29-.5-.63-1.05-.94-1.61-.97-1.77-.64-2.99,1.18-4.07,4.58-2.71,9.19-5.39,13.78-8.08,2.9-1.7,5.8-3.41,8.71-5.09,2.09-1.2,3.19-.9,4.42,1.18,1.82,3.09,3.66,6.17,5.42,9.3.5.88.98,1.07,2,.86,7.17-1.46,13.75,1.48,17.49,7.77,2.66,4.48,5.27,8.99,8,13.66,2.67-.93,3.64,1.01,4.62,2.89.87,1.66.56,2.87-1.06,3.84-2.35,1.42-4.72,2.8-7.11,4.16-.81.46-1.18.85-.92,1.95.96,3.97-.71,7.72-4.08,9.64-3.33,1.9-7.27,1.41-10.31-1.18-.4-.34-1.27-.63-1.64-.42-4.05,2.27-8.05,4.65-12.14,7.04,1.23,4.58.33,8.49-3.93,10.9-4.12,2.32-7.88,1.18-11.17-2.06-3.38,1.98-6.73,3.91-10.05,5.89-1.34.8-2.72,1.18-3.77-.19-1.74-2.27-2.55-3.73-1.31-5.23.65-.78.31-1.28-.06-1.91-3.43-5.85-6.85-11.71-10.28-17.56-3.13-5.35-2.93-8.09,1.07-12.94Zm66.32-9.73c-3.6,1.68-4.97,1.26-6.89-2.01-1.76-3-3.52-5.99-5.25-9-.35-.62-.75-1.33-.76-2.01-.02-1.07-.64-1.15-1.39-1.25-3.29-.45-6.34.24-9.2,1.91-5.8,3.4-11.61,6.79-17.41,10.19-7.55,4.41-15.1,8.81-22.63,13.25-3.05,1.79-4.38,4.92-3.01,7.84,1.35,2.86,3.15,5.5,4.86,8.43,2.87-1.68,5.64-3.3,8.45-4.94l1.26,2.15c-2.87,1.68-5.65,3.31-8.43,4.93l1.17,2.01c.4-.18.71-.31,1-.47,2.82-1.54,3.62-1.32,5.24,1.45,1.01,1.72,2.02,3.44,3,5.12l1.99-1.16c-.07-.23-.08-.35-.13-.44-.98-1.7-1.97-3.39-2.95-5.09-1.35-2.34-1.07-3.41,1.28-4.79,7.3-4.28,14.6-8.55,21.91-12.82,2.37-1.38,3.38-1.11,4.78,1.27,1.07,1.81,2.13,3.63,3.19,5.46.83-.48,1.42-.83,2.17-1.27-4.6-7.86-9.14-15.62-13.75-23.51,2.36-1.38,4.58-2.69,6.8-3.97,5.15-2.99,10.01-1.73,13.04,3.4,2.7,4.59,5.38,9.19,8.07,13.78.3.51.6,1.03.9,1.55l1.76-1.03c-.23-1.47-.82-2.84-.51-3.98.33-1.21,1.51-2.19,2.38-3.37l-.94-1.61Zm-5.05,11.28c-2.12-3.62-4.13-7.05-6.15-10.52l-10.52,6.15c2.06,3.52,4.07,6.95,6.18,10.56,1.93-4.76,5.33-6.78,10.49-6.19Zm-22.94-15.09c1.65,2.83,3.27,5.59,4.93,8.42,3.55-2.08,7-4.09,10.61-6.21-.69-1.17-1.29-2.29-1.98-3.36-1.6-2.49-4.6-3.64-7.31-2.45-2.17.95-4.14,2.36-6.26,3.6Zm5.84,25.21l-3.68-6.29-4.14,2.42c.35.71.66,1.34.99,1.99-.74.43-1.37.8-1.99,1.17-.49-.68-.89-1.26-1.28-1.79-1.46.85-2.78,1.63-4.09,2.39,1.26,2.15,2.45,4.19,3.67,6.27,3.53-2.07,6.95-4.07,10.53-6.16Zm-7.48,11.67c-1.72-2.95-5.54-3.97-8.48-2.25-2.94,1.71-3.95,5.56-2.24,8.5,1.72,2.94,5.54,3.95,8.49,2.23,2.96-1.73,3.96-5.52,2.23-8.48Zm27.95-16.27c-1.71-2.99-5.47-4.04-8.44-2.35-2.95,1.68-4.01,5.51-2.34,8.47,1.66,2.95,5.51,4,8.47,2.32,2.99-1.7,4.02-5.46,2.32-8.44Zm-43.67,18.68c.95-1.14,1.89-1.96,2.44-2.99,1.23-2.3,3-3.86,5.46-4.65.49-.16,1.01-.25,1.55-.39-1.01-1.72-1.9-3.25-2.81-4.8-1.43.83-2.75,1.61-4.11,2.41.34.73.64,1.36.98,2.07l-1.98,1.16c-.46-.63-.88-1.2-1.35-1.85-1.35.79-2.67,1.56-4.08,2.39,1.22,2.08,2.39,4.09,3.9,6.67Zm11.6-59.03c1.28,2.19,2.48,4.24,3.68,6.29.75-.36,1.39-.66,2.19-1.04.82,1.41,1.6,2.74,2.42,4.14l2.01-1.17c-2.09-3.56-4.13-7.06-6.2-10.61-1.39.82-2.69,1.57-4.09,2.39Zm1.31,7.67l-3.64-6.22c-1.45.85-2.77,1.62-4.09,2.39,2.09,3.57,4.11,7.02,6.16,10.53l2.03-1.19c-.82-1.41-1.6-2.74-2.42-4.13.72-.51,1.3-.92,1.95-1.38Zm-3.94,8.1c-2.09-3.58-4.13-7.07-6.19-10.57-1.41.82-2.69,1.58-4.04,2.36,1.24,2.13,2.44,4.17,3.66,6.25.73-.34,1.37-.64,2.15-1.01.82,1.41,1.6,2.74,2.42,4.14l1.99-1.17Zm-16.64-4.46c2.11,3.6,4.15,7.09,6.19,10.57.71-.41,1.27-.74,2.03-1.19-.84-1.43-1.64-2.8-2.43-4.15.76-.55,1.32-.96,1.9-1.37-1.25-2.13-2.42-4.14-3.64-6.23-1.36.8-2.64,1.55-4.04,2.36Zm-6.81,18.19c-.86-1.47-1.65-2.83-2.43-4.16.76-.54,1.33-.95,1.9-1.37-.4-.69-.73-1.26-1.12-1.91l-6.27,3.67c1.24,2.11,2.43,4.16,3.66,6.26,1.38-.81,2.67-1.56,4.26-2.49Zm10.58-6.17c-1.28-2.19-2.48-4.24-3.65-6.25-2.16,1.26-4.2,2.46-6.19,3.62l1.12,1.91c.76-.35,1.39-.65,2.18-1.02.84,1.44,1.62,2.77,2.42,4.14,1.44-.84,2.73-1.6,4.13-2.41Zm33.47,21.03c-4.78,2.8-9.38,5.49-14.08,8.24.63.61,1.15,1.1,1.7,1.63,4.31-2.52,8.6-5.03,12.92-7.56-.18-.75-.35-1.45-.55-2.31Zm-39.15,22.85c.45.77.8,1.37,1.17,1.99,3.61-2.11,7.11-4.16,10.62-6.22-.2-.79-.38-1.52-.58-2.33-3.84,2.25-7.48,4.38-11.21,6.56Zm53.56-46.08c-2.36-3.89-4.03-8.3-9.01-10.58,2.24,3.83,4.22,7.31,6.3,10.72.8,1.31,1.75.73,2.72-.14Zm8.52,9.81c-3.1,1.81-6.02,3.52-9.33,5.46,1,.53,1.98,1.42,2.39,1.21,2.77-1.41,5.42-3.06,8.12-4.64l-1.18-2.02Zm-59.41,31.62c-1.28-2.19-2.47-4.23-3.66-6.25-.72.42-1.32.77-1.91,1.12,1.26,2.15,2.45,4.19,3.66,6.25l1.91-1.12Zm11.65-44.31l-1.13-1.93c-.71.42-1.35.79-1.98,1.16l1.13,1.93,1.98-1.16Zm-16.17,6.86l-1.97,1.15c.42.71.77,1.31,1.13,1.93l1.97-1.15-1.13-1.93Zm27.06-13.24l1.97-1.15c-.4-.69-.75-1.28-1.12-1.91-.7.41-1.32.77-1.97,1.15.4.68.73,1.24,1.12,1.91Zm32.09,15.79c-.56.65-1.11,1.13-1.44,1.74-.11.2.35,1.01.58,1.02.68.04,1.39-.17,2.29-.31l-1.43-2.45Z"/>
      <path class="cls-1" d="m38.25,74.96c1.7,2.91,3.3,5.65,4.95,8.46-3.54,2.07-7,4.09-10.56,6.18-1.19-2.04-2.52-3.97-3.48-6.07-.69-1.5-.12-3.07,1.3-3.97,2.49-1.59,5.09-3.01,7.8-4.6Zm-4.74,11.24c2.13-1.25,4.18-2.44,6.25-3.66-.83-1.42-1.6-2.74-2.46-4.21-.89.52-1.71.98-2.51,1.47-3.92,2.37-4.42,1.58-1.28,6.39Z"/>
      <path class="cls-1" d="m49.03,68.76c1.62,2.76,3.22,5.5,4.88,8.35-2.81,1.64-5.58,3.26-8.43,4.93l-4.88-8.35c2.79-1.63,5.56-3.25,8.43-4.93Zm-5.04,5.75c.88,1.5,1.65,2.83,2.42,4.13,1.44-.84,2.77-1.62,4.07-2.38-.84-1.44-1.62-2.77-2.42-4.13-1.4.82-2.69,1.57-4.07,2.38Z"/>
      <path class="cls-1" d="m51.32,67.35c2.83-1.66,5.57-3.26,8.41-4.92,1.63,2.79,3.23,5.53,4.91,8.39-2.78,1.63-5.55,3.25-8.41,4.92-1.6-2.74-3.2-5.48-4.91-8.39Zm7.51-1.51l-4.08,2.39c.84,1.44,1.63,2.79,2.43,4.15,1.42-.83,2.71-1.59,4.08-2.39l-2.43-4.15Z"/>
      <path class="cls-1" d="m43.69,88.92c-.43-.73-.76-1.3-1.15-1.97,7.82-4.58,15.59-9.12,23.47-13.73l1.15,1.97c-7.82,4.58-15.59,9.12-23.47,13.73Z"/>
      <path class="cls-1" d="m81.49,69.92l1.15,1.96c-.68.4-1.32.77-2.04,1.19-.38-.64-.73-1.24-1.15-1.96.66-.39,1.3-.76,2.04-1.19Z"/>
      <path class="cls-1" d="m55.17,103.69c-.94-1.84-.22-4.07,1.62-5.01,1.82-.93,4.13-.19,5.03,1.61.91,1.82.15,4.15-1.63,5.04-1.84.92-4.08.19-5.02-1.64Zm4.81-2.48c-.95-.14-1.71-.47-1.97-.23-.38.33-.39,1.08-.56,1.65.54.13,1.17.51,1.58.33.38-.16.52-.9.95-1.75Z"/>
      <path class="cls-1" d="m83.18,87.47c-1.02-1.8-.4-4.05,1.41-5.07,1.78-1.01,4.09-.37,5.08,1.41.99,1.77.34,4.12-1.41,5.1-1.79,1-4.05.35-5.07-1.44Zm4.65-2.77c-.97-.04-1.69-.27-2-.02-.35.28-.33,1.02-.47,1.56.58.12,1.24.46,1.72.29.33-.12.41-.93.76-1.83Z"/>
    </g>
    <path class="cls-4" d="m-230.89,294.86s14.56-32.06,114.67-27.65c7.94.35,75.19-14.4,102.45-39.32,23.03-21.05,22-71.34,33.38-87.11,11.38-15.77,39.2-6.74,45.96-30.37,5.35-18.68,26.27-15.22,35.27-17.1,14.35-2.99,15.4-19.91,28.47-23.41s56.91-17.52,72.85,0c15.94,17.52,4.55,30.2,27.32,40.51,22.76,10.31,21.6-15.14,46.55-3.19,24.95,11.95,47.98,18.67,65.76,57.56,17.99,39.35,24.97,14.77,54.22,24,29.25,9.23,113.47,84.42,140.79,88.79,27.32,4.37,25.2,6.76,55.57,17.28,30.36,10.52,28.49,17.22,52.13,19.73,23.64,2.52,37.12,9.05,74.4,6.37,36.84-2.65,71.51,27.18,91.16,25.29,19.65-1.89,136.55,13.84,136.55,13.84l-1282.4,9.09,104.9-74.32Z"/>
  </g>
  <circle class="cls-1" cx="16" cy="102.67" r="2.67"/>
  <circle class="cls-1" cx="13.33" cy="115.67" r="2.67"/>
  <circle class="cls-1" cx="6.33" cy="126.89" r="1"/>
  <circle class="cls-1" cx="24.66" cy="105.89" r="1.33"/>
  <circle class="cls-1" cx="17.33" cy="83.39" r="1.33"/>
  <circle class="cls-1" cx="9.23" cy="90.01" r="1.9"/>
  <g>
    <path class="cls-1" d="m312.08,120.98c-1.28,1.02-2.54,1.98-3.74,3.01-.56.48-.99.51-1.56.06-.43-.35-.93-.6-1.38-.91-.51-.35-.52-.65-.02-1.03,1.34-1.03,2.7-2.05,4.08-3.1-.2-.48-.48-.94-.56-1.42-.15-.93-.24-1.87-.25-2.81,0-.62.07-.62-.61-.93-.15.83-.26,1.66-.45,2.47-.07.32-.25.67-.5.87-1.43,1.18-2.89,2.31-4.33,3.48-.36.3-.65.35-1.06.08-1.21-.81-2.44-1.6-3.67-2.38-.46-.29-.51-.59-.25-1.05,1.38-2.37,2.75-4.73,4.1-7.12.22-.39.4-.84.47-1.28.47-2.9.87-5.8,1.36-8.69.11-.66.03-1.09-.61-1.37-.22-.09-.4-.25-.62-.39-.79.93-1.72,1.31-2.86.96-.83-.25-.94-.58-.47-1.3.65-1,1.27-2.02,1.96-2.99.2-.29.57-.53.91-.64.71-.22,1.46-.34,2.2-.49,1.05-.22,2-.47,2.87-1.28,1.51-1.4,3.93-1.29,5.48.01,1.64,1.37,2.1,3.68,1.07,5.51-.13.23-.44.35-.67.52-.14-.25-.33-.48-.4-.74-.09-.34-.04-.7-.1-1.05-.23-1.36-1.7-2.18-2.96-1.57.29.19.54.36.8.51.45.27.49.67.14.98-.44.4-.97.69-1.61,1.13.08,1.14.15,2.52.28,3.9.02.2.3.41.5.54,3.11,2.03,6.21,4.06,9.34,6.05,1.15.73,2.01,1.64,2.41,3.01,1.04-.43,2.06-.48,3.08,0,.63.3.69.53.35,1.13-.78,1.37-1.86,2.21-3.52,2.16-.16,0-.39.24-.5.42-.67,1.12-1.47,2.12-2.7,2.64-.64.27-1.33.44-2.1.68.06,1,.1,2.09.19,3.18.04.46-.09.78-.44,1.1-1.29,1.17-2.56,2.36-3.81,3.57-.41.4-.77.51-1.26.13-.51-.39-1.07-.7-1.6-1.06-.43-.29-.46-.61-.05-.96,1.03-.87,2.03-1.76,3.08-2.61.4-.32.38-.58,0-.96Zm-11.99-2.58l6.59-10.17.8.52-1.55,2.39,4.7,3.04c.14-.62.26-1.17.39-1.79.33.07.62.13.92.19-.02.17-.01.28-.05.38-.92,2.79-.36,5.35,1.24,7.74.05.07.08.16.12.23q.47.88-.28,1.52c-.96.82-1.92,1.65-2.92,2.5.19.14.33.22.44.33.48.44.86.37,1.32-.1.94-.96,1.94-1.87,2.94-2.76.34-.3.44-.6.41-1.04-.08-1.06-.12-2.12-.19-3.17-.03-.45.1-.74.6-.74,2.09,0,3.51-1.08,4.42-2.85.34-.66.64-.95,1.44-.82,1.05.16,2.05-.58,2.26-1.5-.82-.23-1.56-.1-2.25.39-.52.37-.85.25-.93-.35-.18-1.33-.92-2.24-2.02-2.94-3.25-2.09-6.49-4.19-9.72-6.31-.26-.17-.58-.49-.61-.77-.17-1.67-.26-3.34-.37-5.02-.03-.49.2-.68.69-.61.28.04.58-.01.87-.02-.99-.8-1.9-1.71-2.97-1.99-.86-.22-1.92.31-2.9.5-.22.04-.43.12-.65.13-.79.03-1.15.53-1.42,1.26.96.62,1.91,1.26,2.88,1.86.47.28.6.61.52,1.14-.52,3.29-1.02,6.58-1.53,9.87-.04.23-.1.48-.22.68-1.23,2.17-2.47,4.33-3.73,6.49-.66,1.13-.67,1.12.5,1.73.04.02.08.02.24.04Zm5.48-6.13c-.12.67-.28,1.3-.33,1.93-.07.78-.4,1.35-1,1.84-.78.65-1.49,1.37-2.23,2.07-.33.31-.65.63-.98.95q1.03.93,2.01.15c.74-.59,1.44-1.24,2.23-1.76,1.04-.68,1.53-1.56,1.65-2.8.16-1.56.24-1.55-1.14-2.33-.04-.02-.08-.02-.21-.05Zm.79,10.33c.32.21.53.39.77.48.19.08.5.15.63.05,1.31-1,2.59-2.04,3.91-3.09-.75-1.27-1.24-2.59-1.2-4.04.02-.63-.23-.94-.86-1.13-.01.41-.11.82-.02,1.18.22.87.49,1.73.82,2.57.21.52.15.84-.31,1.17-1.23.89-2.42,1.82-3.73,2.81Zm.94-28.65c.59.47,1.09.95,2,.46.82-.45,1.78-.29,2.58.24.45.3.84.69,1.23,1.01-.05-1.2-1.04-2.38-2.36-2.76-1.31-.38-2.77.06-3.44,1.05Zm-7.14,4.54c.04.07.07.13.11.2.45-.19.9-.38,1.48-.63l-.92-.6-.67,1.03Zm2.88,17.14c.59-.41,1.33-.77,1.15-1.78l-1.15,1.78Z"/>
    <path class="cls-1" d="m304.54,96.22l.48-.74.75.49-.48.74-.75-.49Z"/>
  </g>
</svg>