<?xml version="1.0" encoding="UTF-8"?>
<svg id="Layer_1" data-name="Layer 1" xmlns="http://www.w3.org/2000/svg" xmlns:xlink="http://www.w3.org/1999/xlink" viewBox="0 0 400 200">
  <defs>
    <style>
      .cls-1, .cls-2, .cls-3, .cls-4, .cls-5 {
        stroke-width: 0px;
      }

      .cls-1, .cls-6 {
        fill: #4b2e83;
      }

      .cls-2 {
        fill: none;
      }

      .cls-3 {
        fill: #fff;
      }

      .cls-7 {
        clip-path: url(#clippath);
      }

      .cls-6 {
        stroke: #4b2e83;
        stroke-linecap: round;
        stroke-miterlimit: 10;
        stroke-width: 4px;
      }

      .cls-4 {
        fill: #aadb1e;
      }

      .cls-5 {
        fill: #ffc700;
      }
    </style>
    <clipPath id="clippath">
      <rect class="cls-2" y="-300" width="400" height="200"/>
    </clipPath>
  </defs>
  <path class="cls-4" d="m191.56,191.52c-8-3.89-12.89-5.49-16.89-3.89-4,1.6-6.32,0-10.27,0s-25.79,1.07-34.65,0c-8.86-1.07-24.39.18-37.96,0-13.57-.18-32.08-1.25-40.23-.63-8.16.63-16-.89-17.78-1.78s-6.67-4.44-13.33,0c-6.67,4.44-12.89,5.33-16,7.11S0,200,0,200h200s-8.44-8.48-8.44-8.48Z"/>
  <path class="cls-4" d="m16.89,191.52c16-3.89,25.78-5.49,33.78-3.89,8,1.6,12.64,0,20.54,0,7.9,0,51.59,1.07,69.3,0,17.71-1.07,48.78.18,75.91,0,27.14-.18,64.16-1.25,80.47-.63s32-.89,35.56-1.78,13.33-4.44,26.67,0c13.33,4.44,25.78,5.33,32,7.11,6.22,1.78,8.89,7.67,8.89,7.67H0l16.89-8.48Z"/>
  <g class="cls-7">
    <path class="cls-4" d="m-230.89-5.14s14.56-32.06,114.67-27.65c7.94.35,75.19-14.4,102.45-39.32,23.03-21.05,22-71.34,33.38-87.11,11.38-15.77,39.2-6.74,45.96-30.37,5.35-18.68,26.27-15.22,35.27-17.1,14.35-2.99,15.4-19.91,28.47-23.41,13.07-3.51,56.91-17.52,72.85,0,15.94,17.52,4.55,30.2,27.32,40.51,22.76,10.31,21.6-15.14,46.55-3.19,24.95,11.95,47.98,18.67,65.76,57.56,17.99,39.35,24.97,14.77,54.22,24,29.25,9.23,113.47,84.42,140.79,88.79,27.32,4.37,25.2,6.76,55.57,17.28,30.36,10.52,28.49,17.22,52.13,19.73,23.64,2.52,37.12,9.05,74.4,6.37,36.84-2.65,71.51,27.18,91.16,25.29,19.65-1.89,136.55,13.84,136.55,13.84l-1282.4,9.09L-230.89-5.14Z"/>
  </g>
  <g>
    <path class="cls-5" d="m231.05,127.43c-4.06,0-7.12,0-11.3,0,0-6.83-.3-13.59.25-20.32.11-1.39,3.42-2.66,5.25-3.98,1.93,1.44,5.38,2.8,5.53,4.33.63,6.4.26,12.86.26,19.98Z"/>
    <path class="cls-1" d="m166.12,171.21c0-1.27,0-2.26,0-3.25,0-11.46-.13-22.92.06-34.37.07-4.41-.74-8.43-2.35-12.52-1.11-2.8-1.57-5.96-1.78-8.99-.29-4.2-.02-8.43-.09-12.64-.03-2.22.66-3.38,3.13-3.47.98-.04,2.29-.97,2.81-1.87,3.28-5.72,6.32-11.57,9.57-17.31.67-1.18,1.86-2.07,2.81-3.1.97.99,2.21,1.83,2.88,2.99,3.25,5.73,6.38,11.54,9.49,17.36.7,1.3,1.35,2.28,3.1,2.06,2.09-.26,3.01.85,2.95,2.94-.06,2.27-.01,4.54-.01,6.98,2.78,0,5.29,0,7.97,0,0-3.93,0-7.74,0-12.01-1.16,0-2.31.06-3.45-.01-2.31-.16-3.06-1.53-1.86-3.52.99-1.64,2.15-3.19,3.24-4.77,5.96-8.69,11.92-17.38,17.9-26.05,2.08-3.02,3.19-3.02,5.26-.02,6.71,9.73,13.43,19.45,20.04,29.25.79,1.16.95,2.75,1.41,4.14-1.35.33-2.7.68-4.06.99-.43.1-.89.1-1.52.16,0,3.95,0,7.83,0,11.86,2.58,0,5.03,0,7.94,0,0-2.31.05-4.65-.01-6.99-.05-2.08.85-3.2,2.94-2.94,1.74.21,2.4-.75,3.1-2.05,3.24-6.05,6.52-12.09,9.89-18.07.52-.93,1.64-2.14,2.45-2.12.84.02,1.89,1.25,2.42,2.2,3.37,5.99,6.65,12.02,9.88,18.08.73,1.37,1.51,2.14,3.16,1.97,2.18-.23,2.88,1.06,2.87,3.05-.03,5.41.07,10.82-.06,16.22-.03,1.41-.48,2.91-1.11,4.18-2.45,4.97-3.18,10.14-3.05,15.67.26,10.9.08,21.81.08,32.72,0,1,0,1.99,0,3.06.5.15.82.32,1.16.34q4.95.29,4.95,5.37c0,2.75-.03,5.5,0,8.25.02,1.84-.86,2.7-2.68,2.67-.64-.01-1.28,0-1.92,0-40.33,0-80.66,0-121,0-4.57,0-4.6-.04-4.61-4.6,0-2.57,0-5.13,0-7.7.02-3.71.19-3.88,3.85-3.96.63-.01,1.26-.08,2.27-.15Zm28.7-42.6c0,2.15,0,4,0,6.08,1.94,0,3.71-.23,5.37.09.91.17,1.64,1.27,2.45,1.95-.8.7-1.52,1.83-2.41,2-1.75.32-3.59.09-5.38.09,0,11.02,0,21.67,0,32.39,4.69,0,9.14,0,13.93,0,0-1.13,0-2.11,0-3.09,0-5.59-.09-11.18.03-16.77.2-9.59,7.36-16.76,16.49-16.65,9,.1,15.98,7.3,16.12,16.77.09,5.59,0,11.18.02,16.77,0,.97.09,1.94.15,2.99,4.73,0,9.18,0,13.77,0,0-2.71,0-5.28,0-8.01-1.34,0-2.51.25-3.5-.07-.87-.29-1.54-1.21-2.29-1.85.78-.71,1.46-1.72,2.37-2.04,1.03-.36,2.29-.08,3.5-.08,0-10.35,0-20.3,0-30.56-4.44,0-8.73-.06-13.01.02-2.24.04-3.2-.89-3.09-3.12.08-1.61.02-3.22.02-4.9-2.18,0-3.97,0-6.08,0,0,1.87,0,3.58,0,5.3,0,1.8-.82,2.71-2.67,2.7-3.67-.02-7.33-.02-11,0-1.84.01-2.69-.88-2.69-2.69,0-1.72,0-3.44,0-5.27-2.16,0-4.02,0-6.07,0,0,1.56,0,2.93,0,4.29-.02,3.33-.32,3.65-3.6,3.66-4.1.02-8.2,0-12.43,0Zm-30.64,54.72c40.75,0,81.29,0,121.75,0,0-2.73,0-5.24,0-7.75-40.69,0-81.16,0-121.75,0,0,2.62,0,5.07,0,7.75Zm69.1-66.92c2.66,0,4.94.05,7.21-.02,2.13-.07,3,.92,2.92,2.99-.07,1.62-.01,3.24-.01,4.95,3.82,0,7.3,0,10.51,0-1.06-4.7-2.09-9.24-3.17-13.99-2.38,0-5.13-.1-7.86.03-2.59.12-3.65-.88-3.56-3.53.14-4.18.04-8.36.04-12.68-9.61,0-18.9,0-28.5,0,0,4.42-.07,8.7.03,12.97.06,2.39-.97,3.3-3.29,3.23-2.89-.09-5.79-.02-8.08-.02-1.15,5.01-2.19,9.53-3.24,14.06,3.35,0,6.79,0,10.55,0,0-1.69.08-3.23-.02-4.75-.15-2.34.83-3.38,3.21-3.26,2.25.11,4.5.02,6.92.02,0-2.79-.06-5.16.01-7.54.15-4.86,3.76-8.73,8.1-8.77,4.66-.05,8.11,3.61,8.23,8.79.06,2.37,0,4.74,0,7.52Zm46.63,12.41c-6.79,0-13.41,0-19.98,0,0,14.25,0,28.3,0,42.38,6.75,0,13.3,0,19.98,0,0-14.14,0-28.12,0-42.38Zm-89.67,42.4c0-14.26,0-28.36,0-42.41-6.79,0-13.33,0-19.9,0,0,14.24,0,28.28,0,42.41,6.74,0,13.29,0,19.9,0Zm16.5-81.45c12.49,0,24.4,0,36.74,0-6.2-9.01-12.17-17.69-18.37-26.72-6.21,9.03-12.18,17.71-18.37,26.72Zm-40.37,10.49c0,4.75,0,9.33,0,13.92,9.44,0,18.64,0,27.95,0,0-4.74,0-9.32,0-13.91-2.67,0-5.1,0-7.84,0,0,1.87,0,3.59,0,5.3,0,1.77-.83,2.72-2.68,2.69-2.19-.03-4.39-.07-6.58.01-2.09.08-3.06-.83-3.01-2.91.03-1.7,0-3.39,0-5.1-2.89,0-5.32,0-7.84,0Zm89.41,13.89c9.49,0,18.76,0,28.12,0,0-4.7,0-9.22,0-13.86-2.67,0-5.17,0-7.9,0,0,1.82-.03,3.45,0,5.08.05,2.09-.93,2.99-3.02,2.9-2.1-.08-4.21-.08-6.31,0-2.13.07-3-.95-2.96-2.99.04-1.62,0-3.24,0-5-2.82,0-5.32,0-7.94,0,0,4.64,0,9.1,0,13.87Zm-32.93,25.04c-7.37,1.52-11.24,8.01-9.5,15.85,1.04,0,2.22-.27,3.18.08.93.34,1.64,1.31,2.45,2-.82.68-1.54,1.64-2.49,1.98-.96.34-2.14.08-3.39.08,0,4.12,0,8,0,12.04,3.28,0,6.43,0,9.75,0,0-10.7,0-21.27,0-32.02Zm4.51-.01c0,10.74,0,21.31,0,32.03,3.31,0,6.45,0,9.76,0,0-4.02,0-7.89,0-11.89-.95-.05-1.76-.11-2.56-.12-1.52-.02-3.21-.06-3.26-2.04-.04-1.99,1.59-2.13,3.15-2.13.88,0,1.76-.09,2.59-.14,1.01-8.61-2.34-14.1-9.68-15.71Zm-47.02-59.19c-3.01,5.53-5.79,10.64-8.75,16.07,1.42,0,2.33.07,3.23-.01,2.61-.24,3.74.88,3.54,3.51-.12,1.5-.02,3.02-.02,4.5,1.54,0,2.6,0,3.81,0,.14-2.31-.46-5.01.61-6.48,1.01-1.39,3.8-1.48,5.96-2.2-2.64-4.84-5.38-9.88-8.38-15.38Zm97.95,15.43c-2.65-4.86-5.43-9.96-8.4-15.42-2.96,5.43-5.74,10.53-8.76,16.06,1.36,0,2.24,0,3.11,0,3.23.03,3.62.42,3.66,3.64.02,1.43,0,2.86,0,4.31h3.83c.14-2.38-.45-5.06.62-6.58.94-1.33,3.73-1.35,5.93-2.01Zm-49.25,28.98c0-5.72.12-11.29-.06-16.85-.07-2.07-1.69-3.21-3.78-3.26-2.1-.04-3.82,1.06-3.9,3.1-.22,5.63-.08,11.27-.08,17,2.73,0,5.16,0,7.82,0Zm-61.86-5.78c.68,1.7,1.04,3.15,1.81,4.34.48.74,1.56,1.51,2.38,1.53,6.03.13,12.06.1,18.09.03.69,0,1.71-.4,1.99-.93.8-1.49,1.29-3.14,1.99-4.97-8.85,0-17.32,0-26.26,0Zm89.55,0c.72,1.81,1.15,3.31,1.9,4.62.36.62,1.33,1.25,2.03,1.26,6.21.1,12.42.08,18.64.01.59,0,1.47-.44,1.72-.93.77-1.52,1.29-3.16,2-4.97-8.81,0-17.28,0-26.28,0Z"/>
    <path class="cls-1" d="m263.73,148.63c0-1.83-.06-3.67.01-5.49.16-3.77,2.72-6.38,6.17-6.36,3.38.02,5.92,2.49,6.04,6.17.13,3.84.04,7.69.03,11.54,0,1.81-.91,2.68-2.73,2.66-2.29-.02-4.58-.01-6.87,0-1.84,0-2.66-.97-2.66-2.74,0-1.92,0-3.85,0-5.77Zm8.11,4.25c0-3.47.11-6.82-.09-10.16-.04-.65-1.2-1.58-1.96-1.71-.5-.09-1.71.99-1.74,1.59-.17,3.41-.08,6.83-.08,10.28,1.47,0,2.53,0,3.88,0Z"/>
    <path class="cls-1" d="m186.48,148.91c0,1.74-.03,3.48,0,5.22.05,2.04-.85,3.07-2.96,3.02-2.2-.05-4.4-.03-6.59,0-1.82.02-2.72-.85-2.72-2.66,0-3.94-.1-7.88.06-11.81.14-3.48,2.74-5.87,6.02-5.89,3.25-.02,5.88,2.38,6.13,5.81.15,2.09.03,4.21.03,6.32,0,0,.02,0,.03,0Zm-4.19,3.97c0-3.52.13-6.7-.09-9.86-.05-.75-1.26-1.43-1.93-2.14-.64.65-1.79,1.28-1.83,1.97-.19,3.32-.09,6.66-.09,10.03,1.46,0,2.53,0,3.94,0Z"/>
    <path class="cls-1" d="m225.09,85.85c-1.28,0-2.62.24-3.81-.08-.85-.23-1.5-1.22-2.23-1.87.7-.69,1.35-1.91,2.1-1.98,2.62-.25,5.3-.25,7.92,0,.75.07,1.39,1.3,2.08,2-.74.64-1.4,1.62-2.25,1.85-1.19.32-2.53.08-3.81.08Z"/>
    <path class="cls-1" d="m224.38,77.78c-.07,0-1.02.17-1.68-.19-.68-.37-1.49-1.27-1.47-1.92.02-.66.87-1.67,1.55-1.85,1.2-.32,2.6-.4,3.79-.09.94.25,1.69,1.24,2.52,1.89-.86.72-1.69,1.5-2.62,2.13-.31.21-.89.03-2.1.03Z"/>
    <path class="cls-5" d="m271.84,152.88c-1.35,0-2.42,0-3.88,0,0-3.44-.09-6.86.08-10.28.03-.6,1.24-1.68,1.74-1.59.76.13,1.93,1.06,1.96,1.71.2,3.33.09,6.69.09,10.16Z"/>
    <path class="cls-5" d="m182.3,152.88c-1.42,0-2.49,0-3.94,0,0-3.37-.11-6.71.09-10.03.04-.69,1.19-1.31,1.83-1.97.67.71,1.88,1.38,1.93,2.14.22,3.16.09,6.35.09,9.86Z"/>
  </g>
  <line class="cls-6" x1="225.34" y1="15.18" x2="225.34" y2="61.13"/>
  <path class="cls-1" d="m302.78,32.03c-27.47-4.93-54.94,4.11-82.41-.82v-12.87c27.47,4.38,54.94-5.2,82.41-.82-7.04,1.3-14.09,3.44-21.13,5.96,7.04,2.18,14.09,4.87,21.13,8.55Z"/>
  <line class="cls-6" x1="270.33" y1="43.8" x2="270.33" y2="78.46"/>
  <path class="cls-1" d="m318.78,60.66c-17.81-4.93-35.62,4.11-53.43-.82v-12.87c17.81,4.38,35.62-5.2,53.43-.82-4.57,1.3-9.13,3.44-13.7,5.96,4.57,2.18,9.13,4.87,13.7,8.55Z"/>
  <line class="cls-6" x1="180.64" y1="42.92" x2="180.64" y2="77.57"/>
  <path class="cls-1" d="m222.84,59.77c-15.73-4.93-31.45,4.11-47.18-.82v-12.87c15.73,4.38,31.45-5.2,47.18-.82-4.03,1.29-8.07,3.44-12.1,5.96,4.03,2.18,8.07,4.87,12.1,8.55Z"/>
  <g>
    <path class="cls-3" d="m274.31,53.59c.09,0,.18,0,.26.04.08.03.16.08.22.13.07.06.12.13.16.21.04.08.07.17.07.26,0,.09,0,.18-.04.26-.03.08-.08.16-.13.22-.06.07-.12.12-.21.16-.08.04-.17.06-.26.07-.09,0-.18,0-.26-.04-.08-.03-.16-.07-.22-.13-.06-.06-.12-.13-.16-.2-.04-.08-.06-.16-.07-.26,0-.09,0-.18.04-.26.03-.08.07-.16.13-.22.06-.07.13-.12.2-.16.08-.04.16-.07.26-.07Zm.21,3.22c.09,0,.18,0,.26.04.08.03.16.08.22.13.07.06.12.13.16.21.04.08.07.16.07.25,0,.09,0,.18-.04.27-.03.08-.08.16-.13.22-.06.07-.13.12-.21.16-.08.04-.17.06-.26.07-.09,0-.18,0-.26-.04-.08-.03-.16-.07-.22-.13-.06-.06-.12-.12-.16-.2-.04-.08-.06-.16-.07-.26,0-.09,0-.18.04-.26.03-.08.07-.16.13-.23.06-.06.12-.12.2-.16.08-.04.16-.06.26-.07Z"/>
    <path class="cls-3" d="m280.86,57.68l-.76.05-.18-2.81c-.02-.34-.1-.59-.24-.75-.14-.16-.33-.23-.56-.22-.1,0-.2.03-.28.06-.09.03-.18.09-.27.16-.09.08-.19.17-.3.3-.11.12-.23.28-.37.46l.19,2.92-.76.05-.4-6.2.76-.05.12,1.79.02.7c.11-.15.22-.28.33-.38.11-.11.22-.19.33-.26.11-.07.23-.12.34-.15.12-.04.24-.06.37-.06.44-.03.79.08,1.04.34.26.25.4.65.44,1.18l.18,2.87Z"/>
    <path class="cls-3" d="m284.64,57.43l-.05-.59c-.22.25-.46.44-.7.56-.24.12-.5.19-.77.21-.25.02-.47,0-.65-.05-.18-.05-.33-.13-.46-.24-.12-.11-.22-.23-.28-.38-.06-.15-.1-.31-.11-.49-.03-.44.11-.8.43-1.07.31-.27.79-.43,1.43-.47l.91-.06-.02-.39c-.02-.26-.11-.46-.29-.61-.18-.15-.44-.21-.78-.19-.25.02-.49.06-.73.13-.24.07-.48.17-.73.29l-.04-.69c.09-.04.2-.08.32-.12.12-.04.24-.08.37-.11.13-.04.27-.07.41-.09.14-.03.29-.04.43-.05.27-.02.51,0,.72.04.22.04.4.12.56.23.16.11.28.25.37.43.09.18.14.39.16.63l.19,3.04-.68.04Zm-.21-2l-.97.06c-.19.01-.35.04-.49.09s-.24.11-.33.18c-.08.08-.14.16-.18.26-.04.1-.05.21-.04.34,0,.08.02.17.06.24.03.08.08.14.14.2.06.06.14.1.24.13s.21.04.35.03c.18-.01.37-.08.59-.2.22-.12.45-.3.68-.55l-.05-.78Z"/>
    <path class="cls-3" d="m289.71,55.9c0,.16,0,.3-.05.42s-.11.24-.19.34c-.08.1-.18.19-.3.26-.12.08-.24.14-.37.19-.13.05-.27.09-.41.12-.14.03-.28.05-.42.06-.3.02-.57.02-.83.01-.25,0-.5-.04-.74-.08l-.04-.7c.26.06.52.1.78.12s.51.03.76,0c.37-.02.63-.09.8-.2.17-.11.25-.26.24-.44,0-.08-.02-.15-.06-.21-.03-.06-.09-.12-.16-.17-.08-.05-.19-.1-.35-.15-.16-.05-.37-.11-.64-.17-.2-.05-.39-.1-.56-.17-.17-.06-.32-.14-.45-.24-.13-.09-.23-.21-.31-.34-.08-.13-.12-.29-.14-.48,0-.12.01-.26.06-.41.05-.15.14-.29.27-.43.13-.13.31-.25.54-.35.23-.1.52-.16.87-.18.17-.01.36-.01.58,0,.21,0,.43.03.66.06l.04.68c-.24-.04-.47-.07-.69-.09-.22-.01-.4-.02-.56,0-.19.01-.35.04-.48.07-.13.04-.23.08-.31.14-.08.06-.13.12-.16.19-.03.07-.04.15-.04.22,0,.08.02.15.06.21.03.06.1.12.18.18.09.05.21.11.36.16.15.05.35.1.6.16.26.06.49.13.67.2.18.07.33.16.45.25.12.1.21.21.26.33.06.13.09.27.1.43Z"/>
    <path class="cls-3" d="m293.54,58.71c-1.43-1.16-2.19-2.5-2.29-4.01-.02-.35,0-.71.04-1.07.05-.36.14-.72.28-1.08.14-.36.32-.73.56-1.1.24-.37.53-.74.89-1.11l.47.42c-1.06,1.19-1.55,2.47-1.46,3.83.04.68.23,1.32.55,1.93.33.61.79,1.17,1.38,1.69l-.43.5Z"/>
    <path class="cls-3" d="m295.76,50.17c1.43,1.16,2.19,2.51,2.29,4.04.02.32,0,.65-.03.99-.04.34-.13.7-.26,1.06-.13.37-.32.74-.56,1.12s-.54.77-.92,1.16l-.47-.42c.54-.6.92-1.22,1.16-1.85.24-.63.34-1.29.3-1.96-.09-1.39-.73-2.61-1.94-3.65l.43-.5Z"/>
  </g>
  <g>
    <path class="cls-3" d="m226.93,28.97c-.19.09-.39.16-.6.21-.21.05-.42.08-.64.1-.7.04-1.24-.11-1.64-.46-.4-.35-.62-.89-.67-1.62-.02-.35.01-.67.1-.96.09-.29.23-.54.41-.76s.41-.38.67-.51c.26-.13.56-.2.89-.22.23-.01.44-.01.64,0,.2.02.39.06.58.12l.05.73c-.2-.09-.4-.15-.59-.18-.2-.03-.41-.04-.62-.03-.2.01-.38.06-.55.15s-.32.2-.44.35c-.12.15-.22.33-.28.53-.06.21-.09.44-.07.69.03.53.19.92.46,1.17.28.25.64.36,1.1.33.21-.01.41-.05.6-.11.19-.06.37-.14.55-.25l.04.71Z"/>
    <path class="cls-3" d="m231.7,26.59c.02.34,0,.66-.08.95s-.2.54-.37.76c-.17.21-.38.39-.63.52-.25.13-.54.2-.88.23-.32.02-.6-.01-.86-.09s-.48-.21-.66-.39c-.19-.18-.33-.41-.44-.68-.11-.27-.18-.59-.2-.96-.02-.34,0-.66.08-.95.08-.29.2-.54.37-.75.17-.21.38-.39.63-.52.25-.13.54-.2.88-.23.32-.02.6.01.86.09.26.08.48.21.66.39.19.18.33.4.44.68.11.27.18.59.2.96Zm-.78.08c-.02-.27-.06-.51-.13-.71-.07-.2-.17-.36-.29-.49-.12-.13-.26-.22-.43-.28s-.34-.08-.54-.07c-.23.01-.42.07-.58.17-.16.1-.28.23-.38.38-.09.16-.16.33-.19.53-.04.2-.05.41-.03.62.02.27.06.51.14.71.07.2.17.37.29.5.12.13.26.22.42.28.16.06.34.08.54.07.23-.01.42-.07.58-.17.16-.1.28-.23.38-.38.09-.16.16-.33.2-.54.03-.2.04-.41.03-.63Z"/>
    <path class="cls-3" d="m233.64,23.12l-1.3.08-.04-.63,2.07-.13.36,5.56,1.31-.08.04.64-3.53.23-.04-.64,1.45-.09-.32-4.93Z"/>
    <path class="cls-3" d="m240.68,26.01c.02.34,0,.66-.08.95-.08.29-.2.54-.37.76-.17.21-.38.39-.63.52-.25.13-.54.2-.88.23-.32.02-.6-.01-.86-.09-.26-.08-.48-.21-.66-.39-.19-.18-.33-.41-.44-.68-.11-.27-.18-.59-.2-.96-.02-.34,0-.66.08-.95.08-.29.2-.54.37-.75.17-.21.38-.39.63-.52.25-.13.54-.21.88-.23.32-.02.6.01.86.09.26.08.48.21.66.39.19.18.33.4.44.68.11.27.18.59.2.96Zm-.78.08c-.02-.27-.06-.51-.13-.71-.07-.2-.17-.36-.29-.49-.12-.13-.26-.22-.42-.28-.16-.06-.34-.08-.54-.07-.23.01-.42.07-.58.17-.16.1-.28.23-.38.38-.09.16-.16.33-.19.53s-.05.41-.03.63c.02.27.06.51.14.71.07.2.17.37.29.5.12.13.26.22.42.28.16.06.34.08.54.07.23-.01.42-.07.58-.17.16-.1.28-.23.38-.38.09-.16.16-.33.19-.54.04-.2.05-.41.03-.63Z"/>
    <path class="cls-3" d="m241.37,23.79l.7-.04.07.81c.24-.33.48-.57.73-.73.24-.16.5-.24.75-.26.46-.03.81.1,1.07.38.25.28.39.71.41,1.29l-.77.05c-.02-.39-.09-.66-.22-.83-.13-.17-.32-.24-.55-.23-.1,0-.2.03-.31.07-.1.04-.2.11-.31.2-.1.09-.21.2-.33.33s-.24.29-.37.48l.18,2.83-.77.05-.28-4.4Z"/>
    <path class="cls-3" d="m248.91,25.69l-2.62.17-.05-.72,2.62-.17.05.72Z"/>
    <path class="cls-3" d="m253.86,26.21c0,.16,0,.3-.05.42-.04.12-.11.24-.19.34-.08.1-.18.19-.3.26-.12.08-.24.14-.37.19-.13.05-.27.09-.41.12-.14.03-.28.05-.42.06-.3.02-.57.02-.82.01-.25,0-.5-.04-.74-.08l-.04-.7c.26.06.52.09.78.12.26.02.51.03.76,0,.37-.02.63-.09.8-.2.17-.11.25-.26.24-.44,0-.08-.02-.15-.05-.21-.03-.06-.09-.12-.16-.17-.08-.05-.19-.1-.35-.16-.16-.05-.37-.11-.64-.17-.2-.05-.39-.1-.56-.17-.17-.06-.32-.14-.45-.24-.13-.09-.23-.21-.31-.34-.08-.13-.12-.29-.14-.48,0-.12.01-.26.06-.41.05-.15.14-.29.27-.43.13-.13.31-.25.54-.35s.52-.16.87-.18c.17-.01.36-.01.58,0,.21,0,.43.03.67.06l.04.68c-.24-.04-.47-.07-.69-.09-.22-.01-.41-.02-.56,0-.19.01-.35.04-.48.07-.13.04-.23.09-.31.14-.08.06-.13.12-.16.19-.03.07-.04.15-.04.23,0,.08.03.15.06.21.03.06.1.12.18.18.09.05.21.11.36.16.15.05.35.1.6.16.26.06.49.13.67.2.18.07.33.16.45.25s.21.21.26.33c.06.13.09.27.1.43Z"/>
    <path class="cls-3" d="m258.35,26.96c-.19.09-.39.16-.6.21-.21.05-.42.08-.64.1-.7.04-1.24-.11-1.64-.46-.4-.35-.62-.89-.67-1.62-.02-.35.01-.67.1-.96.09-.29.23-.54.41-.76s.41-.38.67-.51c.26-.13.56-.2.89-.22.23-.01.44-.01.64,0,.2.02.39.06.58.12l.05.73c-.2-.09-.4-.15-.6-.18-.2-.03-.41-.04-.62-.03-.2.01-.38.06-.55.15-.17.08-.32.2-.44.35-.12.15-.21.33-.28.53-.06.21-.09.44-.07.69.03.53.19.92.46,1.17.28.25.64.36,1.1.33.21-.01.41-.05.6-.11.19-.06.38-.14.55-.25l.04.71Z"/>
    <path class="cls-3" d="m262.97,26.83l-.76.05-.18-2.81c-.02-.34-.1-.59-.24-.75-.14-.16-.33-.23-.56-.22-.1,0-.2.03-.28.06-.09.03-.18.09-.27.16-.09.07-.19.17-.3.3-.11.12-.23.28-.37.46l.19,2.92-.76.05-.4-6.2.76-.05.11,1.79.02.7c.11-.15.22-.28.33-.38.11-.1.22-.19.33-.26.11-.07.23-.12.34-.15.12-.04.24-.06.37-.06.44-.03.79.08,1.04.34s.4.65.44,1.19l.18,2.87Z"/>
    <path class="cls-3" d="m267.48,24.1c0,.11.01.2.01.27,0,.07,0,.14,0,.21l-3.09.2c.03.45.18.79.44,1.01.27.22.64.32,1.11.29.13,0,.26-.02.38-.04.13-.02.25-.04.37-.07.12-.03.23-.05.34-.08.11-.03.21-.06.3-.09l.04.63c-.2.07-.44.13-.69.19-.26.05-.53.09-.81.11-.38.02-.71,0-.98-.09-.28-.08-.51-.22-.7-.4s-.33-.41-.43-.69c-.1-.28-.16-.59-.19-.95-.02-.31,0-.61.08-.89.07-.28.19-.53.34-.75.16-.22.36-.4.6-.54.24-.14.52-.22.83-.24.31-.02.58.01.83.09.24.08.45.21.62.37.17.17.31.37.41.62.1.25.16.53.18.84Zm-.8-.06c0-.2-.03-.38-.09-.53-.06-.16-.14-.29-.24-.4s-.23-.19-.38-.25c-.15-.06-.32-.08-.51-.07-.17.01-.32.05-.45.13-.13.07-.25.17-.34.29-.09.12-.16.27-.21.44-.05.17-.08.35-.08.55l2.32-.15Z"/>
    <path class="cls-3" d="m271.55,26.28l-.2-3.16c0-.14-.02-.25-.04-.34-.02-.09-.04-.15-.06-.21-.03-.05-.06-.08-.09-.1s-.08-.03-.13-.02c-.06,0-.11.02-.16.06-.05.04-.1.1-.15.18-.05.08-.11.19-.17.33-.06.13-.13.3-.21.5l.18,2.83-.7.04-.2-3.08c0-.16-.02-.29-.04-.39-.02-.1-.04-.17-.06-.23-.03-.05-.06-.09-.09-.11s-.08-.03-.13-.02c-.05,0-.1.02-.15.05-.04.03-.09.09-.15.17-.05.08-.11.19-.17.32-.06.14-.13.31-.22.52l.18,2.83-.7.04-.28-4.4.58-.04.09.84c.06-.17.13-.32.19-.44.06-.12.13-.22.2-.3.07-.08.15-.14.23-.17.08-.04.18-.06.28-.07.24-.02.42.05.55.2s.21.38.23.71c.06-.16.12-.3.18-.42.06-.12.13-.23.2-.31.07-.08.15-.15.25-.2.09-.05.2-.08.32-.08.55-.04.86.37.91,1.22l.21,3.21-.7.04Z"/>
    <path class="cls-3" d="m276.46,23.52c0,.11.01.2.01.27,0,.07,0,.14,0,.21l-3.09.2c.03.45.18.79.44,1.01.27.23.64.32,1.11.29.13,0,.26-.02.39-.04.13-.02.25-.04.37-.07s.23-.05.34-.08c.11-.03.21-.06.3-.09l.04.63c-.2.07-.44.13-.69.19-.26.05-.53.09-.81.11-.38.02-.71,0-.98-.09-.28-.08-.51-.22-.7-.4-.19-.18-.33-.41-.43-.69-.1-.28-.16-.59-.19-.95-.02-.31,0-.61.08-.89.07-.28.19-.53.34-.75.16-.22.36-.4.6-.54.24-.14.52-.22.83-.24.31-.02.58.01.83.09.24.08.45.21.62.37.17.17.31.37.41.62.1.25.16.53.18.84Zm-.8-.06c0-.2-.03-.37-.09-.53s-.14-.29-.24-.41c-.11-.11-.23-.19-.38-.25-.15-.06-.32-.08-.52-.07-.17,0-.32.05-.45.13-.13.07-.25.17-.34.29-.09.12-.16.27-.21.44-.05.17-.08.35-.08.55l2.32-.15Z"/>
  </g>
  <g>
    <path class="cls-3" d="m182.41,54.96c0,.16,0,.29-.05.42-.04.12-.11.24-.19.34-.08.1-.18.19-.3.26s-.24.14-.37.19c-.13.05-.27.09-.41.12-.14.03-.28.05-.42.06-.3.02-.57.02-.83.01-.25,0-.5-.04-.74-.08l-.04-.7c.26.06.52.09.78.12.26.02.51.03.76,0,.37-.02.63-.09.8-.2.17-.11.25-.26.24-.44,0-.08-.02-.15-.06-.21-.03-.06-.09-.12-.16-.17-.08-.05-.19-.1-.35-.16-.16-.05-.37-.11-.64-.17-.2-.05-.39-.1-.56-.17-.17-.06-.32-.14-.45-.24-.13-.09-.23-.21-.31-.34-.08-.13-.12-.29-.14-.48,0-.12.01-.26.06-.41s.14-.29.27-.43c.13-.13.31-.25.54-.35s.52-.16.87-.18c.17-.01.36-.01.58,0,.21,0,.43.03.66.06l.04.68c-.24-.04-.47-.07-.69-.09-.22-.01-.4-.01-.56,0-.19.01-.35.04-.48.07-.13.04-.23.09-.31.14-.08.06-.13.12-.16.19-.03.07-.04.15-.04.23s.02.15.06.21c.03.06.09.12.18.18.09.05.21.11.36.16.15.05.35.1.59.16.27.06.49.12.67.2.18.07.33.16.45.25.12.1.21.21.26.33.06.13.09.27.1.43Z"/>
    <path class="cls-3" d="m187.01,55.88l-.68.04-.07-.71c-.12.16-.24.3-.35.4-.11.11-.22.2-.34.27-.11.07-.23.12-.34.15-.12.03-.24.05-.37.06-.45.03-.8-.08-1.05-.33-.25-.25-.39-.65-.42-1.18l-.18-2.88.76-.05.18,2.82c.04.68.32,1,.83.96.09,0,.18-.03.27-.06.09-.03.18-.09.27-.16.09-.08.19-.17.3-.3.11-.12.22-.28.35-.47l-.19-2.92.76-.05.28,4.4Z"/>
    <path class="cls-3" d="m191.56,53.29c.02.37,0,.7-.09.99-.08.29-.21.55-.38.76-.17.21-.39.38-.65.5-.26.12-.56.2-.89.22-.26.02-.53,0-.8-.02-.28-.03-.55-.09-.82-.19l-.38-5.94.76-.05.11,1.71.02.82c.2-.31.42-.53.66-.67.24-.14.51-.22.79-.23.25-.02.48.02.67.12.2.09.37.23.51.42.14.18.25.41.33.67.08.27.13.56.15.9Zm-.78.09c-.01-.23-.05-.44-.09-.63s-.11-.35-.19-.49c-.08-.13-.18-.23-.3-.3-.12-.07-.26-.1-.42-.09-.1,0-.19.03-.29.06s-.2.09-.3.17c-.1.08-.21.18-.32.31-.11.13-.23.28-.35.46l.14,2.14c.15.05.31.08.46.11.16.02.31.03.45.02.18-.01.34-.05.5-.12.16-.07.29-.17.4-.3.11-.14.2-.32.26-.54s.08-.49.06-.81Z"/>
    <path class="cls-3" d="m195.34,51.55c.09.1.16.21.21.35.05.13.09.28.1.44.01.23-.01.44-.08.63-.07.19-.18.36-.32.51-.14.15-.32.26-.53.35-.21.09-.44.14-.69.16-.18.01-.36,0-.52-.03-.16-.03-.29-.07-.39-.12-.05.09-.09.17-.13.24-.03.08-.05.16-.04.25,0,.11.07.2.18.27s.25.1.43.09l1.16-.03c.22,0,.42,0,.61.04.19.04.35.1.49.18.14.08.25.19.33.33.08.13.13.29.14.47.01.2-.02.38-.09.57-.07.18-.19.34-.36.49-.17.15-.39.26-.65.36-.27.1-.59.16-.96.18-.36.02-.66.01-.92-.03-.25-.04-.46-.11-.63-.2-.17-.09-.29-.2-.37-.34-.08-.13-.13-.29-.14-.45-.01-.21.02-.4.11-.57.09-.17.23-.33.43-.49-.08-.03-.15-.07-.21-.12-.06-.05-.11-.1-.15-.17-.04-.06-.07-.12-.09-.19-.02-.07-.04-.14-.04-.21-.01-.19.02-.37.1-.53.08-.16.17-.32.29-.47-.06-.06-.11-.13-.16-.19-.05-.06-.09-.13-.12-.2-.04-.07-.06-.15-.08-.24s-.04-.18-.04-.29c-.01-.23.01-.44.08-.63.07-.19.18-.36.32-.51.14-.14.32-.26.52-.35.21-.09.44-.14.7-.16.11,0,.21,0,.31,0,.1,0,.19.02.27.04l1.6-.1.04.62-.71.04Zm-2.37,4.59c.01.21.13.35.35.43.22.08.53.11.91.08.24-.02.45-.05.61-.1.16-.05.29-.12.39-.2.1-.08.16-.16.2-.26.04-.09.05-.19.05-.29-.01-.18-.09-.31-.24-.38-.15-.08-.38-.11-.68-.11l-1.15.03c-.09.07-.17.14-.23.21s-.1.13-.13.2c-.03.07-.05.13-.06.19-.01.06-.01.13,0,.19Zm0-3.62c0,.14.04.27.09.38.05.11.13.21.22.29.09.08.2.13.31.17s.25.05.39.04c.15,0,.29-.04.4-.1.11-.06.21-.13.29-.23.07-.09.13-.2.16-.32.04-.12.05-.24.04-.36,0-.14-.04-.27-.09-.38s-.13-.21-.22-.29-.19-.13-.31-.17c-.12-.04-.25-.05-.39-.04-.15,0-.29.05-.4.11-.11.06-.21.14-.29.23-.07.09-.13.2-.17.31-.04.12-.05.24-.04.36Z"/>
    <path class="cls-3" d="m196.78,50.83l.7-.04.07.81c.24-.33.48-.57.73-.73.24-.16.5-.24.75-.26.46-.03.81.1,1.07.38.25.28.39.71.41,1.29l-.77.05c-.02-.39-.09-.66-.22-.83-.13-.17-.32-.24-.55-.23-.1,0-.2.03-.31.07-.1.04-.2.11-.31.2-.1.09-.21.2-.33.33-.11.13-.24.29-.37.48l.18,2.83-.77.05-.28-4.4Z"/>
    <path class="cls-3" d="m202.61,51.09l-1.3.08-.04-.63,2.07-.13.24,3.77,1.31-.08.04.64-3.53.23-.04-.64,1.45-.09-.2-3.14Zm.11-2.5c.08,0,.16,0,.24.03.08.03.14.07.2.12.06.05.1.11.14.18.04.07.06.15.06.23,0,.08,0,.16-.03.23-.03.08-.06.14-.11.2-.05.06-.11.11-.18.14s-.15.06-.23.06c-.08,0-.17,0-.24-.03s-.14-.06-.2-.12c-.06-.05-.1-.11-.14-.18-.04-.07-.06-.15-.06-.23,0-.08,0-.16.03-.24.03-.07.07-.14.12-.2.05-.06.11-.11.18-.14.07-.04.15-.06.23-.06Z"/>
    <path class="cls-3" d="m205.46,52.58c-.02-.37,0-.71.09-1.01.08-.3.21-.55.39-.76.17-.21.39-.38.65-.5.26-.12.55-.19.87-.21.14,0,.28,0,.42,0,.14,0,.27.03.41.06l-.12-1.85.77-.05.4,6.2-.68.04-.08-.83c-.19.32-.41.57-.65.73-.24.16-.5.26-.79.28-.25.02-.48-.02-.67-.12-.2-.09-.37-.23-.51-.41-.14-.18-.25-.41-.33-.67-.08-.26-.13-.56-.15-.89Zm.78-.1c.03.53.14.92.31,1.18.17.25.4.37.69.35.19-.01.39-.11.6-.3.2-.19.41-.46.63-.81l-.13-2.04c-.13-.05-.27-.09-.42-.11-.15-.02-.31-.03-.46-.02-.42.03-.73.18-.95.47-.21.28-.3.71-.27,1.28Z"/>
  </g>
  <path class="cls-1" d="m68.63,169.02c-3.4,0-6.74-.1-10.07.04-2.22.09-3.89-.38-5.35-1.85-1.5-1.52-3.27-2.85-4.95-4.24-.93-.77-.99-1.48-.04-2.28,2.17-1.81,4.27-3.68,6.5-5.44.51-.4,1.41-.63,2.14-.64,3.89-.06,7.77-.03,11.78-.03v-3.6c-.97,0-1.91.03-2.84,0-2.34-.1-4.03-1.51-4.08-3.5-.06-2.41-.05-4.82,0-7.23.04-2.14,1.68-3.55,4.22-3.67.88-.04,1.77,0,2.75,0,.22-1.89-.32-3.83,1.65-5.17,1.24-.85,2.67-.86,4.12-.81,3.02.1,3.82,1.16,4.42,5.92.5.02,1.03.06,1.56.06,3.4,0,6.79-.05,10.18.04.81.02,1.78.33,2.36.79,2.13,1.66,4.14,3.43,6.17,5.18,1.14.98,1.14,1.48.01,2.45-2.04,1.74-4.05,3.51-6.17,5.18-.55.44-1.45.76-2.21.78-3.39.08-6.79.04-10.18.04-.54,0-1.08,0-1.73,0v3.6c.89,0,1.72-.02,2.56,0,2.7.1,4.34,1.51,4.38,3.8.03,2.28.03,4.57,0,6.85-.03,2.3-1.7,3.71-4.38,3.77-.83.02-1.67,0-2.58,0v9.61c1.62,0,3.17-.1,4.69.04.86.08,1.81.41,2.47.88,1.37.98,2.57,2.13,3.85,3.2.98.82,1.37,1.77.8,2.88-.54,1.06-1.59,1.44-2.9,1.44-9.34,0-18.67,0-28.01,0-1.33,0-2.36-.41-2.88-1.47-.52-1.05-.2-1.99.75-2.77.07-.06.15-.12.21-.18,2.79-2.82,5.81-5.19,10.82-3.75,0-3.45,0-6.58,0-9.85Zm-17.75-7.22c1.86,1.56,3.57,3.03,5.34,4.45.31.25.89.36,1.35.36,7.83.02,15.66,0,23.49.02,1.3,0,1.94-.49,1.93-1.6-.02-2.11-.03-4.22,0-6.34.02-1.17-.58-1.68-1.98-1.68-7.83.02-15.66,0-23.49.03-.52,0-1.16.23-1.55.54-1.68,1.32-3.28,2.71-5.09,4.22Zm45.76-18c-1.83-1.53-3.43-2.92-5.11-4.24-.39-.31-1.03-.54-1.55-.54-7.83-.03-15.66-.01-23.49-.03-1.4,0-2,.51-1.98,1.68.03,2.07,0,4.14.01,6.21.01,1.35.45,1.72,2.07,1.72,7.78,0,15.56.01,23.34-.01.46,0,1.03-.12,1.35-.36,1.78-1.41,3.5-2.88,5.35-4.42Zm-8.58,40.8c-1.36-1.13-2.38-2.06-3.51-2.88-.48-.34-1.2-.62-1.81-.63-5.99-.05-11.98-.03-17.97-.02-.43,0-.98,0-1.27.21-1.35.96-2.62,1.99-3.92,3,.11.1.21.21.32.31,9.25,0,18.5,0,28.17,0Zm-12.29-6.03c0-3.22,0-6.32,0-9.46-1.41,0-2.72,0-4.04,0,0,3.2,0,6.3,0,9.46,1.37,0,2.64,0,4.04,0Zm-4.04-27.51v3.43c1.4,0,2.71,0,4.01,0v-3.43c-1.4,0-2.67,0-4.01,0Zm4.21-14.57c-.37-1.24.68-2.65-.94-3.32-.75-.31-2.44-.25-2.72.14-.61.87-.59,2.05-.85,3.18,1.69,0,2.96,0,4.5,0Z"/>
  <g>
    <path class="cls-1" d="m67.62,144.69c.09,0,.17.02.24.05s.14.08.2.14c.06.06.1.13.13.21.03.08.05.17.05.26s-.02.17-.05.25c-.03.08-.08.15-.13.21-.06.06-.12.1-.2.14s-.16.05-.24.05-.17-.02-.25-.05c-.08-.03-.14-.08-.2-.14-.06-.06-.1-.13-.13-.21-.03-.08-.05-.16-.05-.25s.02-.18.05-.26c.03-.08.08-.15.13-.21.06-.06.12-.11.2-.14.08-.03.16-.05.25-.05Z"/>
    <path class="cls-1" d="m72.58,145.78c-.17.07-.35.12-.53.15s-.37.05-.56.05c-.6,0-1.07-.17-1.39-.5s-.49-.83-.49-1.47c0-.31.05-.59.14-.84.09-.25.23-.47.39-.65s.37-.32.61-.42c.23-.1.49-.15.78-.15.2,0,.38.01.55.04s.34.08.49.14v.65c-.16-.09-.33-.15-.5-.19-.17-.04-.35-.06-.53-.06-.17,0-.33.03-.48.1-.15.07-.28.16-.4.29s-.2.28-.27.46-.1.38-.1.61c0,.47.11.83.34,1.06.22.24.53.35.93.35.18,0,.35-.02.52-.06.17-.04.33-.1.49-.19v.63Z"/>
    <path class="cls-1" d="m75.56,145.92l-.02-.53c-.21.21-.42.36-.63.46s-.44.14-.67.14c-.22,0-.4-.03-.56-.09s-.28-.14-.38-.24c-.1-.1-.17-.22-.22-.35s-.07-.28-.07-.44c0-.39.14-.7.43-.92.28-.22.71-.33,1.26-.33h.79v-.34c0-.23-.07-.42-.22-.56-.14-.14-.36-.21-.66-.21-.22,0-.43.02-.64.07s-.42.12-.65.21v-.61c.08-.03.18-.06.28-.09s.21-.06.32-.08.23-.04.36-.06.25-.02.38-.02c.23,0,.44.03.62.08.18.05.34.13.47.24.13.11.23.24.29.4.07.16.1.35.1.57v2.7h-.59Zm-.07-1.79h-.84c-.16,0-.31.02-.42.05-.12.03-.22.08-.29.14-.08.06-.13.14-.17.22s-.06.19-.06.29c0,.08.01.15.03.22.02.07.06.13.11.18.05.05.12.1.2.13.08.03.18.05.3.05.15,0,.33-.05.52-.14s.4-.25.62-.45v-.7Z"/>
    <path class="cls-1" d="m79.62,144.85c0,.14-.02.26-.07.37s-.11.21-.19.29-.17.16-.27.22c-.1.06-.21.11-.33.15s-.24.07-.36.09c-.12.02-.25.03-.36.03-.26,0-.5-.01-.71-.04s-.43-.06-.64-.11v-.62c.22.07.44.11.66.15s.44.05.66.05c.32,0,.55-.04.7-.13s.23-.21.23-.38c0-.07-.01-.13-.04-.19s-.07-.11-.13-.16c-.06-.05-.16-.1-.29-.16s-.31-.12-.54-.19c-.17-.05-.33-.11-.48-.18s-.27-.15-.38-.24c-.11-.09-.19-.2-.25-.32-.06-.12-.09-.27-.09-.43,0-.11.02-.23.07-.36s.13-.25.25-.36c.12-.11.28-.21.48-.28.2-.07.46-.11.76-.11.15,0,.31,0,.5.03s.37.05.57.09v.61c-.21-.05-.4-.09-.59-.12-.19-.02-.35-.04-.48-.04-.16,0-.3.01-.42.04-.11.03-.2.06-.27.11-.07.05-.12.1-.15.16-.03.06-.05.13-.05.2s.01.13.04.19.08.11.15.17.17.11.3.16.3.11.5.17c.23.07.42.14.57.21s.28.16.38.25.17.19.21.31c.04.11.06.25.06.39Z"/>
    <path class="cls-1" d="m83.17,145.87c-.15.04-.3.07-.46.08-.16.02-.32.03-.49.03-.48,0-.83-.11-1.07-.33-.24-.22-.35-.56-.35-1.03v-2.05h-1.07v-.57h1.07v-1.08l.66-.18v1.25h1.71v.57h-1.71v1.99c0,.28.07.49.22.63s.36.21.64.21c.12,0,.25,0,.4-.03.14-.02.29-.05.45-.09v.59Z"/>
    <path class="cls-1" d="m84.89,140.96h-1.13v-.56h1.79v4.95h1.13v.57h-3.05v-.57h1.25v-4.39Z"/>
    <path class="cls-1" d="m90.31,143.75c0,.1,0,.18,0,.24,0,.07,0,.13-.01.18h-2.67c0,.4.11.71.33.92.22.21.53.32.94.32.11,0,.22,0,.33-.01s.22-.02.32-.04c.1-.02.2-.03.3-.05s.18-.04.26-.06v.56c-.18.05-.38.09-.61.13-.23.03-.46.05-.7.05-.33,0-.61-.05-.84-.14-.23-.09-.43-.22-.58-.4-.15-.17-.26-.39-.33-.64-.07-.25-.11-.54-.11-.85,0-.28.04-.54.12-.78s.19-.46.34-.65.33-.33.54-.44c.21-.11.46-.16.73-.16s.5.04.71.13c.2.09.38.21.52.37.14.16.25.35.32.57s.11.48.11.76Zm-.69-.1c0-.17,0-.33-.05-.48s-.1-.27-.19-.37c-.08-.1-.19-.19-.32-.24-.13-.06-.27-.09-.44-.09-.14,0-.28.03-.39.09-.12.06-.22.14-.31.24s-.16.23-.21.38c-.05.15-.09.31-.1.48h2Z"/>
  </g>
</svg>