<?xml version="1.0" encoding="UTF-8"?>
<svg id="Layer_1" data-name="Layer 1" xmlns="http://www.w3.org/2000/svg" xmlns:xlink="http://www.w3.org/1999/xlink" viewBox="0 0 2000 175">
  <defs>
    <style>
      .cls-1 {
        fill: none;
      }

      .cls-1, .cls-2, .cls-3 {
        stroke-width: 0px;
      }

      .cls-4 {
        opacity: .58;
      }

      .cls-5 {
        clip-path: url(#clippath);
      }

      .cls-2, .cls-3 {
        fill: #2ad2c9;
      }

      .cls-3 {
        opacity: .35;
      }
    </style>
    <clipPath id="clippath">
      <rect class="cls-1" y="-9.5" width="2000" height="200.03"/>
    </clipPath>
  </defs>
  <g class="cls-5">
    <path class="cls-3" d="M95.33,27.62c102.58,10.1,120.7,1.08,256,4.99,255.45,7.38,273.4,41.93,469.33,39.89,97.24-1.01,65.01-9.23,322.67-26.18,158.18-10.4,238.98-15.52,322.67-11.22,137.63,7.07,146.42,24.56,272,23.68,103.25-.72,170.76-1.19,240-21.19,24.51-7.08,15.45-7.09,32-4.43,46.02,7.4,87.16,74.86,24.33,97.92-45.34,16.64-108.5-2.05-229.67-14.96-125.31-13.34-216.87-10.14-400-3.74-250.19,8.75-244.98,36.45-453.33,46.12-350.13,16.26-382.74-61.14-741.33-42.38-89.93,4.7-186.91,26.98-232,.59,0,0-4.44-68.76-4.44-91.56,0-15.94,75.01-2.15,121.78,2.46Z"/>
    <path class="cls-3" d="M-12.35,93.71c7.1-5.31,39.32-27.31,152-33.66,86.81-4.89,116.27,5.44,242.67,14.96,192.61,14.51,222.76,10.45,309.33,23.68,104.47,15.96,307.62-2.1,437.81-27.98,84.56-16.81,220.07-25.05,274.19-20.63,115.21,9.41,151.48,15.19,240.47,26.86,100.24,13.14,125.33,17.09,269.33-3.51,66.84-9.56,68.35-12.52,87.86-4.65,40.1,16.18,41.39,60.34,0,83.52-65.92,36.91-202.42-.49-493.67-3.74-178.03-1.99-160.39,11.61-448,17.45-222.97,4.53-334.45,6.79-464-2.49-209.66-15.02-444.6-52.62-557.33-31.16-9.81,1.87-45.17,9.22-61.33,2.49-17.11-7.12-7.22-27.76,10.67-41.14Z"/>
    <path class="cls-3" d="M1915.87,138.04c-102.58-10.1-120.7-1.08-256-4.99-255.45-7.38-273.4-41.93-469.33-39.89-97.24,1.01-65.01,9.23-322.67,26.18-158.18,10.4-238.98,15.52-322.67,11.22-137.63-7.07-146.42-24.56-272-23.68-103.25.72-170.76,1.19-240,21.19-24.51,7.08-39.78,13.88-56.33,11.22-46.02-7.4-62.82-81.65,0-104.71,45.34-16.64,108.5,2.05,229.67,14.96,125.31,13.34,216.87,10.14,400,3.74,250.19-8.75,244.98-36.45,453.33-46.12,350.13-16.26,382.74,61.14,741.33,42.38,89.93-4.7,162.81-27.03,207.91-.64,0,0,5.33,64.59,5.33,87.38,0,15.94-51.8,6.37-98.57,1.76Z"/>
  </g>
  <g class="cls-4">
    <path class="cls-2" d="M1643.05,23.9c-.38,5.4-.76,10.8-1.14,16.2-.04.58-.11,1.06.63,1.39,1.42.63,1.35,1.97.91,4.21-.27,1.35-1.39,1.57-2.63,1.47-3.07-.25-6.15-.44-9.27-.66-1.21,3.48-3.5,5.63-7.27,5.43-3.9-.21-5.93-2.69-6.67-6.4-3.77-.26-7.47-.55-11.17-.74-.33-.02-.86.5-1.02.88-1.25,2.93-3.9,4.67-6.96,4.49-3.09-.18-5.61-2.28-6.33-5.46-.2-.88-.6-1.03-1.35-1.07-2.19-.12-4.38-.28-6.56-.46-1.5-.13-2.15-.88-2.12-2.37.04-1.7.05-3.42,2.28-3.71.3-4.3.57-8.46.89-12.6.45-5.82,4.12-10.25,9.76-11.74.8-.21,1.08-.52,1.12-1.32.15-2.86.38-5.71.59-8.57.14-1.93.83-2.53,2.75-2.41,2.68.17,5.36.37,8.03.56,4.24.3,8.48.58,12.72.9,1.68.13,2.35.88,2.28,2.49-.02.51-.07,1.03-.1,1.49.28.09.36.14.45.15,4.28.31,8.57.61,12.85.93,1.83.14,2.46.88,2.35,2.68-.11,1.78-.25,3.57-.38,5.38,4.57,2.06,5.69,3.95,5.34,8.88ZM1586.72,33c1.05.53,2.23.82,2.9,1.57.62.7.68,1.89,1.04,3.02l1.63.11c.03-.48.07-.95.1-1.43.3-4.24.59-8.48.9-12.72.35-4.74,3.38-7.36,8.12-7.04,2.04.14,4.09.29,6.27.44-.51,7.27-1.01,14.43-1.52,21.68l2,.14c.12-1.68.23-3.36.36-5.03.17-2.2.79-2.75,2.97-2.6,6.74.47,13.47.94,20.21,1.42,2.17.15,2.75.82,2.61,2.98-.1,1.56-.21,3.12-.31,4.69,0,.08.03.17.06.36l1.83.13c.11-1.55.22-3.14.33-4.73.18-2.55.68-2.99,3.24-2.89.27.01.53-.01.88-.02l.13-1.85c-2.56-.18-5.13-.36-7.78-.55l.14-1.98,7.79.55c.19-2.69.54-5.22.5-7.75-.05-2.58-2.11-4.34-4.92-4.55-6.96-.51-13.92-.99-20.88-1.47-5.35-.38-10.71-.75-16.06-1.13-2.63-.19-5.06.4-7.26,1.89-.5.34-.92.62-.56,1.39.23.49.2,1.14.16,1.7-.17,2.77-.37,5.53-.57,8.3-.21,3.02-1.04,3.81-4.22,3.88l-.1,1.49ZM1604.12,38.52l.68-9.74c-3.24-.23-6.42-.45-9.7-.68l-.68,9.7c3.48-2.25,6.63-2,9.7.72ZM1599.74,18.52c-2.36.11-4.1,1.99-4.36,4.34-.11,1.01-.15,2.02-.22,3.1,3.33.23,6.52.46,9.79.69.18-2.61.36-5.16.55-7.77-1.96-.14-3.86-.45-5.75-.36ZM1619.94,39.67c.13-1.92.27-3.8.41-5.78l-3.77-.27c-.08.52-.17,1.07-.28,1.74l-1.84-.13c0-.58,0-1.14,0-1.77l-3.82-.27c-.13,1.92-.27,3.8-.41,5.8,3.3.23,6.45.45,9.71.68ZM1624.31,49.96c2.72.19,5.1-1.88,5.29-4.6.19-2.7-1.9-5.1-4.61-5.29-2.71-.19-5.09,1.88-5.27,4.61-.19,2.73,1.86,5.09,4.6,5.27ZM1598.61,48.16c2.72.16,5.1-1.95,5.24-4.65.14-2.71-1.97-5.08-4.67-5.23-2.73-.16-5.04,1.92-5.21,4.67-.16,2.74,1.9,5.06,4.64,5.22ZM1632.25,34.7l-3.76-.26c-.11.63-.21,1.19-.31,1.8l-1.82-.13c-.01-.62-.02-1.18-.03-1.82l-3.79-.27-.31,4.43c.44-.1.84-.21,1.25-.27,2.04-.31,3.86.19,5.55,1.39.76.54,1.73.8,2.81,1.28l.43-6.15ZM1598.86,2.46c-.23,3.27-.46,6.5-.69,9.78l1.85.13.27-3.82c.71-.01,1.27-.02,1.94-.03l.41-5.8c-1.3-.09-2.49-.17-3.78-.27ZM1606.3,8.97l-.27,3.81,1.87.13.68-9.71-3.77-.26-.4,5.74c.63.1,1.19.19,1.89.3ZM1611.94,13.2l.27-3.82c.69-.01,1.25-.02,1.9-.04.13-1.92.27-3.81.41-5.77-1.24-.09-2.42-.17-3.72-.26-.23,3.24-.45,6.45-.69,9.75l1.84.13ZM1616.7,3.73c-.14,1.93-.27,3.78-.4,5.75.55.09,1.11.19,1.84.31l-.27,3.83,1.87.13c.23-3.21.45-6.43.69-9.75l-3.72-.26ZM1635.65,14.87c.14-1.94.27-3.82.41-5.78-1.95-.14-3.84-.27-5.79-.41l-.12,1.76c.56.09,1.11.18,1.85.3l-.27,3.84,3.93.28ZM1625.78,14.19c.09-1.27.18-2.5.27-3.82.69-.02,1.25-.03,1.92-.05l.12-1.76-5.71-.4c-.13,1.85-.26,3.74-.4,5.76,1.29.09,2.47.17,3.8.27ZM1605.89,42.66c3.99.28,7.94.56,11.92.84.21-.58.4-1.11.64-1.77-4.33-.3-8.58-.6-12.98-.91.16.69.29,1.24.42,1.85ZM1631.23,42.58c.14.66.27,1.24.41,1.88,3.24.23,6.47.45,9.8.69l.13-1.84c-3.44-.24-6.8-.48-10.34-.73ZM1588.94,28.43c.28-3.18.47-6.36.71-9.9-2.76,3.39-2.4,7.13-2.71,10.75,1,.28,1.89.36,1.99-.86ZM1584.19,41.18c2.49.18,4.97.42,7.45.45.37,0,.75-.98,1.28-1.71-3.05-.21-5.75-.4-8.6-.6l-.13,1.87ZM1639.77,41.04c.13-1.9.27-3.78.4-5.76l-1.76-.12-.4,5.76,1.76.12ZM1615.83,13.47l.12-1.78-1.83-.13-.12,1.78,1.83.13ZM1627.87,14.31l1.81.13.13-1.78-1.81-.13-.13,1.78ZM1604.07,10.86l-1.82-.13-.12,1.77,1.82.13.12-1.77ZM1586.42,37.53c.7-.22,1.28-.31,1.75-.59.16-.09.2-.83.05-.94-.45-.32-1.01-.47-1.64-.74l-.16,2.26Z"/>
    <path class="cls-2" d="M1636.77,19.06c1.34.14,2.3,1.06,2.34,2.38.05,1.84-.21,3.7-.35,5.58l-9.74-.68c.18-2.6.36-5.12.55-7.8,2.5.18,4.86.28,7.2.53ZM1633.75,20.77c-.74-.06-1.49-.11-2.31-.16-.09,1.35-.18,2.57-.27,3.88,1.91.13,3.8.27,5.77.41.54-4.56.46-3.81-3.18-4.12Z"/>
    <path class="cls-2" d="M1627.43,18.45c-.18,2.63-.36,5.15-.54,7.7-2.63-.18-5.19-.36-7.77-.55l.54-7.7c2.64.19,5.2.37,7.77.55ZM1621.55,19.97l-.27,3.81,3.75.26.27-3.81-3.75-.26Z"/>
    <path class="cls-2" d="M1616.98,25.45l-7.76-.55c.19-2.64.36-5.16.54-7.74,2.62.18,5.15.36,7.76.55-.19,2.68-.37,5.21-.54,7.74ZM1611.35,23.12l3.76.26c.09-1.25.18-2.5.27-3.83l-3.76-.26-.27,3.83Z"/>
    <path class="cls-2" d="M1630.61,30.45l.13-1.81c-7.22-.51-14.38-1.01-21.65-1.52l-.13,1.81c7.22.51,14.38,1.01,21.65,1.52Z"/>
    <path class="cls-2" d="M1596.85,30.22l-.13,1.81,1.88.13.13-1.81-1.88-.13Z"/>
    <path class="cls-2" d="M1624.61,48.02c-1.59,0-2.95-1.41-2.95-3.03,0-1.6,1.4-2.95,3.03-2.93,1.65.02,2.95,1.36,2.93,3.01-.02,1.64-1.37,2.96-3.01,2.95ZM1624.6,45.91c.35-.02.68-.51,1.01-.8-.32-.35-.59-.88-.98-.98-.27-.07-.7.43-1.33.87.61.46.97.93,1.3.91Z"/>
    <path class="cls-2" d="M1598.73,46.21c-1.6-.08-2.9-1.53-2.82-3.15.08-1.62,1.5-2.9,3.14-2.81,1.65.09,2.89,1.48,2.8,3.13-.09,1.65-1.49,2.91-3.12,2.83ZM1598.73,44.09c.4-.05.76-.52,1.13-.81-.29-.34-.54-.87-.89-.95-.32-.07-.75.35-1.43.72.56.52.91,1.08,1.19,1.04Z"/>
  </g>
  <g class="cls-4">
    <path class="cls-2" d="M1535.44,35.7c3.1-.75,4.76,1.09,6.26,3.24.03.05.07.09.11.14.52.61.65,1.29.28,2.01-.38.72-1.02.96-1.82.89-5.6-.51-11.2-1.01-16.8-1.5-.79-.07-1.39-.4-1.65-1.17-.27-.81.02-1.47.66-1.99.84-.69,1.63-1.44,2.51-2.06.42-.3,1.02-.48,1.54-.49.92-.02,1.84.14,2.81.22l.61-6.81c-.55-.05-1.05-.08-1.55-.14-1.61-.19-2.52-1.28-2.39-2.91.12-1.62.27-3.24.43-4.85.17-1.62,1.24-2.53,2.87-2.45.5.02,1,.09,1.53.13l.23-2.55c-.39-.04-.72-.06-1.04-.09-2.04-.18-4.08-.33-6.11-.57-.45-.05-.97-.33-1.28-.67-1.17-1.3-2.26-2.65-3.37-4-.62-.75-.58-1.1.16-1.73,1.33-1.13,2.65-2.27,4.03-3.33.38-.29.98-.46,1.47-.43,2.04.12,4.07.34,6.11.52.32.03.64.03.94.04.66-3.33,1.21-4.04,3.02-3.95.88.04,1.73.13,2.42.79,1.09,1.06.65,2.4.66,3.75.58.05,1.12.07,1.65.15,1.51.22,2.41,1.31,2.3,2.83-.13,1.71-.27,3.42-.46,5.12-.16,1.41-1.26,2.32-2.67,2.26-.56-.02-1.12-.1-1.7-.15l-.23,2.55c2.4.21,4.74.4,7.06.65.44.05.96.25,1.24.57,1.22,1.36,2.37,2.8,3.55,4.2.52.61.44,1.11-.17,1.61-1.1.89-2.24,1.74-3.24,2.74-.97.96-2,1.21-3.33,1.02-1.99-.28-4-.38-6.04-.57-.21,2.31-.41,4.53-.62,6.98ZM1544.38,21.3c-.21-.24-.58-.44-.89-.47-4.7-.44-9.39-.85-14.09-1.28-.84-.08-1.23.26-1.3,1.08-.12,1.5-.26,2.99-.4,4.49-.08.79.27,1.17,1.05,1.24,4.7.41,9.4.84,14.09,1.25.27.02.63-.02.83-.18,1.15-.91,2.27-1.86,3.48-2.86-.99-1.16-1.86-2.23-2.79-3.26ZM1523.79,12.77c.17.19.51.31.79.33,4.67.43,9.34.85,14,1.26.97.09,1.26-.15,1.35-1.11.14-1.47.25-2.93.4-4.4.08-.83-.24-1.22-1.08-1.3-4.7-.41-9.4-.84-14.1-1.24-.31-.03-.71.1-.96.3-1.09.85-2.14,1.75-3.33,2.73,1.01,1.19,1.95,2.32,2.93,3.42ZM1540.32,40.23c.07-.07.14-.14.21-.21-.72-.78-1.42-1.58-2.16-2.34-.16-.16-.49-.19-.75-.22-3.59-.33-7.19-.66-10.78-.95-.37-.03-.82.13-1.13.35-.73.52-1.4,1.12-2.29,1.85,5.81.52,11.35,1.02,16.9,1.51ZM1533.6,35.32c.2-2.24.4-4.43.6-6.7l-2.42-.22c-.2,2.22-.39,4.41-.6,6.7.84.07,1.6.14,2.42.22ZM1532.94,15.62l-.22,2.43,2.41.22.22-2.43-2.41-.22ZM1536.44,5.54c-.08-.82,0-1.65-.31-2.3-.14-.29-1.15-.43-1.62-.25-1.02.39-.47,1.45-.77,2.3l2.7.24Z"/>
  </g>
</svg>