<?xml version="1.0" encoding="UTF-8"?>
<svg id="Layer_1" data-name="Layer 1" xmlns="http://www.w3.org/2000/svg" xmlns:xlink="http://www.w3.org/1999/xlink" viewBox="0 0 2000 175">
  <defs>
    <style>
      .cls-1, .cls-2, .cls-3 {
        stroke-width: 0px;
      }

      .cls-1, .cls-3 {
        fill: #ffc700;
      }

      .cls-2 {
        fill: none;
      }

      .cls-4 {
        opacity: .58;
      }

      .cls-5 {
        clip-path: url(#clippath);
      }

      .cls-3 {
        opacity: .3;
      }
    </style>
    <clipPath id="clippath">
      <rect class="cls-2" y="-9.5" width="2000" height="200.03"/>
    </clipPath>
  </defs>
  <g class="cls-5">
    <path class="cls-3" d="M95.33,27.62c102.58,10.1,120.7,1.08,256,4.99,255.45,7.38,273.4,41.93,469.33,39.89,97.24-1.01,65.01-9.23,322.67-26.18,158.18-10.4,238.98-15.52,322.67-11.22,137.63,7.07,146.42,24.56,272,23.68,103.25-.72,170.76-1.19,240-21.19,24.51-7.08,15.45-7.09,32-4.43,46.02,7.4,87.16,74.86,24.33,97.92-45.34,16.64-108.5-2.05-229.67-14.96-125.31-13.34-216.87-10.14-400-3.74-250.19,8.75-244.98,36.45-453.33,46.12-350.13,16.26-382.74-61.14-741.33-42.38-89.93,4.7-186.91,26.98-232,.59,0,0-4.44-68.76-4.44-91.56,0-15.94,75.01-2.15,121.78,2.46Z"/>
    <path class="cls-3" d="M-12.35,93.71c7.1-5.31,39.32-27.31,152-33.66,86.81-4.89,116.27,5.44,242.67,14.96,192.61,14.51,222.76,10.45,309.33,23.68,104.47,15.96,307.62-2.1,437.81-27.98,84.56-16.81,220.07-25.05,274.19-20.63,115.21,9.41,151.48,15.19,240.47,26.86,100.24,13.14,125.33,17.09,269.33-3.51,66.84-9.56,68.35-12.52,87.86-4.65,40.1,16.18,41.39,60.34,0,83.52-65.92,36.91-202.42-.49-493.67-3.74-178.03-1.99-160.39,11.61-448,17.45-222.97,4.53-334.45,6.79-464-2.49-209.66-15.02-444.6-52.62-557.33-31.16-9.81,1.87-45.17,9.22-61.33,2.49-17.11-7.12-7.22-27.76,10.67-41.14Z"/>
    <path class="cls-3" d="M1915.87,138.04c-102.58-10.1-120.7-1.08-256-4.99-255.45-7.38-273.4-41.93-469.33-39.89-97.24,1.01-65.01,9.23-322.67,26.18-158.18,10.4-238.98,15.52-322.67,11.22-137.63-7.07-146.42-24.56-272-23.68-103.25.72-170.76,1.19-240,21.19-24.51,7.08-39.78,13.88-56.33,11.22-46.02-7.4-62.82-81.65,0-104.71,45.34-16.64,108.5,2.05,229.67,14.96,125.31,13.34,216.87,10.14,400,3.74,250.19-8.75,244.98-36.45,453.33-46.12,350.13-16.26,382.74,61.14,741.33,42.38,89.93-4.7,162.81-27.03,207.91-.64,0,0,5.33,64.59,5.33,87.38,0,15.94-51.8,6.37-98.57,1.76Z"/>
  </g>
  <g class="cls-4">
    <path class="cls-1" d="M1653.31,26.48c-.61,5.38-1.22,10.76-1.83,16.14-.07.58-.15,1.05.57,1.42,1.39.69,1.27,2.02.73,4.24-.32,1.34-1.45,1.51-2.69,1.35-3.06-.38-6.13-.7-9.24-1.06-1.36,3.43-3.73,5.48-7.49,5.11-3.89-.38-5.81-2.94-6.39-6.68-3.76-.43-7.44-.87-11.13-1.22-.33-.03-.88.46-1.06.84-1.38,2.87-4.1,4.5-7.14,4.19-3.08-.32-5.5-2.51-6.09-5.72-.16-.89-.56-1.05-1.3-1.13-2.18-.22-4.36-.46-6.53-.74-1.49-.19-2.11-.97-2.01-2.46.11-1.7.19-3.42,2.44-3.61.49-4.29.93-8.42,1.43-12.55.69-5.79,4.55-10.07,10.25-11.32.81-.18,1.1-.47,1.18-1.27.28-2.85.62-5.69.95-8.54.22-1.92.93-2.49,2.84-2.29,2.67.28,5.33.6,8,.9,4.22.48,8.45.94,12.67,1.44,1.68.2,2.31.98,2.17,2.59-.04.51-.11,1.02-.17,1.48.28.1.36.15.44.16,4.27.49,8.53.97,12.8,1.47,1.82.21,2.42.98,2.23,2.78-.19,1.78-.4,3.55-.6,5.36,4.48,2.25,5.52,4.19,4.96,9.1ZM1596.63,33.18c1.02.58,2.2.91,2.83,1.69.59.73.6,1.92.91,3.07l1.62.18c.05-.48.11-.95.16-1.42.48-4.22.95-8.45,1.44-12.67.55-4.72,3.69-7.21,8.42-6.69,2.04.22,4.07.46,6.24.71-.82,7.24-1.63,14.38-2.44,21.6l2,.23c.19-1.67.37-3.35.57-5.01.26-2.19.91-2.72,3.08-2.47,6.71.75,13.42,1.51,20.13,2.28,2.16.25,2.71.94,2.48,3.08-.17,1.56-.34,3.11-.51,4.67,0,.08.02.17.05.37l1.83.21c.17-1.54.35-3.13.53-4.71.29-2.54.8-2.96,3.36-2.75.26.02.53.01.88.02l.21-1.85-7.75-.88.22-1.97c2.58.29,5.13.58,7.76.88.3-2.68.76-5.2.82-7.72.06-2.58-1.93-4.43-4.73-4.75-6.93-.8-13.87-1.58-20.8-2.36-5.33-.6-10.67-1.21-16-1.81-2.62-.3-5.07.18-7.33,1.57-.51.32-.95.58-.61,1.36.21.5.15,1.14.09,1.71-.29,2.76-.61,5.51-.92,8.27-.34,3.01-1.2,3.76-4.38,3.7l-.17,1.48ZM1613.79,39.43c.38-3.32.73-6.47,1.1-9.7-3.22-.36-6.39-.72-9.66-1.09-.36,3.18-.72,6.34-1.09,9.66,3.58-2.1,6.71-1.71,9.66,1.13ZM1610.27,19.26c-2.36,0-4.18,1.81-4.54,4.15-.16,1-.23,2.01-.36,3.09,3.32.38,6.49.73,9.75,1.1.29-2.6.58-5.14.88-7.74-1.95-.22-3.84-.61-5.73-.6ZM1629.55,41.25c.22-1.91.43-3.78.65-5.76l-3.76-.43c-.11.52-.22,1.07-.35,1.72l-1.83-.21c.03-.58.05-1.14.08-1.77l-3.8-.43-.65,5.78c3.28.37,6.42.73,9.67,1.09ZM1633.48,51.72c2.71.3,5.18-1.66,5.48-4.37.3-2.69-1.68-5.18-4.38-5.48-2.7-.3-5.16,1.67-5.47,4.38-.3,2.72,1.65,5.16,4.37,5.47ZM1607.87,48.82c2.71.27,5.17-1.74,5.43-4.43.26-2.7-1.75-5.16-4.45-5.43-2.72-.27-5.12,1.7-5.4,4.44-.28,2.73,1.68,5.14,4.42,5.41ZM1642.05,36.81l-3.75-.42c-.14.63-.26,1.18-.39,1.79l-1.82-.21c.02-.62.03-1.18.04-1.82l-3.78-.43-.5,4.41c.44-.08.85-.17,1.26-.22,2.05-.22,3.85.35,5.49,1.63.74.57,1.69.87,2.75,1.39.27-2.37.48-4.22.69-6.13ZM1610.07,3.18c-.37,3.26-.73,6.47-1.1,9.74l1.84.21.43-3.8c.71.02,1.27.04,1.94.05l.65-5.78c-1.29-.15-2.48-.28-3.76-.43ZM1617.22,10l-.43,3.79,1.86.21c.36-3.22.72-6.4,1.09-9.67-1.21-.14-2.42-.27-3.75-.42l-.65,5.72c.63.13,1.18.24,1.87.38ZM1622.67,14.47l.43-3.8c.69.02,1.25.03,1.89.04.22-1.91.43-3.79.65-5.75-1.23-.14-2.41-.27-3.71-.42-.36,3.22-.73,6.43-1.1,9.72l1.83.21ZM1627.83,5.21c-.22,1.92-.43,3.77-.65,5.72.55.12,1.1.23,1.83.39l-.43,3.81,1.86.21c.36-3.2.73-6.41,1.1-9.72l-3.71-.42ZM1646.3,17.15c.22-1.93.43-3.81.65-5.75-1.94-.22-3.82-.43-5.76-.65l-.2,1.76c.55.12,1.1.23,1.83.38l-.43,3.82,3.91.44ZM1636.46,16.05c.14-1.27.28-2.49.43-3.81.69.01,1.25.02,1.92.04l.2-1.75-5.69-.64c-.21,1.85-.42,3.72-.65,5.74,1.28.15,2.46.28,3.79.43ZM1615.38,43.64c3.98.45,7.91.9,11.87,1.34.23-.57.45-1.1.72-1.74-4.31-.49-8.54-.97-12.93-1.46.13.69.23,1.25.34,1.86ZM1640.7,44.64c.12.66.22,1.25.33,1.89,3.23.37,6.44.73,9.76,1.1l.21-1.83c-3.42-.39-6.77-.77-10.3-1.17ZM1599.05,28.7c.41-3.16.74-6.34,1.13-9.86-2.9,3.27-2.7,7.03-3.16,10.63.99.33,1.87.44,2.03-.77ZM1593.76,41.24c2.49.28,4.95.63,7.43.77.37.02.8-.94,1.35-1.66-3.04-.34-5.73-.65-8.57-.97l-.21,1.86ZM1649.3,43.47c.21-1.89.43-3.77.65-5.74l-1.75-.2c-.21,1.86-.42,3.73-.65,5.74l1.75.2ZM1626.55,14.9l.2-1.77-1.82-.21-.2,1.77,1.82.21ZM1638.55,16.25l1.81.2.2-1.78-1.81-.2-.2,1.78ZM1614.92,11.79l-1.81-.21-.2,1.76,1.81.21c.07-.62.13-1.13.2-1.76ZM1596.14,37.69c.71-.19,1.29-.26,1.77-.51.16-.09.23-.82.09-.93-.43-.34-.99-.51-1.61-.8l-.25,2.25Z"/>
    <path class="cls-1" d="M1647.23,21.38c1.33.2,2.25,1.16,2.23,2.48-.02,1.84-.37,3.68-.58,5.56-3.28-.37-6.45-.73-9.71-1.1.29-2.59.58-5.1.88-7.77,2.49.28,4.84.48,7.18.84ZM1644.15,22.96c-.74-.09-1.48-.17-2.3-.26-.15,1.34-.29,2.56-.44,3.86,1.91.22,3.78.43,5.74.65.74-4.53.63-3.79-3-4.25Z"/>
    <path class="cls-1" d="M1637.93,20.37l-.87,7.67c-2.62-.3-5.17-.58-7.74-.88.3-2.62.58-5.13.87-7.67,2.63.3,5.18.59,7.74.88ZM1631.99,21.64l-.43,3.8c1.19.14,2.41.27,3.74.42.14-1.2.27-2.42.43-3.8l-3.74-.42Z"/>
    <path class="cls-1" d="M1627.19,26.92c-2.63-.3-5.17-.59-7.73-.87.3-2.62.58-5.14.87-7.7,2.61.3,5.13.58,7.73.87-.3,2.67-.59,5.19-.87,7.7ZM1621.66,24.35c1.26.14,2.44.28,3.75.42.14-1.25.28-2.5.43-3.81-1.23-.14-2.41-.27-3.75-.42l-.43,3.81Z"/>
    <path class="cls-1" d="M1640.6,32.49l.2-1.81c-7.19-.81-14.32-1.62-21.57-2.44l-.2,1.81c7.19.81,14.32,1.62,21.57,2.44Z"/>
    <path class="cls-1" d="M1606.88,30.83l-.2,1.8,1.87.21.2-1.8-1.87-.21Z"/>
    <path class="cls-1" d="M1633.85,49.79c-1.59-.07-2.89-1.54-2.81-3.15.07-1.6,1.52-2.89,3.15-2.8,1.65.09,2.89,1.49,2.8,3.13-.09,1.63-1.5,2.89-3.14,2.82ZM1633.93,47.69c.35,0,.7-.48,1.05-.75-.31-.36-.56-.9-.94-1.02-.27-.09-.72.4-1.36.81.59.48.93.98,1.26.97Z"/>
    <path class="cls-1" d="M1608.07,46.88c-1.59-.15-2.83-1.66-2.68-3.26.15-1.62,1.63-2.83,3.25-2.67,1.65.16,2.83,1.6,2.66,3.24-.16,1.64-1.61,2.84-3.24,2.69ZM1608.17,44.76c.4-.03.78-.49,1.16-.76-.28-.35-.5-.89-.85-.99-.32-.08-.76.32-1.46.66.54.54.87,1.11,1.14,1.09Z"/>
  </g>
  <g class="cls-4">
    <path class="cls-1" d="M1537.44,35.92c3.12-.63,4.72,1.27,6.13,3.48.03.05.07.1.11.14.5.63.6,1.31.2,2.01-.41.7-1.06.92-1.85.82-5.58-.72-11.16-1.43-16.73-2.14-.79-.1-1.38-.45-1.61-1.24-.24-.82.08-1.46.74-1.97.86-.66,1.68-1.38,2.59-1.96.44-.28,1.03-.44,1.55-.43.92.02,1.84.21,2.8.33l.87-6.78c-.54-.07-1.04-.12-1.54-.2-1.6-.25-2.47-1.37-2.28-3,.19-1.61.39-3.22.62-4.83.23-1.61,1.34-2.48,2.96-2.34.5.04,1,.12,1.53.19l.32-2.54c-.39-.05-.71-.09-1.04-.13-2.03-.26-4.06-.49-6.08-.8-.45-.07-.96-.37-1.25-.72-1.12-1.34-2.16-2.74-3.22-4.12-.59-.77-.54-1.12.23-1.73,1.37-1.07,2.73-2.17,4.16-3.18.39-.28,1-.42,1.48-.38,2.03.2,4.06.5,6.09.75.32.04.63.05.94.08.78-3.31,1.36-3.99,3.17-3.83.87.08,1.73.19,2.39.89,1.05,1.1.56,2.43.52,3.78.58.07,1.12.12,1.64.21,1.5.28,2.36,1.4,2.19,2.91-.19,1.7-.4,3.4-.66,5.1-.21,1.4-1.34,2.27-2.75,2.16-.56-.04-1.12-.14-1.7-.21l-.33,2.54c2.39.31,4.72.58,7.03.92.43.06.95.29,1.22.61,1.17,1.41,2.26,2.89,3.39,4.33.5.63.4,1.13-.23,1.6-1.13.85-2.3,1.66-3.34,2.61-1.01.93-2.05,1.13-3.36.9-1.97-.35-3.98-.54-6.01-.8-.3,2.31-.58,4.51-.89,6.95ZM1546.92,21.88c-.2-.24-.56-.46-.88-.5-4.67-.62-9.35-1.21-14.03-1.82-.84-.11-1.24.21-1.34,1.03-.17,1.49-.37,2.98-.57,4.47-.11.79.23,1.18,1.01,1.28,4.68.59,9.36,1.2,14.04,1.78.27.03.63,0,.84-.15,1.19-.86,2.34-1.77,3.59-2.73-.94-1.2-1.78-2.3-2.66-3.36ZM1526.67,12.57c.17.2.5.32.77.36,4.65.61,9.3,1.21,13.95,1.79.97.12,1.26-.11,1.39-1.05.2-1.46.36-2.92.57-4.38.12-.82-.19-1.23-1.03-1.34-4.68-.58-9.36-1.2-14.04-1.77-.31-.04-.72.08-.97.26-1.12.81-2.2,1.66-3.43,2.6.97,1.23,1.86,2.4,2.8,3.53ZM1542.14,40.63c.07-.07.15-.13.22-.2-.69-.81-1.36-1.64-2.07-2.42-.16-.17-.48-.21-.74-.25-3.58-.47-7.16-.94-10.74-1.36-.37-.04-.82.1-1.14.3-.75.49-1.45,1.07-2.36,1.76,5.78.74,11.31,1.45,16.83,2.16ZM1535.61,35.47c.29-2.23.57-4.42.85-6.67l-2.41-.31c-.28,2.21-.56,4.4-.85,6.67.83.11,1.6.2,2.41.31ZM1535.7,15.76l-.31,2.42,2.4.31.31-2.42-2.4-.31ZM1539.58,5.82c-.05-.82.06-1.65-.22-2.31-.13-.3-1.14-.47-1.61-.31-1.03.35-.53,1.43-.86,2.27.92.12,1.68.22,2.69.34Z"/>
  </g>
</svg>