<?xml version="1.0" encoding="UTF-8"?>
<svg id="Layer_1" data-name="Layer 1" xmlns="http://www.w3.org/2000/svg" xmlns:xlink="http://www.w3.org/1999/xlink" viewBox="0 0 2000 175">
  <defs>
    <style>
      .cls-1 {
        opacity: .25;
      }

      .cls-1, .cls-2, .cls-3 {
        stroke-width: 0px;
      }

      .cls-1, .cls-3 {
        fill: #e93cac;
      }

      .cls-4 {
        opacity: .35;
      }

      .cls-2 {
        fill: none;
      }

      .cls-5 {
        clip-path: url(#clippath);
      }
    </style>
    <clipPath id="clippath">
      <rect class="cls-2" y="-9.5" width="2000" height="200.03"/>
    </clipPath>
  </defs>
  <g class="cls-5">
    <path class="cls-1" d="M95.33,27.62c102.58,10.1,120.7,1.08,256,4.99,255.45,7.38,273.4,41.93,469.33,39.89,97.24-1.01,65.01-9.23,322.67-26.18,158.18-10.4,238.98-15.52,322.67-11.22,137.63,7.07,146.42,24.56,272,23.68,103.25-.72,170.76-1.19,240-21.19,24.51-7.08,15.45-7.09,32-4.43,46.02,7.4,87.16,74.86,24.33,97.92-45.34,16.64-108.5-2.05-229.67-14.96-125.31-13.34-216.87-10.14-400-3.74-250.19,8.75-244.98,36.45-453.33,46.12-350.13,16.26-382.74-61.14-741.33-42.38-89.93,4.7-186.91,26.98-232,.59,0,0-4.44-68.76-4.44-91.56,0-15.94,75.01-2.15,121.78,2.46Z"/>
    <path class="cls-1" d="M-12.35,93.71c7.1-5.31,39.32-27.31,152-33.66,86.81-4.89,116.27,5.44,242.67,14.96,192.61,14.51,222.76,10.45,309.33,23.68,104.47,15.96,307.62-2.1,437.81-27.98,84.56-16.81,220.07-25.05,274.19-20.63,115.21,9.41,151.48,15.19,240.47,26.86,100.24,13.14,125.33,17.09,269.33-3.51,66.84-9.56,68.35-12.52,87.86-4.65,40.1,16.18,41.39,60.34,0,83.52-65.92,36.91-202.42-.49-493.67-3.74-178.03-1.99-160.39,11.61-448,17.45-222.97,4.53-334.45,6.79-464-2.49-209.66-15.02-444.6-52.62-557.33-31.16-9.81,1.87-45.17,9.22-61.33,2.49-17.11-7.12-7.22-27.76,10.67-41.14Z"/>
    <path class="cls-1" d="M1915.87,138.04c-102.58-10.1-120.7-1.08-256-4.99-255.45-7.38-273.4-41.93-469.33-39.89-97.24,1.01-65.01,9.23-322.67,26.18-158.18,10.4-238.98,15.52-322.67,11.22-137.63-7.07-146.42-24.56-272-23.68-103.25.72-170.76,1.19-240,21.19-24.51,7.08-39.78,13.88-56.33,11.22-46.02-7.4-62.82-81.65,0-104.71,45.34-16.64,108.5,2.05,229.67,14.96,125.31,13.34,216.87,10.14,400,3.74,250.19-8.75,244.98-36.45,453.33-46.12,350.13-16.26,382.74,61.14,741.33,42.38,89.93-4.7,162.81-27.03,207.91-.64,0,0,5.33,64.59,5.33,87.38,0,15.94-51.8,6.37-98.57,1.76Z"/>
  </g>
  <g class="cls-4">
    <path class="cls-3" d="M651.07,16.64c-.16-1.81-.33-3.59-.48-5.37-.15-1.8.47-2.55,2.3-2.73,4.28-.41,8.55-.79,12.83-1.18.08,0,.17-.06.45-.15-.04-.46-.1-.97-.13-1.49-.1-1.61.55-2.38,2.23-2.54,4.23-.4,8.46-.77,12.7-1.15,2.67-.24,5.35-.49,8.02-.72,1.92-.16,2.61.43,2.79,2.35.27,2.85.55,5.7.76,8.56.06.81.34,1.11,1.15,1.3,5.67,1.38,9.43,5.74,9.99,11.55.4,4.14.75,8.28,1.14,12.58,2.24.24,2.29,1.96,2.36,3.66.06,1.49-.57,2.26-2.07,2.42-2.18.23-4.36.42-6.55.59-.74.06-1.14.21-1.33,1.1-.66,3.19-3.13,5.34-6.22,5.58-3.05.24-5.73-1.45-7.05-4.35-.17-.38-.71-.88-1.04-.86-3.7.27-7.39.62-11.16.96-.67,3.72-2.64,6.25-6.54,6.53-3.76.28-6.09-1.82-7.37-5.28-3.12.28-6.19.54-9.26.84-1.24.12-2.37-.07-2.66-1.41-.49-2.23-.58-3.56.83-4.22.73-.35.66-.82.6-1.4-.49-5.39-.98-10.78-1.46-16.17-.44-4.93.64-6.84,5.17-8.99ZM702.28,32.13c-3.17,0-4.02-.78-4.29-3.79-.25-2.76-.51-5.52-.74-8.29-.05-.57-.09-1.22.13-1.71.35-.78-.08-1.05-.58-1.38-2.23-1.44-4.66-1.98-7.29-1.74-5.35.48-10.69.96-16.04,1.45-6.95.63-13.9,1.24-20.85,1.89-2.81.26-4.84,2.07-4.83,4.64,0,2.52.41,5.04.65,7.74,2.64-.24,5.2-.47,7.78-.7l.18,1.98c-2.64.24-5.2.47-7.76.7l.17,1.85c.35,0,.62.02.88,0,2.56-.15,3.06.27,3.29,2.82.14,1.59.29,3.17.43,4.72l1.83-.16c.03-.19.06-.28.06-.36-.13-1.56-.27-3.12-.4-4.68-.18-2.15.38-2.83,2.55-3.03,6.73-.61,13.45-1.22,20.18-1.82,2.18-.19,2.82.35,3.03,2.54.16,1.67.3,3.35.45,5.03l2-.18c-.65-7.24-1.3-14.39-1.95-21.65,2.18-.2,4.22-.39,6.26-.56,4.74-.41,7.82,2.15,8.26,6.88.39,4.23.77,8.46,1.15,12.7.04.47.09.95.13,1.42l1.62-.15c.34-1.14.38-2.33.98-3.04.65-.76,1.83-1.07,2.87-1.62l-.13-1.48ZM694.8,38.56c-.3-3.33-.59-6.5-.87-9.69-3.28.3-6.45.58-9.68.87l.88,9.73c3.01-2.78,6.15-3.09,9.68-.91ZM683.36,19.87c.23,2.6.46,5.15.7,7.76l9.77-.88c-.1-1.08-.15-2.09-.29-3.1-.31-2.35-2.09-4.19-4.44-4.25-1.89-.05-3.79.3-5.74.47ZM679.01,40.06l-.52-5.79-3.81.34c.01.63.02,1.19.04,1.77l-1.83.17c-.12-.66-.22-1.21-.31-1.73l-3.77.34.52,5.77c3.25-.29,6.4-.58,9.69-.87ZM669.65,45.95c-.24-2.72-2.65-4.74-5.36-4.5-2.7.24-4.74,2.68-4.5,5.38.24,2.71,2.66,4.73,5.38,4.49,2.73-.24,4.73-2.64,4.49-5.36ZM695.36,43.69c-.22-2.74-2.58-4.77-5.3-4.56-2.7.21-4.77,2.62-4.57,5.33.2,2.7,2.62,4.76,5.33,4.55,2.74-.21,4.76-2.58,4.54-5.31ZM657.48,42.35c1.07-.5,2.03-.78,2.78-1.33,1.67-1.24,3.48-1.77,5.53-1.5.41.05.81.16,1.25.24l-.4-4.42-3.79.34c0,.64,0,1.2,0,1.82l-1.82.16c-.12-.61-.23-1.17-.35-1.8l-3.76.34.55,6.14ZM685.9,3.65l.52,5.79c.66,0,1.22,0,1.94,0l.34,3.81,1.85-.17-.88-9.77c-1.28.12-2.47.22-3.77.34ZM684.24,9.63l-.52-5.73c-1.33.12-2.55.23-3.76.34.3,3.29.58,6.47.87,9.7l1.87-.17-.34-3.8c.69-.12,1.25-.22,1.88-.33ZM678.64,14.15c-.3-3.3-.59-6.51-.88-9.74l-3.72.34c.18,1.96.35,3.84.52,5.76.64,0,1.21,0,1.9,0l.34,3.81,1.84-.17ZM668.14,5.28l.88,9.74,1.87-.17-.34-3.82c.73-.14,1.28-.24,1.83-.35-.18-1.96-.34-3.81-.52-5.74l-3.72.34ZM657.05,16.1l-.35-3.83c.73-.14,1.28-.24,1.84-.34l-.16-1.76-5.78.52c.18,1.95.35,3.83.52,5.77l3.92-.35ZM666.78,15.24l-.52-5.75c-1.99.18-3.87.35-5.7.51l.16,1.76c.67,0,1.23,0,1.92,0l.34,3.82c1.33-.12,2.51-.23,3.8-.34ZM683.81,41.79c-4.4.4-8.64.78-12.96,1.17.25.65.46,1.19.68,1.76,3.97-.36,7.92-.71,11.9-1.07.13-.6.24-1.17.39-1.85ZM647.78,45l.17,1.83c3.33-.3,6.55-.59,9.78-.88.13-.64.24-1.22.37-1.88-3.53.32-6.89.62-10.32.93ZM702.11,29.9c-.38-3.61-.09-7.36-2.92-10.7.32,3.53.57,6.71.91,9.88.13,1.22,1.02,1.12,2.01.82ZM704.93,39.88c-2.85.26-5.55.5-8.59.77.54.72.95,1.7,1.32,1.69,2.48-.08,4.95-.37,7.44-.6l-.17-1.86ZM651.29,42.54c-.18-2.02-.35-3.89-.52-5.76l-1.76.16c.18,1.98.35,3.86.52,5.76l1.76-.16ZM674.74,14.49l-.16-1.77-1.83.16.16,1.77,1.83-.16ZM660.74,13.96l-1.81.16.16,1.78,1.81-.16-.16-1.78ZM684.78,13.58l1.82-.16-.16-1.76-1.82.16.16,1.76ZM702.6,35.88c-.63.28-1.19.44-1.63.77-.15.11-.09.85.07.93.48.26,1.06.35,1.76.55l-.2-2.25Z"/>
    <path class="cls-3" d="M659.28,19.99l.7,7.79c-3.26.29-6.45.58-9.73.88-.17-1.88-.47-3.72-.46-5.57.01-1.32.96-2.26,2.29-2.43,2.34-.3,4.7-.45,7.19-.67ZM652.04,26.5c1.97-.18,3.85-.35,5.76-.52l-.35-3.87c-.82.07-1.57.13-2.31.21-3.64.38-3.73-.36-3.1,4.18Z"/>
    <path class="cls-3" d="M669.18,19.17c.23,2.54.46,5.06.69,7.69l-7.76.7c-.23-2.55-.46-5.07-.69-7.69,2.57-.23,5.12-.46,7.76-.7ZM663.58,21.61l.34,3.8,3.75-.34-.34-3.8-3.75.34Z"/>
    <path class="cls-3" d="M671.31,18.94c2.61-.23,5.13-.46,7.75-.7l.7,7.72-7.75.7-.7-7.72ZM677.25,20.39l-3.76.34c.12,1.32.23,2.57.34,3.82,1.31-.12,2.5-.23,3.76-.34l-.34-3.82Z"/>
    <path class="cls-3" d="M658.47,31.93l-.16-1.81c7.2-.65,14.35-1.29,21.62-1.95l.16,1.81c-7.21.65-14.36,1.29-21.62,1.95Z"/>
    <path class="cls-3" d="M692.23,31.03l.16,1.8-1.88.17-.16-1.8,1.88-.17Z"/>
    <path class="cls-3" d="M661.75,46.49c-.06-1.65,1.22-3.02,2.87-3.07,1.63-.05,3.05,1.26,3.09,2.87.04,1.62-1.3,3.05-2.89,3.09-1.64.04-3.01-1.25-3.07-2.89ZM666.07,46.33c-.64-.42-1.08-.92-1.35-.84-.39.11-.65.65-.96,1,.34.28.68.76,1.03.78.33.01.68-.47,1.28-.94Z"/>
    <path class="cls-3" d="M687.49,44.29c-.13-1.65,1.08-3.06,2.73-3.18,1.63-.12,3.08,1.12,3.19,2.74.12,1.61-1.16,3.09-2.75,3.2-1.63.12-3.05-1.12-3.17-2.77ZM691.78,43.87c-.69-.35-1.12-.77-1.44-.69-.35.09-.59.62-.87.97.38.28.74.75,1.15.79.28.03.62-.53,1.17-1.07Z"/>
  </g>
  <g class="cls-4">
    <path class="cls-3" d="M582.96,38.89c-2.02-.36-3.98-.79-5.97-1.04-1.33-.17-2.26-.68-2.94-1.86-.7-1.22-1.58-2.34-2.4-3.49-.46-.64-.4-1.14.26-1.6,1.51-1.04,2.99-2.12,4.53-3.12.35-.23.91-.29,1.35-.22,2.31.37,4.61.81,6.99,1.23l.45-2.52c-.58-.1-1.14-.18-1.68-.31-1.38-.32-2.2-1.49-1.98-2.89.27-1.69.57-3.38.9-5.06.29-1.49,1.44-2.31,2.96-2.12.53.06,1.05.18,1.63.29.37-1.3.29-2.71,1.63-3.45.84-.46,1.69-.32,2.54-.13,1.78.39,2.12,1.22,1.88,4.61.29.07.6.15.92.21,2.01.36,4.03.69,6.03,1.11.48.1,1.01.42,1.3.8,1.05,1.39,2.02,2.84,3.01,4.28.55.8.49,1.16-.3,1.72-1.43,1-2.84,2.03-4.31,2.97-.38.25-.96.38-1.41.31-2.02-.3-4.03-.7-6.04-1.06-.32-.06-.64-.11-1.03-.18l-.45,2.52c.53.09,1.03.17,1.51.27,1.59.35,2.39,1.52,2.12,3.12-.27,1.6-.55,3.2-.86,4.8-.31,1.6-1.47,2.41-3.07,2.17-.5-.07-.99-.18-1.53-.27l-1.21,6.73c.96.17,1.89.27,2.77.53.5.15,1.02.48,1.35.88.69.83,1.25,1.76,1.88,2.65.48.68.59,1.39.11,2.1-.45.68-1.12.84-1.9.7-5.53-1-11.07-1.99-16.61-2.98-.79-.14-1.34-.54-1.52-1.33-.18-.79.13-1.41.79-1.86.05-.03.1-.07.15-.1,2.01-1.68,4.1-3.02,6.89-1.48.43-2.42.83-4.61,1.24-6.9ZM573.35,31.95c.91,1.29,1.73,2.5,2.61,3.68.15.21.48.35.75.4,4.64.85,9.28,1.67,13.92,2.51.77.14,1.21-.14,1.34-.92.26-1.48.52-2.96.8-4.43.16-.82-.13-1.24-.96-1.39-4.64-.82-9.28-1.67-13.93-2.47-.31-.05-.72.04-.99.21-1.16.75-2.29,1.55-3.55,2.41ZM602.74,24.22c-.89-1.27-1.67-2.41-2.49-3.51-.19-.25-.54-.48-.85-.54-4.64-.86-9.28-1.67-13.92-2.52-.83-.15-1.25.15-1.38.97-.24,1.45-.52,2.9-.77,4.35-.16.94.05,1.25,1.01,1.42,4.61.83,9.23,1.66,13.84,2.47.27.05.63.03.85-.11,1.23-.8,2.43-1.64,3.73-2.52ZM592.53,51.86c-.66-.93-1.15-1.7-1.72-2.39-.24-.29-.63-.56-1-.63-3.55-.67-7.1-1.3-10.65-1.92-.26-.05-.58-.1-.78.01-.92.53-1.81,1.12-2.7,1.68.05.08.1.17.15.25,5.48.98,10.97,1.97,16.7,3ZM586,46.34c.4-2.26.79-4.43,1.19-6.62l-2.39-.43c-.4,2.24-.79,4.41-1.19,6.62.81.15,1.57.28,2.39.43ZM587.06,26.65l-.43,2.4,2.38.43.43-2.4-2.38-.43ZM591.38,16.91c-.06-.9.74-1.78-.14-2.42-.4-.3-1.42-.43-1.63-.19-.47.54-.61,1.37-.9,2.14l2.67.48Z"/>
  </g>
</svg>