<?xml version="1.0" encoding="UTF-8"?>
<svg id="Layer_1" data-name="Layer 1" xmlns="http://www.w3.org/2000/svg" xmlns:xlink="http://www.w3.org/1999/xlink" viewBox="0 0 2000 175">
  <defs>
    <style>
      .cls-1 {
        fill: none;
      }

      .cls-1, .cls-2 {
        stroke-width: 0px;
      }

      .cls-3 {
        clip-path: url(#clippath);
      }

      .cls-2 {
        fill: #c5b4e3;
        opacity: .53;
      }
    </style>
    <clipPath id="clippath">
      <rect class="cls-1" y="-9.5" width="2000" height="200.03"/>
    </clipPath>
  </defs>
  <g class="cls-3">
    <path class="cls-2" d="M95.33,27.62c102.58,10.1,120.7,1.08,256,4.99,255.45,7.38,273.4,41.93,469.33,39.89,97.24-1.01,65.01-9.23,322.67-26.18,158.18-10.4,238.98-15.52,322.67-11.22,137.63,7.07,146.42,24.56,272,23.68,103.25-.72,170.76-1.19,240-21.19,24.51-7.08,15.45-7.09,32-4.43,46.02,7.4,87.16,74.86,24.33,97.92-45.34,16.64-108.5-2.05-229.67-14.96-125.31-13.34-216.87-10.14-400-3.74-250.19,8.75-244.98,36.45-453.33,46.12-350.13,16.26-382.74-61.14-741.33-42.38-89.93,4.7-186.91,26.98-232,.59,0,0-4.44-68.76-4.44-91.56,0-15.94,75.01-2.15,121.78,2.46Z"/>
    <path class="cls-2" d="M-12.35,93.71c7.1-5.31,39.32-27.31,152-33.66,86.81-4.89,116.27,5.44,242.67,14.96,192.61,14.51,222.76,10.45,309.33,23.68,104.47,15.96,307.62-2.1,437.81-27.98,84.56-16.81,220.07-25.05,274.19-20.63,115.21,9.41,151.48,15.19,240.47,26.86,100.24,13.14,125.33,17.09,269.33-3.51,66.84-9.56,68.35-12.52,87.86-4.65,40.1,16.18,41.39,60.34,0,83.52-65.92,36.91-202.42-.49-493.67-3.74-178.03-1.99-160.39,11.61-448,17.45-222.97,4.53-334.45,6.79-464-2.49-209.66-15.02-444.6-52.62-557.33-31.16-9.81,1.87-45.17,9.22-61.33,2.49-17.11-7.12-7.22-27.76,10.67-41.14Z"/>
    <path class="cls-2" d="M1915.87,138.04c-102.58-10.1-120.7-1.08-256-4.99-255.45-7.38-273.4-41.93-469.33-39.89-97.24,1.01-65.01,9.23-322.67,26.18-158.18,10.4-238.98,15.52-322.67,11.22-137.63-7.07-146.42-24.56-272-23.68-103.25.72-170.76,1.19-240,21.19-24.51,7.08-39.78,13.88-56.33,11.22-46.02-7.4-62.82-81.65,0-104.71,45.34-16.64,108.5,2.05,229.67,14.96,125.31,13.34,216.87,10.14,400,3.74,250.19-8.75,244.98-36.45,453.33-46.12,350.13-16.26,382.74,61.14,741.33,42.38,89.93-4.7,162.81-27.03,207.91-.64,0,0,5.33,64.59,5.33,87.38,0,15.94-51.8,6.37-98.57,1.76Z"/>
  </g>
</svg>