<?xml version="1.0" encoding="UTF-8"?>
<svg id="Layer_1" data-name="Layer 1" xmlns="http://www.w3.org/2000/svg" xmlns:xlink="http://www.w3.org/1999/xlink" viewBox="0 0 2000 175">
  <defs>
    <style>
      .cls-1 {
        fill: none;
      }

      .cls-1, .cls-2, .cls-3 {
        stroke-width: 0px;
      }

      .cls-4 {
        opacity: .75;
      }

      .cls-2 {
        opacity: .35;
      }

      .cls-2, .cls-3 {
        fill: #aadb1e;
      }

      .cls-5 {
        clip-path: url(#clippath);
      }
    </style>
    <clipPath id="clippath">
      <rect class="cls-1" y="-9.5" width="2000" height="200.03"/>
    </clipPath>
  </defs>
  <g class="cls-5">
    <path class="cls-2" d="m95.33,27.62c102.58,10.1,120.7,1.08,256,4.99,255.45,7.38,273.4,41.93,469.33,39.89,97.24-1.01,65.01-9.23,322.67-26.18,158.18-10.4,238.98-15.52,322.67-11.22,137.63,7.07,146.42,24.56,272,23.68,103.25-.72,170.76-1.19,240-21.19,24.51-7.08,15.45-7.09,32-4.43,46.02,7.4,87.16,74.86,24.33,97.92-45.34,16.64-108.5-2.05-229.67-14.96-125.31-13.34-216.87-10.14-400-3.74-250.19,8.75-244.98,36.45-453.33,46.12-350.13,16.26-382.74-61.14-741.33-42.38-89.93,4.7-186.91,26.98-232,.59,0,0-4.44-68.76-4.44-91.56,0-15.94,75.01-2.15,121.78,2.46Z"/>
    <path class="cls-2" d="m-12.35,93.71c7.1-5.31,39.32-27.31,152-33.66,86.81-4.89,116.27,5.44,242.67,14.96,192.61,14.51,222.76,10.45,309.33,23.68,104.47,15.96,307.62-2.1,437.81-27.98,84.56-16.81,220.07-25.05,274.19-20.63,115.21,9.41,151.48,15.19,240.47,26.86,100.24,13.14,125.33,17.09,269.33-3.51,66.84-9.56,68.35-12.52,87.86-4.65,40.1,16.18,41.39,60.34,0,83.52-65.92,36.91-202.42-.49-493.67-3.74-178.03-1.99-160.39,11.61-448,17.45-222.97,4.53-334.45,6.79-464-2.49-209.66-15.02-444.6-52.62-557.33-31.16-9.81,1.87-45.17,9.22-61.33,2.49-17.11-7.12-7.22-27.76,10.67-41.14Z"/>
    <path class="cls-2" d="m1915.87,138.04c-102.58-10.1-120.7-1.08-256-4.99-255.45-7.38-273.4-41.93-469.33-39.89-97.24,1.01-65.01,9.23-322.67,26.18-158.18,10.4-238.98,15.52-322.67,11.22-137.63-7.07-146.42-24.56-272-23.68-103.25.72-170.76,1.19-240,21.19-24.51,7.08-39.78,13.88-56.33,11.22-46.02-7.4-62.82-81.65,0-104.71,45.34-16.64,108.5,2.05,229.67,14.96,125.31,13.34,216.87,10.14,400,3.74,250.19-8.75,244.98-36.45,453.33-46.12,350.13-16.26,382.74,61.14,741.33,42.38,89.93-4.7,162.81-27.03,207.91-.64,0,0,5.33,64.59,5.33,87.38,0,15.94-51.8,6.37-98.57,1.76Z"/>
  </g>
  <g class="cls-4">
    <path class="cls-3" d="m646.15,16.41c-.13-1.82-.26-3.6-.38-5.38-.11-1.8.52-2.54,2.35-2.68,4.28-.32,8.57-.62,12.85-.93.08,0,.17-.05.45-.15-.03-.46-.08-.97-.1-1.49-.07-1.61.6-2.37,2.28-2.49,4.24-.32,8.48-.6,12.72-.9,2.68-.19,5.35-.39,8.03-.56,1.92-.12,2.6.48,2.75,2.41.21,2.86.43,5.71.59,8.57.04.81.32,1.11,1.12,1.32,5.64,1.49,9.32,5.93,9.76,11.74.32,4.15.59,8.3.89,12.6,2.24.28,2.25,2.01,2.28,3.71.03,1.49-.62,2.25-2.12,2.37-2.18.18-4.37.34-6.56.46-.74.04-1.15.19-1.35,1.07-.72,3.18-3.24,5.27-6.33,5.46-3.05.18-5.7-1.56-6.96-4.49-.16-.38-.69-.9-1.02-.88-3.7.19-7.4.48-11.17.74-.74,3.71-2.77,6.19-6.67,6.4-3.77.2-6.05-1.94-7.27-5.43-3.12.22-6.2.41-9.27.66-1.24.1-2.36-.12-2.63-1.47-.44-2.24-.51-3.57.91-4.21.74-.33.67-.81.63-1.39-.38-5.4-.76-10.8-1.14-16.2-.35-4.93.77-6.83,5.34-8.88Zm50.89,16.5c-3.17-.07-4-.86-4.22-3.88-.2-2.77-.4-5.53-.57-8.3-.03-.57-.07-1.22.16-1.7.37-.77-.05-1.05-.56-1.39-2.2-1.49-4.62-2.07-7.26-1.89-5.35.38-10.71.75-16.06,1.13-6.96.49-13.92.97-20.88,1.47-2.81.21-4.88,1.97-4.92,4.55-.05,2.52.31,5.05.5,7.75l7.79-.55c.05.72.09,1.28.14,1.98-2.65.19-5.21.37-7.78.55l.13,1.85c.35,0,.61.03.88.02,2.56-.1,3.05.34,3.24,2.89.11,1.59.22,3.18.33,4.73l1.83-.13c.03-.19.07-.28.06-.36-.1-1.56-.21-3.12-.31-4.69-.14-2.15.44-2.82,2.61-2.98,6.74-.48,13.47-.95,20.21-1.42,2.18-.15,2.81.4,2.97,2.6.13,1.68.24,3.35.36,5.03l2-.14c-.51-7.25-1.01-14.41-1.52-21.68,2.18-.15,4.22-.3,6.27-.44,4.74-.32,7.78,2.31,8.12,7.04.31,4.24.6,8.48.9,12.72.03.47.07.95.1,1.43l1.63-.11c.36-1.13.42-2.32,1.04-3.02.66-.75,1.85-1.03,2.9-1.57l-.1-1.49Zm-7.6,6.28c-.23-3.34-.46-6.51-.68-9.7-3.28.23-6.46.45-9.7.68.23,3.24.45,6.41.68,9.74,3.07-2.72,6.21-2.97,9.7-.72Zm-11.07-18.92c.18,2.61.36,5.16.55,7.77,3.27-.23,6.46-.45,9.79-.69-.08-1.08-.11-2.1-.22-3.1-.26-2.35-2-4.23-4.36-4.34-1.89-.09-3.79.22-5.75.36Zm-4.74,20.1c-.14-2-.27-3.88-.41-5.8l-3.82.27c0,.63,0,1.19,0,1.77l-1.84.13c-.11-.66-.2-1.21-.28-1.74l-3.77.27.41,5.78c3.26-.23,6.41-.45,9.71-.68Zm-9.48,5.7c-.19-2.72-2.56-4.8-5.27-4.61-2.71.19-4.79,2.58-4.61,5.29.19,2.71,2.57,4.78,5.29,4.6,2.73-.19,4.78-2.54,4.6-5.27Zm25.75-1.75c-.17-2.75-2.48-4.82-5.21-4.67-2.71.16-4.82,2.52-4.67,5.23.14,2.7,2.52,4.81,5.24,4.65,2.74-.16,4.81-2.48,4.64-5.22Zm-37.85-2.08c1.08-.48,2.05-.73,2.81-1.28,1.7-1.21,3.51-1.7,5.55-1.39.41.06.81.17,1.25.27-.11-1.59-.21-3-.31-4.43-1.31.09-2.54.18-3.79.27-.01.64-.02,1.2-.03,1.82l-1.82.13c-.11-.61-.2-1.17-.31-1.8l-3.76.26c.13,1.92.26,3.77.43,6.15Zm29.18-38.13c.14,2.02.27,3.91.41,5.8.66,0,1.22.02,1.94.03l.27,3.82,1.85-.13c-.23-3.29-.46-6.51-.69-9.78-1.29.09-2.48.17-3.78.27Zm-1.77,5.95c-.14-2.01-.27-3.89-.4-5.74l-3.77.26c.23,3.29.46,6.48.68,9.71l1.87-.13c-.09-1.3-.18-2.53-.27-3.81.69-.11,1.25-.2,1.89-.3Zm-5.69,4.4c-.23-3.3-.46-6.52-.69-9.75l-3.72.26c.14,1.96.27,3.85.41,5.77.64.01,1.21.02,1.9.04l.27,3.82,1.84-.13Zm-10.32-9.08c.23,3.32.46,6.54.69,9.75l1.87-.13-.27-3.83c.73-.12,1.29-.22,1.84-.31-.14-1.96-.27-3.82-.4-5.75l-3.72.26Zm-11.3,10.6c-.1-1.35-.18-2.61-.27-3.84.73-.12,1.29-.21,1.85-.3l-.12-1.76c-1.95.14-3.83.27-5.79.41.14,1.95.27,3.83.41,5.78l3.93-.28Zm9.75-.67c-.14-2.02-.27-3.91-.4-5.76l-5.71.4c.05.67.09,1.22.12,1.76.67.02,1.23.03,1.92.05.09,1.33.18,2.55.27,3.82,1.33-.09,2.52-.18,3.8-.27Zm16.5,26.89c-4.41.31-8.65.61-12.98.91.24.66.43,1.2.64,1.77,3.98-.28,7.93-.56,11.92-.84.14-.6.27-1.16.42-1.85Zm-36.09,2.5c.05.71.09,1.26.13,1.84,3.33-.23,6.56-.46,9.8-.69.14-.64.27-1.22.41-1.88-3.54.25-6.9.48-10.34.73Zm54.62-14.02c-.31-3.62.06-7.36-2.71-10.75.25,3.54.43,6.72.71,9.9.11,1.22.99,1.14,1.99.86Zm2.63,10.03c-2.86.2-5.56.39-8.6.6.53.73.91,1.72,1.28,1.71,2.48-.03,4.96-.27,7.45-.45l-.13-1.87Zm-53.69,1.6c-.14-2.02-.27-3.9-.4-5.76l-1.76.12c.14,1.98.27,3.86.4,5.76l1.76-.12Zm24.01-27.58l-.12-1.78-1.83.13.12,1.78,1.83-.13Zm-13.99-.81l-1.81.13.13,1.78,1.81-.13-.13-1.78Zm24.05.1l1.82-.13-.12-1.77-1.82.13.12,1.77Zm17.37,22.65c-.63.26-1.2.42-1.64.74-.15.1-.11.84.05.94.47.27,1.05.37,1.75.59-.06-.86-.1-1.41-.16-2.26Z"/>
    <path class="cls-3" d="m654.29,19.92c.19,2.69.37,5.21.55,7.8l-9.74.68c-.13-1.88-.4-3.73-.35-5.58.04-1.32,1-2.24,2.34-2.38,2.35-.25,4.71-.36,7.2-.53Zm-7.37,6.37c1.97-.14,3.85-.27,5.77-.41-.09-1.31-.18-2.53-.27-3.88-.82.06-1.57.1-2.31.16-3.64.31-3.72-.44-3.18,4.12Z"/>
    <path class="cls-3" d="m664.2,19.3c.18,2.55.36,5.07.54,7.7-2.59.18-5.14.36-7.77.55-.18-2.55-.36-5.07-.54-7.7,2.57-.18,5.13-.36,7.77-.55Zm-5.64,2.33c.1,1.38.18,2.61.27,3.81l3.75-.26c-.09-1.33-.18-2.55-.27-3.81l-3.75.26Z"/>
    <path class="cls-3" d="m666.34,19.11c2.61-.18,5.14-.36,7.76-.55.18,2.58.36,5.1.54,7.74l-7.76.55-.54-7.74Zm5.91,1.57l-3.76.26c.09,1.32.18,2.58.27,3.83l3.76-.26-.27-3.83Z"/>
    <path class="cls-3" d="m653.25,31.84c-.05-.68-.08-1.2-.13-1.81,7.22-.51,14.38-1.01,21.65-1.52l.13,1.81c-7.22.51-14.38,1.01-21.65,1.52Z"/>
    <path class="cls-3" d="m687.01,31.62l.13,1.81-1.88.13-.13-1.81,1.88-.13Z"/>
    <path class="cls-3" d="m656.24,46.46c-.03-1.65,1.28-2.99,2.93-3.01,1.63-.02,3.03,1.32,3.03,2.93,0,1.62-1.36,3.02-2.95,3.03-1.64,0-2.99-1.31-3.01-2.95Zm4.32-.07c-.63-.43-1.06-.94-1.33-.87-.39.11-.66.63-.98.98.34.29.66.78,1.01.8.33.02.69-.46,1.3-.91Z"/>
    <path class="cls-3" d="m682.01,44.77c-.09-1.65,1.15-3.04,2.8-3.13,1.63-.09,3.05,1.18,3.14,2.81.08,1.61-1.22,3.07-2.82,3.15-1.63.08-3.03-1.18-3.12-2.83Zm4.3-.34c-.68-.37-1.11-.79-1.43-.72-.35.08-.6.61-.89.95.37.29.73.76,1.13.81.28.03.63-.52,1.19-1.04Z"/>
  </g>
  <g class="cls-4">
    <path class="cls-3" d="m732.87,34.01c-2.04.18-4.05.29-6.04.57-1.32.19-2.36-.06-3.33-1.02-1-.99-2.14-1.84-3.24-2.74-.61-.5-.69-1-.17-1.61,1.19-1.4,2.33-2.84,3.55-4.2.28-.31.81-.52,1.24-.57,2.33-.25,4.66-.44,7.06-.65l-.23-2.55c-.58.05-1.14.13-1.7.15-1.41.05-2.51-.85-2.67-2.26-.19-1.7-.34-3.41-.46-5.12-.11-1.52.79-2.6,2.3-2.83.53-.08,1.06-.1,1.65-.15.01-1.35-.43-2.69.66-3.75.69-.67,1.54-.75,2.42-.79,1.82-.09,2.37.62,3.02,3.95.3-.01.62-.02.94-.04,2.04-.18,4.07-.4,6.11-.52.49-.03,1.09.14,1.47.43,1.38,1.06,2.7,2.21,4.03,3.33.74.63.78.99.16,1.73-1.11,1.34-2.21,2.7-3.37,4-.3.34-.82.61-1.28.67-2.03.24-4.07.39-6.11.57-.32.03-.65.06-1.04.09.08.87.15,1.65.23,2.55.53-.05,1.03-.11,1.53-.13,1.62-.08,2.7.84,2.87,2.45.16,1.62.31,3.23.43,4.85.13,1.63-.78,2.72-2.39,2.91-.5.06-1,.09-1.55.14.21,2.31.4,4.51.61,6.81.97-.09,1.9-.24,2.81-.22.52,0,1.11.19,1.54.49.88.62,1.67,1.37,2.51,2.06.64.53.93,1.18.66,1.99-.26.78-.86,1.1-1.65,1.17-5.6.5-11.2,1-16.8,1.5-.8.07-1.44-.17-1.82-.89-.38-.72-.25-1.4.28-2.01.04-.05.08-.09.11-.14,1.49-2.15,3.16-3.99,6.26-3.24-.22-2.45-.42-4.66-.62-6.98Zm-11.1-4.16c1.21,1.01,2.33,1.96,3.48,2.86.2.16.56.21.83.18,4.7-.41,9.4-.83,14.09-1.25.78-.07,1.13-.45,1.05-1.24-.14-1.5-.28-2.99-.4-4.49-.06-.83-.46-1.16-1.3-1.08-4.7.43-9.4.84-14.09,1.28-.31.03-.68.23-.89.47-.92,1.03-1.8,2.1-2.79,3.26Zm26.31-15.21c-1.19-.99-2.24-1.88-3.33-2.73-.25-.2-.65-.32-.96-.3-4.7.4-9.4.83-14.1,1.24-.84.07-1.17.47-1.08,1.3.15,1.46.26,2.93.4,4.4.09.95.38,1.19,1.35,1.11,4.67-.41,9.34-.83,14-1.26.27-.03.61-.14.79-.33.98-1.09,1.92-2.22,2.93-3.42Zm-2.56,29.36c-.89-.73-1.56-1.33-2.29-1.85-.31-.22-.76-.38-1.13-.35-3.6.29-7.19.62-10.78.95-.26.02-.59.06-.75.22-.75.75-1.45,1.55-2.16,2.34.07.07.14.14.21.21,5.55-.5,11.1-.99,16.9-1.51Zm-7.76-3.61c-.2-2.28-.4-4.48-.6-6.7l-2.42.22c.2,2.26.4,4.46.6,6.7.82-.07,1.59-.14,2.42-.22Zm-4.17-19.27c.07.84.15,1.62.22,2.43l2.41-.22c-.08-.85-.15-1.64-.22-2.43l-2.41.22Zm1.6-10.54c-.3-.86.24-1.91-.77-2.3-.47-.18-1.48-.05-1.62.25-.31.65-.23,1.48-.31,2.3l2.7-.24Z"/>
  </g>
</svg>